0
SECTION
2
HEADER
9
$INSUNITS
70
4
0
ENDSEC
0
SECTION
2
TABLES
0
TABLE
2
LTYPE
0
LTYPE
72
65
70
64
2
CONTINUOUS
3
______
73
0
40
0
0
ENDTAB
0
TABLE
2
LAYER
0
ENDTAB
0
ENDSEC
0
SECTION
2
ENTITIES
0
LINE
8
0
10
90
20
-209.5
11
110
21
-209.5
0
LINE
8
0
10
110
20
-209.5
11
110
21
-204.5
0
LINE
8
0
10
90
20
-209.5
11
90
21
-152.5
0
LINE
8
0
10
110
20
-152.5
11
90
21
-152.5
0
LINE
8
0
10
110
20
-204.5
11
130
21
-204.5
0
LINE
8
0
10
130
20
-204.5
11
130
21
-196
0
LINE
8
0
10
130
20
-147.5
11
110
21
-147.5
0
LINE
8
0
10
110
20
-147.5
11
110
21
-152.5
0
LINE
8
0
10
130
20
-196
11
150
21
-196
0
LINE
8
0
10
150
20
-147.5
11
150
21
-139
0
LINE
8
0
10
150
20
-139
11
130
21
-139
0
LINE
8
0
10
130
20
-139
11
130
21
-147.5
0
LINE
8
0
10
150
20
-204.5
11
170
21
-204.5
0
LINE
8
0
10
170
20
-204.5
11
170
21
-196
0
LINE
8
0
10
150
20
-196
11
150
21
-204.5
0
LINE
8
0
10
170
20
-147.5
11
150
21
-147.5
0
LINE
8
0
10
170
20
-196
11
190
21
-196
0
LINE
8
0
10
190
20
-196
11
190
21
-139
0
LINE
8
0
10
190
20
-139
11
170
21
-139
0
LINE
8
0
10
170
20
-139
11
170
21
-147.5
0
LINE
8
0
10
183
20
-246
11
183
21
-208
0
LINE
8
0
10
183
20
-208
11
163
21
-208
0
LINE
8
0
10
163
20
-246
11
163
21
-208
0
LINE
8
0
10
183
20
-227
11
200.6589519
21
-236.3894313
0
LINE
8
0
10
200.6589519
20
-236.3894313
11
209.5789116
21
-219.613427
0
LINE
8
0
10
209.5789116
20
-219.613427
11
191.9199597
21
-210.2239957
0
LINE
8
0
10
191.9199597
20
-210.2239957
11
183
21
-227
0
LINE
8
0
10
200.6589518
20
-236.3894313
11
211.8428099
21
-252.9701827
0
LINE
8
0
10
211.8428099
20
-252.9701827
11
227.5945238
21
-242.3455175
0
LINE
8
0
10
227.5945238
20
-242.3455175
11
216.4106657
21
-225.7647661
0
LINE
8
0
10
216.4106657
20
-225.7647661
11
200.6589518
21
-236.3894313
0
LINE
8
0
10
163
20
-246
11
183
21
-246
0
LINE
8
0
10
184.6773412
20
-246.910722
11
195.5701219
21
-263.6841333
0
LINE
8
0
10
195.5701219
20
-263.6841333
11
211.5048626
21
-253.3359916
0
LINE
8
0
10
211.5048626
20
-253.3359916
11
200.6120819
21
-236.5625803
0
LINE
8
0
10
200.6120819
20
-236.5625803
11
184.6773412
21
-246.910722
0
ENDSEC
0
EOF