0
SECTION
2
HEADER
9
$INSUNITS
70
4
0
ENDSEC
0
SECTION
2
TABLES
0
TABLE
2
LTYPE
0
LTYPE
72
65
70
64
2
CONTINUOUS
3
______
73
0
40
0
0
ENDTAB
0
TABLE
2
LAYER
0
ENDTAB
0
ENDSEC
0
SECTION
2
ENTITIES
0
LINE
8
0
10
86.5
20
-210.7636517
11
86.5
21
-151.25
0
LINE
8
0
10
88.5
20
-149.25
11
103.5953912
21
-149.25
0
LINE
8
0
10
104.3727921
20
-149.0927283
11
135.6272079
21
-135.9072717
0
LINE
8
0
10
136.4046088
20
-135.75
11
214
21
-135.75
0
LINE
8
0
10
216
20
-219.8632929
11
216
21
-137.75
0
LINE
8
0
10
216.3680904
20
-221.0195243
11
231.0556929
21
-241.7496676
0
LINE
8
0
10
230.5320417
20
-244.5707604
11
195.7540121
21
-267.7216624
0
LINE
8
0
10
193.6914361
20
-267.8144352
11
160.5456824
21
-249.8177592
0
LINE
8
0
10
159.5
20
-248.0601251
11
159.5
21
-215.2363483
0
LINE
8
0
10
157.5136984
20
-213.2363952
11
88.4863016
21
-212.7636048
0
ARC
8
0
10
88.5
20
-151.25
40
2
50
90
51
180
0
ARC
8
0
10
103.5953912
20
-147.25
40
2
50
270
51
292.873664
0
ARC
8
0
10
136.4046088
20
-137.75
40
2
50
90
51
112.873664
0
ARC
8
0
10
214
20
-137.75
40
2
50
0
51
90
0
ARC
8
0
10
218
20
-219.8632929
40
2
50
180
51
215.3181199
0
ARC
8
0
10
229.4237833
20
-242.905899
40
2
50
303.6507564
51
35.3181199
0
ARC
8
0
10
194.6457537
20
-266.056801
40
2
50
241.4999977
51
303.6507564
0
ARC
8
0
10
161.5
20
-248.0601251
40
2
50
180
51
241.4999977
0
ARC
8
0
10
157.5
20
-215.2363483
40
2
50
0
51
89.6075667
0
ARC
8
0
10
88.5
20
-210.7636517
40
2
50
180
51
269.6075667
0
LINE
8
0
10
91
20
-208.5
11
109
21
-208.5
0
LINE
8
0
10
109
20
-208.5
11
109
21
-191.5
0
LINE
8
0
10
109
20
-191.5
11
91
21
-191.5
0
LINE
8
0
10
91
20
-191.5
11
91
21
-208.5
0
LINE
8
0
10
91
20
-189.5
11
109
21
-189.5
0
LINE
8
0
10
109
20
-189.5
11
109
21
-172.5
0
LINE
8
0
10
109
20
-172.5
11
91
21
-172.5
0
LINE
8
0
10
91
20
-172.5
11
91
21
-189.5
0
LINE
8
0
10
91
20
-170.5
11
109
21
-170.5
0
LINE
8
0
10
109
20
-170.5
11
109
21
-153.5
0
LINE
8
0
10
109
20
-153.5
11
91
21
-153.5
0
LINE
8
0
10
91
20
-153.5
11
91
21
-170.5
0
LINE
8
0
10
111
20
-203.5
11
129
21
-203.5
0
LINE
8
0
10
129
20
-203.5
11
129
21
-186.5
0
LINE
8
0
10
129
20
-186.5
11
111
21
-186.5
0
LINE
8
0
10
111
20
-186.5
11
111
21
-203.5
0
LINE
8
0
10
111
20
-184.5
11
129
21
-184.5
0
LINE
8
0
10
129
20
-184.5
11
129
21
-167.5
0
LINE
8
0
10
129
20
-167.5
11
111
21
-167.5
0
LINE
8
0
10
111
20
-167.5
11
111
21
-184.5
0
LINE
8
0
10
111
20
-165.5
11
129
21
-165.5
0
LINE
8
0
10
129
20
-165.5
11
129
21
-148.5
0
LINE
8
0
10
129
20
-148.5
11
111
21
-148.5
0
LINE
8
0
10
111
20
-148.5
11
111
21
-165.5
0
LINE
8
0
10
131
20
-195
11
149
21
-195
0
LINE
8
0
10
149
20
-195
11
149
21
-178
0
LINE
8
0
10
149
20
-178
11
131
21
-178
0
LINE
8
0
10
131
20
-178
11
131
21
-195
0
LINE
8
0
10
131
20
-176
11
149
21
-176
0
LINE
8
0
10
149
20
-176
11
149
21
-159
0
LINE
8
0
10
149
20
-159
11
131
21
-159
0
LINE
8
0
10
131
20
-159
11
131
21
-176
0
LINE
8
0
10
131
20
-157
11
149
21
-157
0
LINE
8
0
10
149
20
-157
11
149
21
-140
0
LINE
8
0
10
149
20
-140
11
131
21
-140
0
LINE
8
0
10
131
20
-140
11
131
21
-157
0
LINE
8
0
10
151
20
-203.5
11
169
21
-203.5
0
LINE
8
0
10
169
20
-203.5
11
169
21
-186.5
0
LINE
8
0
10
169
20
-186.5
11
151
21
-186.5
0
LINE
8
0
10
151
20
-186.5
11
151
21
-203.5
0
LINE
8
0
10
151
20
-184.5
11
169
21
-184.5
0
LINE
8
0
10
169
20
-184.5
11
169
21
-167.5
0
LINE
8
0
10
169
20
-167.5
11
151
21
-167.5
0
LINE
8
0
10
151
20
-167.5
11
151
21
-184.5
0
LINE
8
0
10
151
20
-165.5
11
169
21
-165.5
0
LINE
8
0
10
169
20
-165.5
11
169
21
-148.5
0
LINE
8
0
10
169
20
-148.5
11
151
21
-148.5
0
LINE
8
0
10
151
20
-148.5
11
151
21
-165.5
0
LINE
8
0
10
171
20
-195
11
189
21
-195
0
LINE
8
0
10
189
20
-195
11
189
21
-178
0
LINE
8
0
10
189
20
-178
11
171
21
-178
0
LINE
8
0
10
171
20
-178
11
171
21
-195
0
LINE
8
0
10
171
20
-176
11
189
21
-176
0
LINE
8
0
10
189
20
-176
11
189
21
-159
0
LINE
8
0
10
189
20
-159
11
171
21
-159
0
LINE
8
0
10
171
20
-159
11
171
21
-176
0
LINE
8
0
10
171
20
-157
11
189
21
-157
0
LINE
8
0
10
189
20
-157
11
189
21
-140
0
LINE
8
0
10
189
20
-140
11
171
21
-140
0
LINE
8
0
10
171
20
-140
11
171
21
-157
0
LINE
8
0
10
164
20
-226
11
182
21
-226
0
LINE
8
0
10
182
20
-226
11
182
21
-209
0
LINE
8
0
10
182
20
-209
11
164
21
-209
0
LINE
8
0
10
164
20
-209
11
164
21
-226
0
LINE
8
0
10
184.3524192
20
-226.586524
11
200.2454759
21
-235.0370121
0
LINE
8
0
10
200.2454759
20
-235.0370121
11
208.2264924
21
-220.026903
0
LINE
8
0
10
208.2264924
20
-220.026903
11
192.3334357
21
-211.5764149
0
LINE
8
0
10
192.3334357
20
-211.5764149
11
184.3524192
21
-226.586524
0
LINE
8
0
10
202.0471823
20
-236.6592759
11
212.1126546
21
-251.5819522
0
LINE
8
0
10
212.1126546
20
-251.5819522
11
226.2062933
21
-242.0756729
0
LINE
8
0
10
226.2062933
20
-242.0756729
11
216.140821
21
-227.1529966
0
LINE
8
0
10
216.140821
20
-227.1529966
11
202.0471823
21
-236.6592759
0
LINE
8
0
10
164
20
-245
11
182
21
-245
0
LINE
8
0
10
182
20
-245
11
182
21
-228
0
LINE
8
0
10
182
20
-228
11
164
21
-228
0
LINE
8
0
10
164
20
-228
11
164
21
-245
0
LINE
8
0
10
186.0606508
20
-247.2047535
11
195.8641534
21
-262.3008237
0
LINE
8
0
10
195.8641534
20
-262.3008237
11
210.121553
21
-253.0419601
0
LINE
8
0
10
210.121553
20
-253.0419601
11
200.3180504
21
-237.9458899
0
LINE
8
0
10
200.3180504
20
-237.9458899
11
186.0606508
21
-247.2047535
0
ENDSEC
0
EOF