0
SECTION
2
HEADER
9
$INSUNITS
70
4
0
ENDSEC
0
SECTION
2
TABLES
0
TABLE
2
LTYPE
0
LTYPE
72
65
70
64
2
CONTINUOUS
3
______
73
0
40
0
0
ENDTAB
0
TABLE
2
LAYER
0
ENDTAB
0
ENDSEC
0
SECTION
2
ENTITIES
0
LINE
8
0
10
85.5
20
-211.7636517
11
85.5
21
-150.25
0
LINE
8
0
10
87.5
20
-148.25
11
103.5953912
21
-148.25
0
LINE
8
0
10
104.3727921
20
-148.0927283
11
135.6272079
21
-134.9072717
0
LINE
8
0
10
136.4046088
20
-134.75
11
198
21
-134.75
0
LINE
8
0
10
208
20
-134.75
11
215
21
-134.75
0
LINE
8
0
10
217
20
-219.8570845
11
217
21
-136.75
0
LINE
8
0
10
217.3746282
20
-221.0224885
11
232.4275637
21
-242.0165973
0
LINE
8
0
10
231.9102625
20
-244.8469877
11
195.4599279
21
-269.1051704
0
LINE
8
0
10
193.3975397
20
-269.1978182
11
159.5456824
21
-250.8177592
0
LINE
8
0
10
158.5
20
-249.0601251
11
158.5
21
-216.2363483
0
LINE
8
0
10
156.5136984
20
-214.2363952
11
87.4863016
21
-213.7636048
0
ARC
8
0
10
87.5
20
-150.25
40
2
50
90
51
180
0
ARC
8
0
10
103.5953912
20
-146.25
40
2
50
270
51
292.873664
0
ARC
8
0
10
136.4046088
20
-136.75
40
2
50
90
51
112.873664
0
ARC
8
0
10
215
20
-136.75
40
2
50
0
51
90
0
ARC
8
0
10
219
20
-219.8570845
40
2
50
180
51
215.6408123
0
ARC
8
0
10
230.8021919
20
-243.1820013
40
2
50
303.6442935
51
35.6408123
0
ARC
8
0
10
194.3518573
20
-267.440184
40
2
50
241.4999977
51
303.6442935
0
ARC
8
0
10
160.5
20
-249.0601251
40
2
50
180
51
241.4999977
0
ARC
8
0
10
156.5
20
-216.2363483
40
2
50
0
51
89.6075667
0
ARC
8
0
10
87.5
20
-211.7636517
40
2
50
180
51
269.6075667
0
LINE
8
0
10
86.5
20
-210.7636517
11
86.5
21
-151.25
0
LINE
8
0
10
88.5
20
-149.25
11
103.5953912
21
-149.25
0
LINE
8
0
10
104.3727921
20
-149.0927283
11
135.6272079
21
-135.9072717
0
LINE
8
0
10
136.4046088
20
-135.75
11
198
21
-135.75
0
LINE
8
0
10
208
20
-135.75
11
214
21
-135.75
0
LINE
8
0
10
216
20
-219.8632929
11
216
21
-137.75
0
LINE
8
0
10
216.3680904
20
-221.0195243
11
231.0556929
21
-241.7496676
0
LINE
8
0
10
230.5320417
20
-244.5707604
11
195.7540121
21
-267.7216624
0
LINE
8
0
10
193.6914361
20
-267.8144352
11
160.5456824
21
-249.8177592
0
LINE
8
0
10
159.5
20
-248.0601251
11
159.5
21
-215.2363483
0
LINE
8
0
10
157.5136984
20
-213.2363952
11
88.4863016
21
-212.7636048
0
ARC
8
0
10
88.5
20
-151.25
40
2
50
90
51
180
0
ARC
8
0
10
103.5953912
20
-147.25
40
2
50
270
51
292.873664
0
ARC
8
0
10
136.4046088
20
-137.75
40
2
50
90
51
112.873664
0
ARC
8
0
10
214
20
-137.75
40
2
50
0
51
90
0
ARC
8
0
10
218
20
-219.8632929
40
2
50
180
51
215.3181199
0
ARC
8
0
10
229.4237833
20
-242.905899
40
2
50
303.6507564
51
35.3181199
0
ARC
8
0
10
194.6457537
20
-266.056801
40
2
50
241.4999977
51
303.6507564
0
ARC
8
0
10
161.5
20
-248.0601251
40
2
50
180
51
241.4999977
0
ARC
8
0
10
157.5
20
-215.2363483
40
2
50
0
51
89.6075667
0
ARC
8
0
10
88.5
20
-210.7636517
40
2
50
180
51
269.6075667
0
LINE
8
0
10
88
20
-209.2636517
11
88
21
-152.75
0
LINE
8
0
10
90
20
-150.75
11
103.5953912
21
-150.75
0
LINE
8
0
10
104.3727921
20
-150.5927283
11
135.6272079
21
-137.4072717
0
LINE
8
0
10
136.4046088
20
-137.25
11
193
21
-137.25
0
LINE
8
0
10
214.5
20
-219.8729606
11
214.5
21
-139.25
0
LINE
8
0
10
214.85799
20
-221.0148026
11
228.9986739
21
-241.3496189
0
LINE
8
0
10
228.4652376
20
-244.1561122
11
196.1951478
21
-265.6463647
0
LINE
8
0
10
194.1322565
20
-265.7393476
11
162.0456824
21
-248.3177592
0
LINE
8
0
10
161
20
-246.5601251
11
161
21
-213.7363483
0
LINE
8
0
10
159.0136984
20
-211.7363952
11
89.9863016
21
-211.2636048
0
ARC
8
0
10
90
20
-152.75
40
2
50
90
51
180
0
ARC
8
0
10
103.5953912
20
-148.75
40
2
50
270
51
292.873664
0
ARC
8
0
10
136.4046088
20
-139.25
40
2
50
90
51
112.873664
0
ARC
8
0
10
212.5
20
-139.25
40
2
50
0
51
75.522488
0
ARC
8
0
10
216.5
20
-219.8729606
40
2
50
180
51
214.8144749
0
ARC
8
0
10
227.3566639
20
-242.4914609
40
2
50
303.6616115
51
34.8144749
0
ARC
8
0
10
195.0865741
20
-263.9817134
40
2
50
241.4999977
51
303.6616115
0
ARC
8
0
10
163
20
-246.5601251
40
2
50
180
51
241.4999977
0
ARC
8
0
10
159
20
-213.7363483
40
2
50
0
51
89.6075667
0
ARC
8
0
10
90
20
-209.2636517
40
2
50
180
51
269.6075667
0
LINE
8
0
10
193
20
-156.8
11
198
21
-156.8
0
LINE
8
0
10
208
20
-156.8
11
213
21
-156.8
0
LINE
8
0
10
213
20
-156.8
11
213
21
-137.3135083
0
LINE
8
0
10
193
20
-137.25
11
193
21
-156.8
0
LINE
8
0
10
198
20
-163.5
11
208
21
-163.5
0
LINE
8
0
10
208
20
-163.5
11
208
21
-156.8
0
LINE
8
0
10
208
20
-135.75
11
208
21
-134.75
0
LINE
8
0
10
198
20
-134.75
11
198
21
-135.75
0
LINE
8
0
10
198
20
-156.8
11
198
21
-163.5
0
ENDSEC
0
EOF