solid csg.js
facet normal 0 0 -1
outer loop
vertex 215.00000000000009 -134.75 0
vertex 215.34729635533392 -134.7803844939756 0
vertex 215.68404028665122 -134.87061475842816 0
endloop
endfacet
facet normal 0 0 -1
outer loop
vertex 215.00000000000009 -134.75 0
vertex 215.68404028665122 -134.87061475842816 0
vertex 216.00000000000003 -135.01794919243116 0
endloop
endfacet
facet normal 0 0 -1
outer loop
vertex 215.00000000000009 -134.75 0
vertex 216.00000000000003 -135.01794919243116 0
vertex 216.28557521937313 -135.2179111137621 0
endloop
endfacet
facet normal 0 0 -1
outer loop
vertex 215.00000000000009 -134.75 0
vertex 216.28557521937313 -135.2179111137621 0
vertex 216.532088886238 -135.46442478062698 0
endloop
endfacet
facet normal 0 0 -1
outer loop
vertex 215.00000000000009 -134.75 0
vertex 216.532088886238 -135.46442478062698 0
vertex 216.73205080756884 -135.74999999999994 0
endloop
endfacet
facet normal 0 0 -1
outer loop
vertex 215.00000000000009 -134.75 0
vertex 216.73205080756884 -135.74999999999994 0
vertex 216.8793852415719 -136.06595971334883 0
endloop
endfacet
facet normal 0 0 -1
outer loop
vertex 215.00000000000009 -134.75 0
vertex 216.8793852415719 -136.06595971334883 0
vertex 216.9696155060244 -136.402703644666 0
endloop
endfacet
facet normal 0 0 -1
outer loop
vertex 215.00000000000009 -134.75 0
vertex 216.9696155060244 -136.402703644666 0
vertex 217 -136.75 0
endloop
endfacet
facet normal 0 0 -1
outer loop
vertex 215.00000000000009 -134.75 0
vertex 217 -136.75 0
vertex 217 -148.09272500000012 0
endloop
endfacet
facet normal 0 0 -1
outer loop
vertex 215.00000000000009 -134.75 0
vertex 217 -148.09272500000012 0
vertex 104.3727905999996 -148.09272500000012 0
endloop
endfacet
facet normal 0 0 -1
outer loop
vertex 215.00000000000009 -134.75 0
vertex 104.3727905999996 -148.09272500000012 0
vertex 135.6272078999998 -134.90727170000005 0
endloop
endfacet
facet normal 0 0 -1
outer loop
vertex 215.00000000000009 -134.75 0
vertex 135.6272078999998 -134.90727170000005 0
vertex 135.81468571892123 -134.8389840459595 0
endloop
endfacet
facet normal 0 0 -1
outer loop
vertex 215.00000000000009 -134.75 0
vertex 135.81468571892123 -134.8389840459595 0
vertex 136.00803409829936 -134.78971221245962 0
endloop
endfacet
facet normal 0 0 -1
outer loop
vertex 215.00000000000009 -134.75 0
vertex 136.00803409829936 -134.78971221245962 0
vertex 136.20532972509505 -134.75995074355268 0
endloop
endfacet
facet normal 0 0 -1
outer loop
vertex 215.00000000000009 -134.75 0
vertex 136.20532972509505 -134.75995074355268 0
vertex 136.4046089500001 -134.74999585 0
endloop
endfacet
facet normal 0 0 -1
outer loop
vertex 217 -148.09272500000012 0
vertex 217 -148.1610168040406 0
vertex 104.18531383107849 -148.1610168040406 0
endloop
endfacet
facet normal 0 0 -1
outer loop
vertex 217 -148.09272500000012 0
vertex 104.18531383107849 -148.1610168040406 0
vertex 104.3727905999996 -148.09272500000012 0
endloop
endfacet
facet normal 0 0 -1
outer loop
vertex 217 -148.1610168040406 0
vertex 217 -148.21028863754026 0
vertex 103.99196545170129 -148.21028863754026 0
endloop
endfacet
facet normal 0 0 -1
outer loop
vertex 217 -148.1610168040406 0
vertex 103.99196545170129 -148.21028863754026 0
vertex 104.18531383107849 -148.1610168040406 0
endloop
endfacet
facet normal 0 0 -1
outer loop
vertex 217 -148.21028863754026 0
vertex 217 -148.24005010644737 0
vertex 103.79466982490442 -148.24005010644737 0
endloop
endfacet
facet normal 0 0 -1
outer loop
vertex 217 -148.21028863754026 0
vertex 103.79466982490442 -148.24005010644737 0
vertex 103.99196545170129 -148.21028863754026 0
endloop
endfacet
facet normal 0 0 -1
outer loop
vertex 217 -148.24005010644737 0
vertex 217 -148.25 0
vertex 103.59539120000062 -148.25 0
endloop
endfacet
facet normal 0 0 -1
outer loop
vertex 217 -148.24005010644737 0
vertex 103.59539120000062 -148.25 0
vertex 103.79466982490442 -148.24005010644737 0
endloop
endfacet
facet normal 0 0 -1
outer loop
vertex 103.59539120000062 -148.25 0
vertex 217 -148.25 0
vertex 217 -214.23640415000003 0
endloop
endfacet
facet normal 0 0 -1
outer loop
vertex 103.59539120000062 -148.25 0
vertex 217 -214.23640415000003 0
vertex 156.513700000001 -214.23640415000003 0
endloop
endfacet
facet normal 0 0 -1
outer loop
vertex 103.59539120000062 -148.25 0
vertex 156.513700000001 -214.23640415000003 0
vertex 87.4863015999998 -213.7636048 0
endloop
endfacet
facet normal 0 0 -1
outer loop
vertex 103.59539120000062 -148.25 0
vertex 87.4863015999998 -213.7636048 0
vertex 87.14071733630828 -213.73111852672125 0
endloop
endfacet
facet normal 0 0 -1
outer loop
vertex 103.59539120000062 -148.25 0
vertex 87.14071733630828 -213.73111852672125 0
vertex 86.80595580107646 -213.63936793111688 0
endloop
endfacet
facet normal 0 0 -1
outer loop
vertex 103.59539120000062 -148.25 0
vertex 86.80595580107646 -213.63936793111688 0
vertex 86.49209950108691 -213.49111922042846 0
endloop
endfacet
facet normal 0 0 -1
outer loop
vertex 103.59539120000062 -148.25 0
vertex 86.49209950108691 -213.49111922042846 0
vertex 86.20860205936476 -213.2908377739549 0
endloop
endfacet
facet normal 0 0 -1
outer loop
vertex 103.59539120000062 -148.25 0
vertex 86.20860205936476 -213.2908377739549 0
vertex 85.96400266388744 -213.0445562419714 0
endloop
endfacet
facet normal 0 0 -1
outer loop
vertex 103.59539120000062 -148.25 0
vertex 85.96400266388744 -213.0445562419714 0
vertex 85.76566885985703 -212.7596928370856 0
endloop
endfacet
facet normal 0 0 -1
outer loop
vertex 103.59539120000062 -148.25 0
vertex 85.76566885985703 -212.7596928370856 0
vertex 85.61957463287436 -212.44482789126502 0
endloop
endfacet
facet normal 0 0 -1
outer loop
vertex 103.59539120000062 -148.25 0
vertex 85.61957463287436 -212.44482789126502 0
vertex 85.53012046732773 -212.10944540882073 0
endloop
endfacet
facet normal 0 0 -1
outer loop
vertex 103.59539120000062 -148.25 0
vertex 85.53012046732773 -212.10944540882073 0
vertex 85.5000008 -211.7636474 0
endloop
endfacet
facet normal 0 0 -1
outer loop
vertex 103.59539120000062 -148.25 0
vertex 85.5000008 -211.7636474 0
vertex 85.5 -150.25 0
endloop
endfacet
facet normal 0 0 -1
outer loop
vertex 103.59539120000062 -148.25 0
vertex 85.5 -150.25 0
vertex 85.53038449397557 -149.90270364466625 0
endloop
endfacet
facet normal 0 0 -1
outer loop
vertex 103.59539120000062 -148.25 0
vertex 85.53038449397557 -149.90270364466625 0
vertex 85.62061475842819 -149.5659597133487 0
endloop
endfacet
facet normal 0 0 -1
outer loop
vertex 103.59539120000062 -148.25 0
vertex 85.62061475842819 -149.5659597133487 0
vertex 85.76794919243117 -149.2499999999999 0
endloop
endfacet
facet normal 0 0 -1
outer loop
vertex 103.59539120000062 -148.25 0
vertex 85.76794919243117 -149.2499999999999 0
vertex 85.96791111376204 -148.9644247806269 0
endloop
endfacet
facet normal 0 0 -1
outer loop
vertex 103.59539120000062 -148.25 0
vertex 85.96791111376204 -148.9644247806269 0
vertex 86.21442478062691 -148.71791111376203 0
endloop
endfacet
facet normal 0 0 -1
outer loop
vertex 103.59539120000062 -148.25 0
vertex 86.21442478062691 -148.71791111376203 0
vertex 86.4999999999998 -148.51794919243125 0
endloop
endfacet
facet normal 0 0 -1
outer loop
vertex 103.59539120000062 -148.25 0
vertex 86.4999999999998 -148.51794919243125 0
vertex 86.81595971334872 -148.3706147584282 0
endloop
endfacet
facet normal 0 0 -1
outer loop
vertex 103.59539120000062 -148.25 0
vertex 86.81595971334872 -148.3706147584282 0
vertex 87.15270364466636 -148.28038449397553 0
endloop
endfacet
facet normal 0 0 -1
outer loop
vertex 103.59539120000062 -148.25 0
vertex 87.15270364466636 -148.28038449397553 0
vertex 87.49999999999973 -148.25 0
endloop
endfacet
facet normal 0 0 -1
outer loop
vertex 217 -214.23640415000003 0
vertex 217 -214.26889262407144 0
vertex 156.859281277624 -214.26889262407144 0
endloop
endfacet
facet normal 0 0 -1
outer loop
vertex 217 -214.23640415000003 0
vertex 156.859281277624 -214.26889262407144 0
vertex 156.513700000001 -214.23640415000003 0
endloop
endfacet
facet normal 0 0 -1
outer loop
vertex 217 -214.26889262407144 0
vertex 217 -214.36064207655735 0
vertex 157.19404083067738 -214.36064207655735 0
endloop
endfacet
facet normal 0 0 -1
outer loop
vertex 217 -214.26889262407144 0
vertex 157.19404083067738 -214.36064207655735 0
vertex 156.859281277624 -214.26889262407144 0
endloop
endfacet
facet normal 0 0 -1
outer loop
vertex 217 -214.36064207655735 0
vertex 217 -214.5088889699002 0
vertex 157.50789554070448 -214.5088889699002 0
endloop
endfacet
facet normal 0 0 -1
outer loop
vertex 217 -214.36064207655735 0
vertex 157.50789554070448 -214.5088889699002 0
vertex 157.19404083067738 -214.36064207655735 0
endloop
endfacet
facet normal 0 0 -1
outer loop
vertex 217 -214.5088889699002 0
vertex 217 -214.70916803649905 0
vertex 157.79139195315773 -214.70916803649905 0
endloop
endfacet
facet normal 0 0 -1
outer loop
vertex 217 -214.5088889699002 0
vertex 157.79139195315773 -214.70916803649905 0
vertex 157.50789554070448 -214.5088889699002 0
endloop
endfacet
facet normal 0 0 -1
outer loop
vertex 217 -214.70916803649905 0
vertex 217 -214.95544677471523 0
vertex 158.03599101998915 -214.95544677471523 0
endloop
endfacet
facet normal 0 0 -1
outer loop
vertex 217 -214.70916803649905 0
vertex 158.03599101998915 -214.95544677471523 0
vertex 157.79139195315773 -214.70916803649905 0
endloop
endfacet
facet normal 0 0 -1
outer loop
vertex 217 -214.95544677471523 0
vertex 217 -215.24030715071478 0
vertex 158.23432529987323 -215.24030715071478 0
endloop
endfacet
facet normal 0 0 -1
outer loop
vertex 217 -214.95544677471523 0
vertex 158.23432529987323 -215.24030715071478 0
vertex 158.03599101998915 -214.95544677471523 0
endloop
endfacet
facet normal 0 0 -1
outer loop
vertex 217 -215.24030715071478 0
vertex 217 -215.55516903321228 0
vertex 158.38042086908047 -215.55516903321228 0
endloop
endfacet
facet normal 0 0 -1
outer loop
vertex 217 -215.24030715071478 0
vertex 158.38042086908047 -215.55516903321228 0
vertex 158.23432529987323 -215.24030715071478 0
endloop
endfacet
facet normal 0 0 -1
outer loop
vertex 217 -215.55516903321228 0
vertex 217 -215.8905486311423 0
vertex 158.46987725892606 -215.8905486311423 0
endloop
endfacet
facet normal 0 0 -1
outer loop
vertex 217 -215.55516903321228 0
vertex 158.46987725892606 -215.8905486311423 0
vertex 158.38042086908047 -215.55516903321228 0
endloop
endfacet
facet normal 0 0 -1
outer loop
vertex 217 -215.8905486311423 0
vertex 217 -216.23634830000034 0
vertex 158.5 -216.23634830000034 0
endloop
endfacet
facet normal 0 0 -1
outer loop
vertex 217 -215.8905486311423 0
vertex 158.5 -216.23634830000034 0
vertex 158.46987725892606 -215.8905486311423 0
endloop
endfacet
facet normal 0 0 -1
outer loop
vertex 217 -216.23634830000034 0
vertex 217 -219.85708450000024 0
vertex 158.50000013236996 -219.85708450000024 0
endloop
endfacet
facet normal 0 0 -1
outer loop
vertex 217 -216.23634830000034 0
vertex 158.50000013236996 -219.85708450000024 0
vertex 158.5 -216.23634830000034 0
endloop
endfacet
facet normal 0 0 -1
outer loop
vertex 217 -219.85708450000024 0
vertex 217.01546178508917 -220.1052644310685 0
vertex 158.50000014144314 -220.1052644310685 0
endloop
endfacet
facet normal 0 0 -1
outer loop
vertex 217 -219.85708450000024 0
vertex 158.50000014144314 -220.1052644310685 0
vertex 158.50000013236996 -219.85708450000024 0
endloop
endfacet
facet normal 0 0 -1
outer loop
vertex 217.01546178508917 -220.1052644310685 0
vertex 217.06159505643765 -220.34960547691173 0
vertex 158.50000015037597 -220.34960547691173 0
endloop
endfacet
facet normal 0 0 -1
outer loop
vertex 217.01546178508917 -220.1052644310685 0
vertex 158.50000015037597 -220.34960547691173 0
vertex 158.50000014144314 -220.1052644310685 0
endloop
endfacet
facet normal 0 0 -1
outer loop
vertex 217.06159505643765 -220.34960547691173 0
vertex 217.13769169948333 -220.58633343539086 0
vertex 158.5000001590305 -220.58633343539086 0
endloop
endfacet
facet normal 0 0 -1
outer loop
vertex 217.06159505643765 -220.34960547691173 0
vertex 158.5000001590305 -220.58633343539086 0
vertex 158.50000015037597 -220.34960547691173 0
endloop
endfacet
facet normal 0 0 -1
outer loop
vertex 217.13769169948333 -220.58633343539086 0
vertex 217.24257543466402 -220.81178903523968 0
vertex 158.50000016727287 -220.81178903523968 0
endloop
endfacet
facet normal 0 0 -1
outer loop
vertex 217.13769169948333 -220.58633343539086 0
vertex 158.50000016727287 -220.81178903523968 0
vertex 158.5000001590305 -220.58633343539086 0
endloop
endfacet
facet normal 0 0 -1
outer loop
vertex 217.24257543466402 -220.81178903523968 0
vertex 217.37462499999987 -221.02248724999978 0
vertex 158.50000017497578 -221.02248724999978 0
endloop
endfacet
facet normal 0 0 -1
outer loop
vertex 217.24257543466402 -220.81178903523968 0
vertex 158.50000017497578 -221.02248724999978 0
vertex 158.50000016727287 -220.81178903523968 0
endloop
endfacet
facet normal 0 0 -1
outer loop
vertex 217.37462499999987 -221.02248724999978 0
vertex 232.42756370000004 -242.0165973000001 0
vertex 232.5929760525936 -242.29144106524055 0
endloop
endfacet
facet normal 0 0 -1
outer loop
vertex 217.37462499999987 -221.02248724999978 0
vertex 232.5929760525936 -242.29144106524055 0
vertex 232.71232109037166 -242.58919888972468 0
endloop
endfacet
facet normal 0 0 -1
outer loop
vertex 217.37462499999987 -221.02248724999978 0
vertex 232.71232109037166 -242.58919888972468 0
vertex 232.78252672391997 -242.902207083072 0
endloop
endfacet
facet normal 0 0 -1
outer loop
vertex 217.37462499999987 -221.02248724999978 0
vertex 232.78252672391997 -242.902207083072 0
vertex 232.80178686136142 -243.22241327787367 0
endloop
endfacet
facet normal 0 0 -1
outer loop
vertex 217.37462499999987 -221.02248724999978 0
vertex 232.80178686136142 -243.22241327787367 0
vertex 232.76960602140753 -243.54157993281157 0
endloop
endfacet
facet normal 0 0 -1
outer loop
vertex 217.37462499999987 -221.02248724999978 0
vertex 232.76960602140753 -243.54157993281157 0
vertex 232.68681207998074 -243.85149624949557 0
endloop
endfacet
facet normal 0 0 -1
outer loop
vertex 217.37462499999987 -221.02248724999978 0
vertex 232.68681207998074 -243.85149624949557 0
vertex 232.55553497249366 -244.14418940133461 0
endloop
endfacet
facet normal 0 0 -1
outer loop
vertex 217.37462499999987 -221.02248724999978 0
vertex 232.55553497249366 -244.14418940133461 0
vertex 232.3791518996833 -244.41212964040014 0
endloop
endfacet
facet normal 0 0 -1
outer loop
vertex 217.37462499999987 -221.02248724999978 0
vertex 232.3791518996833 -244.41212964040014 0
vertex 232.16220044662623 -244.64842400575876 0
endloop
endfacet
facet normal 0 0 -1
outer loop
vertex 217.37462499999987 -221.02248724999978 0
vertex 232.16220044662623 -244.64842400575876 0
vertex 231.9102618499998 -244.84699365000012 0
endloop
endfacet
facet normal 0 0 -1
outer loop
vertex 217.37462499999987 -221.02248724999978 0
vertex 231.9102618499998 -244.84699365000012 0
vertex 195.45992790000068 -269.1051703999996 0
endloop
endfacet
facet normal 0 0 -1
outer loop
vertex 217.37462499999987 -221.02248724999978 0
vertex 195.45992790000068 -269.1051703999996 0
vertex 195.1896974072108 -269.25623119486903 0
endloop
endfacet
facet normal 0 0 -1
outer loop
vertex 217.37462499999987 -221.02248724999978 0
vertex 195.1896974072108 -269.25623119486903 0
vertex 194.89939630195155 -269.3637745177623 0
endloop
endfacet
facet normal 0 0 -1
outer loop
vertex 217.37462499999987 -221.02248724999978 0
vertex 194.89939630195155 -269.3637745177623 0
vertex 194.5959762703334 -269.42522842265083 0
endloop
endfacet
facet normal 0 0 -1
outer loop
vertex 217.37462499999987 -221.02248724999978 0
vertex 194.5959762703334 -269.42522842265083 0
vertex 194.2867072789179 -269.4391204693952 0
endloop
endfacet
facet normal 0 0 -1
outer loop
vertex 217.37462499999987 -221.02248724999978 0
vertex 194.2867072789179 -269.4391204693952 0
vertex 193.9789994357832 -269.4051178035204 0
endloop
endfacet
facet normal 0 0 -1
outer loop
vertex 217.37462499999987 -221.02248724999978 0
vertex 193.9789994357832 -269.4051178035204 0
vertex 193.6802254437744 -269.32403513143396 0
endloop
endfacet
facet normal 0 0 -1
outer loop
vertex 217.37462499999987 -221.02248724999978 0
vertex 193.6802254437744 -269.32403513143396 0
vertex 193.39754395000017 -269.19781520000004 0
endloop
endfacet
facet normal 0 0 -1
outer loop
vertex 217.37462499999987 -221.02248724999978 0
vertex 193.39754395000017 -269.19781520000004 0
vertex 159.5456823999999 -250.81775919999995 0
endloop
endfacet
facet normal 0 0 -1
outer loop
vertex 217.37462499999987 -221.02248724999978 0
vertex 159.5456823999999 -250.81775919999995 0
vertex 159.28842065207257 -250.65137046826706 0
endloop
endfacet
facet normal 0 0 -1
outer loop
vertex 217.37462499999987 -221.02248724999978 0
vertex 159.28842065207257 -250.65137046826706 0
vertex 159.0595918616522 -250.4476450317424 0
endloop
endfacet
facet normal 0 0 -1
outer loop
vertex 217.37462499999987 -221.02248724999978 0
vertex 159.0595918616522 -250.4476450317424 0
vertex 158.86456467781005 -250.2113590474457 0
endloop
endfacet
facet normal 0 0 -1
outer loop
vertex 217.37462499999987 -221.02248724999978 0
vertex 158.86456467781005 -250.2113590474457 0
vertex 158.70791573856502 -249.94805735993532 0
endloop
endfacet
facet normal 0 0 -1
outer loop
vertex 217.37462499999987 -221.02248724999978 0
vertex 158.70791573856502 -249.94805735993532 0
vertex 158.59332107244194 -249.6639187822858 0
endloop
endfacet
facet normal 0 0 -1
outer loop
vertex 217.37462499999987 -221.02248724999978 0
vertex 158.59332107244194 -249.6639187822858 0
vertex 158.52346983433418 -249.36561109993892 0
endloop
endfacet
facet normal 0 0 -1
outer loop
vertex 217.37462499999987 -221.02248724999978 0
vertex 158.52346983433418 -249.36561109993892 0
vertex 158.5000012 -249.06013459999997 0
endloop
endfacet
facet normal 0 0 -1
outer loop
vertex 217.37462499999987 -221.02248724999978 0
vertex 158.5000012 -249.06013459999997 0
vertex 158.50000017497578 -221.02248724999978 0
endloop
endfacet
facet normal 0 0 1
outer loop
vertex 194.5959762703332 -269.42522842265083 1.5
vertex 194.89939630195198 -269.3637745177622 1.5
vertex 195.18969740721062 -269.25623119486914 1.5
endloop
endfacet
facet normal 0 0 1
outer loop
vertex 194.5959762703332 -269.42522842265083 1.5
vertex 195.18969740721062 -269.25623119486914 1.5
vertex 195.45992790000048 -269.10517039999974 1.5
endloop
endfacet
facet normal 0 0 1
outer loop
vertex 194.5959762703332 -269.42522842265083 1.5
vertex 195.45992790000048 -269.10517039999974 1.5
vertex 231.9102618500003 -244.8469936499998 1.5
endloop
endfacet
facet normal 0 0 1
outer loop
vertex 194.5959762703332 -269.42522842265083 1.5
vertex 231.9102618500003 -244.8469936499998 1.5
vertex 232.16220044662595 -244.64842400575904 1.5
endloop
endfacet
facet normal 0 0 1
outer loop
vertex 194.5959762703332 -269.42522842265083 1.5
vertex 232.16220044662595 -244.64842400575904 1.5
vertex 232.37915189968325 -244.41212964040017 1.5
endloop
endfacet
facet normal 0 0 1
outer loop
vertex 194.5959762703332 -269.42522842265083 1.5
vertex 232.37915189968325 -244.41212964040017 1.5
vertex 232.55553497249372 -244.1441894013345 1.5
endloop
endfacet
facet normal 0 0 1
outer loop
vertex 194.5959762703332 -269.42522842265083 1.5
vertex 232.55553497249372 -244.1441894013345 1.5
vertex 232.68681207998074 -243.8514962494956 1.5
endloop
endfacet
facet normal 0 0 1
outer loop
vertex 194.5959762703332 -269.42522842265083 1.5
vertex 232.68681207998074 -243.8514962494956 1.5
vertex 232.7696060214075 -243.54157993281163 1.5
endloop
endfacet
facet normal 0 0 1
outer loop
vertex 194.5959762703332 -269.42522842265083 1.5
vertex 232.7696060214075 -243.54157993281163 1.5
vertex 232.8017868613614 -243.22241327787376 1.5
endloop
endfacet
facet normal 0 0 1
outer loop
vertex 194.5959762703332 -269.42522842265083 1.5
vertex 232.8017868613614 -243.22241327787376 1.5
vertex 232.78252672391994 -242.90220708307177 1.5
endloop
endfacet
facet normal 0 0 1
outer loop
vertex 194.5959762703332 -269.42522842265083 1.5
vertex 232.78252672391994 -242.90220708307177 1.5
vertex 232.71232109037174 -242.58919888972497 1.5
endloop
endfacet
facet normal 0 0 1
outer loop
vertex 194.5959762703332 -269.42522842265083 1.5
vertex 232.71232109037174 -242.58919888972497 1.5
vertex 232.5929760525935 -242.2914410652404 1.5
endloop
endfacet
facet normal 0 0 1
outer loop
vertex 194.5959762703332 -269.42522842265083 1.5
vertex 232.5929760525935 -242.2914410652404 1.5
vertex 232.42756370000012 -242.01659730000017 1.5
endloop
endfacet
facet normal 0 0 1
outer loop
vertex 194.5959762703332 -269.42522842265083 1.5
vertex 232.42756370000012 -242.01659730000017 1.5
vertex 217.37462500000012 -221.02248725000015 1.5
endloop
endfacet
facet normal 0 0 1
outer loop
vertex 194.5959762703332 -269.42522842265083 1.5
vertex 217.37462500000012 -221.02248725000015 1.5
vertex 158.50000017497575 -221.02248725000015 1.5
endloop
endfacet
facet normal 0 0 1
outer loop
vertex 194.5959762703332 -269.42522842265083 1.5
vertex 158.50000017497575 -221.02248725000015 1.5
vertex 158.5000012 -249.06013459999997 1.5
endloop
endfacet
facet normal 0 0 1
outer loop
vertex 194.5959762703332 -269.42522842265083 1.5
vertex 158.5000012 -249.06013459999997 1.5
vertex 158.52346983433418 -249.3656110999389 1.5
endloop
endfacet
facet normal 0 0 1
outer loop
vertex 194.5959762703332 -269.42522842265083 1.5
vertex 158.52346983433418 -249.3656110999389 1.5
vertex 158.59332107244194 -249.66391878228583 1.5
endloop
endfacet
facet normal 0 0 1
outer loop
vertex 194.5959762703332 -269.42522842265083 1.5
vertex 158.59332107244194 -249.66391878228583 1.5
vertex 158.70791573856502 -249.94805735993535 1.5
endloop
endfacet
facet normal 0 0 1
outer loop
vertex 194.5959762703332 -269.42522842265083 1.5
vertex 158.70791573856502 -249.94805735993535 1.5
vertex 158.86456467781008 -250.2113590474458 1.5
endloop
endfacet
facet normal 0 0 1
outer loop
vertex 194.5959762703332 -269.42522842265083 1.5
vertex 158.86456467781008 -250.2113590474458 1.5
vertex 159.059591861652 -250.44764503174224 1.5
endloop
endfacet
facet normal 0 0 1
outer loop
vertex 194.5959762703332 -269.42522842265083 1.5
vertex 159.059591861652 -250.44764503174224 1.5
vertex 159.28842065207257 -250.65137046826703 1.5
endloop
endfacet
facet normal 0 0 1
outer loop
vertex 194.5959762703332 -269.42522842265083 1.5
vertex 159.28842065207257 -250.65137046826703 1.5
vertex 159.54568239999992 -250.81775919999993 1.5
endloop
endfacet
facet normal 0 0 1
outer loop
vertex 194.5959762703332 -269.42522842265083 1.5
vertex 159.54568239999992 -250.81775919999993 1.5
vertex 193.3975439500002 -269.1978152000001 1.5
endloop
endfacet
facet normal 0 0 1
outer loop
vertex 194.5959762703332 -269.42522842265083 1.5
vertex 193.3975439500002 -269.1978152000001 1.5
vertex 193.68022544377422 -269.32403513143396 1.5
endloop
endfacet
facet normal 0 0 1
outer loop
vertex 194.5959762703332 -269.42522842265083 1.5
vertex 193.68022544377422 -269.32403513143396 1.5
vertex 193.9789994357828 -269.40511780352034 1.5
endloop
endfacet
facet normal 0 0 1
outer loop
vertex 194.5959762703332 -269.42522842265083 1.5
vertex 193.9789994357828 -269.40511780352034 1.5
vertex 194.28670727891827 -269.4391204693952 1.5
endloop
endfacet
facet normal 0 0 1
outer loop
vertex 217.37462500000012 -221.02248725000015 1.5
vertex 217.24257543466405 -220.81178903523968 1.5
vertex 158.50000016727287 -220.81178903523968 1.5
endloop
endfacet
facet normal 0 0 1
outer loop
vertex 217.37462500000012 -221.02248725000015 1.5
vertex 158.50000016727287 -220.81178903523968 1.5
vertex 158.50000017497575 -221.02248725000015 1.5
endloop
endfacet
facet normal 0 0 1
outer loop
vertex 217.24257543466405 -220.81178903523968 1.5
vertex 217.13769169948327 -220.5863334353907 1.5
vertex 158.50000015903046 -220.5863334353907 1.5
endloop
endfacet
facet normal 0 0 1
outer loop
vertex 217.24257543466405 -220.81178903523968 1.5
vertex 158.50000015903046 -220.5863334353907 1.5
vertex 158.50000016727287 -220.81178903523968 1.5
endloop
endfacet
facet normal 0 0 1
outer loop
vertex 217.13769169948327 -220.5863334353907 1.5
vertex 217.06159505643757 -220.3496054769114 1.5
vertex 158.500000150376 -220.3496054769114 1.5
endloop
endfacet
facet normal 0 0 1
outer loop
vertex 217.13769169948327 -220.5863334353907 1.5
vertex 158.500000150376 -220.3496054769114 1.5
vertex 158.50000015903046 -220.5863334353907 1.5
endloop
endfacet
facet normal 0 0 1
outer loop
vertex 217.06159505643757 -220.3496054769114 1.5
vertex 217.01546178508923 -220.10526443106883 1.5
vertex 158.50000014144317 -220.10526443106883 1.5
endloop
endfacet
facet normal 0 0 1
outer loop
vertex 217.06159505643757 -220.3496054769114 1.5
vertex 158.50000014144317 -220.10526443106883 1.5
vertex 158.500000150376 -220.3496054769114 1.5
endloop
endfacet
facet normal 0 0 1
outer loop
vertex 217.01546178508923 -220.10526443106883 1.5
vertex 217 -219.85708450000024 1.5
vertex 158.50000013237 -219.85708450000024 1.5
endloop
endfacet
facet normal 0 0 1
outer loop
vertex 217.01546178508923 -220.10526443106883 1.5
vertex 158.50000013237 -219.85708450000024 1.5
vertex 158.50000014144317 -220.10526443106883 1.5
endloop
endfacet
facet normal 0 0 1
outer loop
vertex 217 -219.85708450000024 1.5
vertex 217 -216.23634830000037 1.5
vertex 158.5 -216.23634830000037 1.5
endloop
endfacet
facet normal 0 0 1
outer loop
vertex 217 -219.85708450000024 1.5
vertex 158.5 -216.23634830000037 1.5
vertex 158.50000013237 -219.85708450000024 1.5
endloop
endfacet
facet normal 0 0 1
outer loop
vertex 217 -216.23634830000037 1.5
vertex 217 -215.8905486311423 1.5
vertex 158.46987725892603 -215.8905486311423 1.5
endloop
endfacet
facet normal 0 0 1
outer loop
vertex 217 -216.23634830000037 1.5
vertex 158.46987725892603 -215.8905486311423 1.5
vertex 158.5 -216.23634830000037 1.5
endloop
endfacet
facet normal 0 0 1
outer loop
vertex 217 -215.8905486311423 1.5
vertex 217 -215.5551690332123 1.5
vertex 158.38042086908047 -215.5551690332123 1.5
endloop
endfacet
facet normal 0 0 1
outer loop
vertex 217 -215.8905486311423 1.5
vertex 158.38042086908047 -215.5551690332123 1.5
vertex 158.46987725892603 -215.8905486311423 1.5
endloop
endfacet
facet normal 0 0 1
outer loop
vertex 217 -215.5551690332123 1.5
vertex 217 -215.24030715071493 1.5
vertex 158.2343252998733 -215.24030715071493 1.5
endloop
endfacet
facet normal 0 0 1
outer loop
vertex 217 -215.5551690332123 1.5
vertex 158.2343252998733 -215.24030715071493 1.5
vertex 158.38042086908047 -215.5551690332123 1.5
endloop
endfacet
facet normal 0 0 1
outer loop
vertex 217 -215.24030715071493 1.5
vertex 217 -214.95544677471517 1.5
vertex 158.0359910199891 -214.95544677471517 1.5
endloop
endfacet
facet normal 0 0 1
outer loop
vertex 217 -215.24030715071493 1.5
vertex 158.0359910199891 -214.95544677471517 1.5
vertex 158.2343252998733 -215.24030715071493 1.5
endloop
endfacet
facet normal 0 0 1
outer loop
vertex 217 -214.95544677471517 1.5
vertex 217 -214.70916803649905 1.5
vertex 157.79139195315773 -214.70916803649905 1.5
endloop
endfacet
facet normal 0 0 1
outer loop
vertex 217 -214.95544677471517 1.5
vertex 157.79139195315773 -214.70916803649905 1.5
vertex 158.0359910199891 -214.95544677471517 1.5
endloop
endfacet
facet normal 0 0 1
outer loop
vertex 217 -214.70916803649905 1.5
vertex 217 -214.5088889699001 1.5
vertex 157.50789554070437 -214.5088889699001 1.5
endloop
endfacet
facet normal 0 0 1
outer loop
vertex 217 -214.70916803649905 1.5
vertex 157.50789554070437 -214.5088889699001 1.5
vertex 157.79139195315773 -214.70916803649905 1.5
endloop
endfacet
facet normal 0 0 1
outer loop
vertex 217 -214.5088889699001 1.5
vertex 217 -214.3606420765574 1.5
vertex 157.19404083067752 -214.3606420765574 1.5
endloop
endfacet
facet normal 0 0 1
outer loop
vertex 217 -214.5088889699001 1.5
vertex 157.19404083067752 -214.3606420765574 1.5
vertex 157.50789554070437 -214.5088889699001 1.5
endloop
endfacet
facet normal 0 0 1
outer loop
vertex 217 -214.3606420765574 1.5
vertex 217 -214.26889262407144 1.5
vertex 156.85928127762406 -214.26889262407144 1.5
endloop
endfacet
facet normal 0 0 1
outer loop
vertex 217 -214.3606420765574 1.5
vertex 156.85928127762406 -214.26889262407144 1.5
vertex 157.19404083067752 -214.3606420765574 1.5
endloop
endfacet
facet normal 0 0 1
outer loop
vertex 217 -214.26889262407144 1.5
vertex 217 -214.23640415000003 1.5
vertex 156.5137000000002 -214.23640415000003 1.5
endloop
endfacet
facet normal 0 0 1
outer loop
vertex 217 -214.26889262407144 1.5
vertex 156.5137000000002 -214.23640415000003 1.5
vertex 156.85928127762406 -214.26889262407144 1.5
endloop
endfacet
facet normal 0 0 1
outer loop
vertex 217 -214.23640415000003 1.5
vertex 217 -148.25 1.5
vertex 103.59539120000021 -148.25 1.5
endloop
endfacet
facet normal 0 0 1
outer loop
vertex 217 -214.23640415000003 1.5
vertex 103.59539120000021 -148.25 1.5
vertex 87.49999999999974 -148.25 1.5
endloop
endfacet
facet normal 0 0 1
outer loop
vertex 217 -214.23640415000003 1.5
vertex 87.49999999999974 -148.25 1.5
vertex 87.15270364466647 -148.28038449397553 1.5
endloop
endfacet
facet normal 0 0 1
outer loop
vertex 217 -214.23640415000003 1.5
vertex 87.15270364466647 -148.28038449397553 1.5
vertex 86.81595971334853 -148.37061475842825 1.5
endloop
endfacet
facet normal 0 0 1
outer loop
vertex 217 -214.23640415000003 1.5
vertex 86.81595971334853 -148.37061475842825 1.5
vertex 86.50000000000006 -148.5179491924311 1.5
endloop
endfacet
facet normal 0 0 1
outer loop
vertex 217 -214.23640415000003 1.5
vertex 86.50000000000006 -148.5179491924311 1.5
vertex 86.21442478062687 -148.7179111137621 1.5
endloop
endfacet
facet normal 0 0 1
outer loop
vertex 217 -214.23640415000003 1.5
vertex 86.21442478062687 -148.7179111137621 1.5
vertex 85.96791111376203 -148.96442478062693 1.5
endloop
endfacet
facet normal 0 0 1
outer loop
vertex 217 -214.23640415000003 1.5
vertex 85.96791111376203 -148.96442478062693 1.5
vertex 85.76794919243115 -149.24999999999994 1.5
endloop
endfacet
facet normal 0 0 1
outer loop
vertex 217 -214.23640415000003 1.5
vertex 85.76794919243115 -149.24999999999994 1.5
vertex 85.6206147584282 -149.56595971334863 1.5
endloop
endfacet
facet normal 0 0 1
outer loop
vertex 217 -214.23640415000003 1.5
vertex 85.6206147584282 -149.56595971334863 1.5
vertex 85.53038449397556 -149.90270364466627 1.5
endloop
endfacet
facet normal 0 0 1
outer loop
vertex 217 -214.23640415000003 1.5
vertex 85.53038449397556 -149.90270364466627 1.5
vertex 85.5 -150.24999999999977 1.5
endloop
endfacet
facet normal 0 0 1
outer loop
vertex 217 -214.23640415000003 1.5
vertex 85.5 -150.24999999999977 1.5
vertex 85.50000080000001 -211.76364740000005 1.5
endloop
endfacet
facet normal 0 0 1
outer loop
vertex 217 -214.23640415000003 1.5
vertex 85.50000080000001 -211.76364740000005 1.5
vertex 85.53012046732773 -212.10944540882073 1.5
endloop
endfacet
facet normal 0 0 1
outer loop
vertex 217 -214.23640415000003 1.5
vertex 85.53012046732773 -212.10944540882073 1.5
vertex 85.61957463287435 -212.444827891265 1.5
endloop
endfacet
facet normal 0 0 1
outer loop
vertex 217 -214.23640415000003 1.5
vertex 85.61957463287435 -212.444827891265 1.5
vertex 85.76566885985699 -212.75969283708554 1.5
endloop
endfacet
facet normal 0 0 1
outer loop
vertex 217 -214.23640415000003 1.5
vertex 85.76566885985699 -212.75969283708554 1.5
vertex 85.96400266388731 -213.04455624197124 1.5
endloop
endfacet
facet normal 0 0 1
outer loop
vertex 217 -214.23640415000003 1.5
vertex 85.96400266388731 -213.04455624197124 1.5
vertex 86.20860205936503 -213.29083777395516 1.5
endloop
endfacet
facet normal 0 0 1
outer loop
vertex 217 -214.23640415000003 1.5
vertex 86.20860205936503 -213.29083777395516 1.5
vertex 86.49209950108654 -213.49111922042826 1.5
endloop
endfacet
facet normal 0 0 1
outer loop
vertex 217 -214.23640415000003 1.5
vertex 86.49209950108654 -213.49111922042826 1.5
vertex 86.80595580107668 -213.63936793111696 1.5
endloop
endfacet
facet normal 0 0 1
outer loop
vertex 217 -214.23640415000003 1.5
vertex 86.80595580107668 -213.63936793111696 1.5
vertex 87.140717336308 -213.7311185267212 1.5
endloop
endfacet
facet normal 0 0 1
outer loop
vertex 217 -214.23640415000003 1.5
vertex 87.140717336308 -213.7311185267212 1.5
vertex 87.48630160000022 -213.7636048 1.5
endloop
endfacet
facet normal 0 0 1
outer loop
vertex 217 -214.23640415000003 1.5
vertex 87.48630160000022 -213.7636048 1.5
vertex 156.5137000000002 -214.23640415000003 1.5
endloop
endfacet
facet normal 0 0 1
outer loop
vertex 217 -148.25 1.5
vertex 217 -148.2400501064473 1.5
vertex 103.79466982490511 -148.2400501064473 1.5
endloop
endfacet
facet normal 0 0 1
outer loop
vertex 217 -148.25 1.5
vertex 103.79466982490511 -148.2400501064473 1.5
vertex 103.59539120000021 -148.25 1.5
endloop
endfacet
facet normal 0 0 1
outer loop
vertex 217 -148.2400501064473 1.5
vertex 217 -148.21028863754037 1.5
vertex 103.99196545170074 -148.21028863754037 1.5
endloop
endfacet
facet normal 0 0 1
outer loop
vertex 217 -148.2400501064473 1.5
vertex 103.99196545170074 -148.21028863754037 1.5
vertex 103.79466982490511 -148.2400501064473 1.5
endloop
endfacet
facet normal 0 0 1
outer loop
vertex 217 -148.21028863754037 1.5
vertex 217 -148.16101680404057 1.5
vertex 104.18531383107846 -148.16101680404057 1.5
endloop
endfacet
facet normal 0 0 1
outer loop
vertex 217 -148.21028863754037 1.5
vertex 104.18531383107846 -148.16101680404057 1.5
vertex 103.99196545170074 -148.21028863754037 1.5
endloop
endfacet
facet normal 0 0 1
outer loop
vertex 217 -148.16101680404057 1.5
vertex 217 -148.09272499999986 1.5
vertex 104.37279060000024 -148.09272499999986 1.5
endloop
endfacet
facet normal 0 0 1
outer loop
vertex 217 -148.16101680404057 1.5
vertex 104.37279060000024 -148.09272499999986 1.5
vertex 104.18531383107846 -148.16101680404057 1.5
endloop
endfacet
facet normal 0 0 1
outer loop
vertex 217 -148.09272499999986 1.5
vertex 217 -136.74999999999997 1.5
vertex 216.9696155060244 -136.40270364466613 1.5
endloop
endfacet
facet normal 0 0 1
outer loop
vertex 217 -148.09272499999986 1.5
vertex 216.9696155060244 -136.40270364466613 1.5
vertex 216.87938524157187 -136.06595971334883 1.5
endloop
endfacet
facet normal 0 0 1
outer loop
vertex 217 -148.09272499999986 1.5
vertex 216.87938524157187 -136.06595971334883 1.5
vertex 216.7320508075688 -135.74999999999991 1.5
endloop
endfacet
facet normal 0 0 1
outer loop
vertex 217 -148.09272499999986 1.5
vertex 216.7320508075688 -135.74999999999991 1.5
vertex 216.5320888862379 -135.46442478062684 1.5
endloop
endfacet
facet normal 0 0 1
outer loop
vertex 217 -148.09272499999986 1.5
vertex 216.5320888862379 -135.46442478062684 1.5
vertex 216.28557521937321 -135.21791111376217 1.5
endloop
endfacet
facet normal 0 0 1
outer loop
vertex 217 -148.09272499999986 1.5
vertex 216.28557521937321 -135.21791111376217 1.5
vertex 216 -135.01794919243116 1.5
endloop
endfacet
facet normal 0 0 1
outer loop
vertex 217 -148.09272499999986 1.5
vertex 216 -135.01794919243116 1.5
vertex 215.6840402866512 -134.87061475842816 1.5
endloop
endfacet
facet normal 0 0 1
outer loop
vertex 217 -148.09272499999986 1.5
vertex 215.6840402866512 -134.87061475842816 1.5
vertex 215.34729635533387 -134.7803844939756 1.5
endloop
endfacet
facet normal 0 0 1
outer loop
vertex 217 -148.09272499999986 1.5
vertex 215.34729635533387 -134.7803844939756 1.5
vertex 214.99999999999983 -134.74999999999997 1.5
endloop
endfacet
facet normal 0 0 1
outer loop
vertex 217 -148.09272499999986 1.5
vertex 214.99999999999983 -134.74999999999997 1.5
vertex 136.40460895000024 -134.74999585 1.5
endloop
endfacet
facet normal 0 0 1
outer loop
vertex 217 -148.09272499999986 1.5
vertex 136.40460895000024 -134.74999585 1.5
vertex 136.205329725095 -134.7599507435527 1.5
endloop
endfacet
facet normal 0 0 1
outer loop
vertex 217 -148.09272499999986 1.5
vertex 136.205329725095 -134.7599507435527 1.5
vertex 136.00803409829888 -134.7897122124597 1.5
endloop
endfacet
facet normal 0 0 1
outer loop
vertex 217 -148.09272499999986 1.5
vertex 136.00803409829888 -134.7897122124597 1.5
vertex 135.8146857189216 -134.83898404595936 1.5
endloop
endfacet
facet normal 0 0 1
outer loop
vertex 217 -148.09272499999986 1.5
vertex 135.8146857189216 -134.83898404595936 1.5
vertex 135.62720790000006 -134.90727169999997 1.5
endloop
endfacet
facet normal 0 0 1
outer loop
vertex 217 -148.09272499999986 1.5
vertex 135.62720790000006 -134.90727169999997 1.5
vertex 104.37279060000024 -148.09272499999986 1.5
endloop
endfacet
facet normal -0.996228077501965 -0.08677336916784383 0
outer loop
vertex 85.53012046732773 -212.10944540882073 1.5
vertex 85.50000080000001 -211.76364740000005 1.5
vertex 85.5000008 -211.7636474 0
endloop
endfacet
facet normal -0.996228077501965 -0.08677336916784383 0
outer loop
vertex 85.53012046732773 -212.10944540882073 1.5
vertex 85.5000008 -211.7636474 0
vertex 85.53012046732773 -212.10944540882073 0
endloop
endfacet
facet normal -0.9662214275119562 -0.2577133155596697 0
outer loop
vertex 85.61957463287435 -212.444827891265 1.5
vertex 85.53012046732773 -212.10944540882073 1.5
vertex 85.53012046732773 -212.10944540882073 0
endloop
endfacet
facet normal -0.9662214275119562 -0.2577133155596697 0
outer loop
vertex 85.61957463287435 -212.444827891265 1.5
vertex 85.53012046732773 -212.10944540882073 0
vertex 85.61957463287436 -212.44482789126502 0
endloop
endfacet
facet normal -0.9071113530045904 -0.4208907141410716 0
outer loop
vertex 85.76566885985699 -212.75969283708554 1.5
vertex 85.61957463287435 -212.444827891265 1.5
vertex 85.61957463287436 -212.44482789126502 0
endloop
endfacet
facet normal -0.9071113530045904 -0.4208907141410716 0
outer loop
vertex 85.76566885985699 -212.75969283708554 1.5
vertex 85.61957463287436 -212.44482789126502 0
vertex 85.76566885985703 -212.7596928370856 0
endloop
endfacet
facet normal -0.8206783005138467 -0.5713905206298968 0
outer loop
vertex 85.96400266388731 -213.04455624197124 1.5
vertex 85.76566885985699 -212.75969283708554 1.5
vertex 85.76566885985703 -212.7596928370856 0
endloop
endfacet
facet normal -0.8206783005138467 -0.5713905206298968 0
outer loop
vertex 85.96400266388731 -213.04455624197124 1.5
vertex 85.76566885985703 -212.7596928370856 0
vertex 85.96400266388744 -213.0445562419714 0
endloop
endfacet
facet normal -0.7095257082861801 -0.7046795507753822 0
outer loop
vertex 86.20860205936503 -213.29083777395516 1.5
vertex 85.96400266388731 -213.04455624197124 1.5
vertex 85.96400266388744 -213.0445562419714 0
endloop
endfacet
facet normal -0.7095257082861801 -0.7046795507753822 0
outer loop
vertex 86.20860205936503 -213.29083777395516 1.5
vertex 85.96400266388744 -213.0445562419714 0
vertex 86.20860205936476 -213.2908377739549 0
endloop
endfacet
facet normal -0.5770015884704278 -0.8167430237856966 0
outer loop
vertex 86.49209950108654 -213.49111922042826 1.5
vertex 86.20860205936503 -213.29083777395516 1.5
vertex 86.20860205936476 -213.2908377739549 0
endloop
endfacet
facet normal -0.5770015884704278 -0.8167430237856966 0
outer loop
vertex 86.49209950108654 -213.49111922042826 1.5
vertex 86.20860205936476 -213.2908377739549 0
vertex 86.49209950108691 -213.49111922042846 0
endloop
endfacet
facet normal -0.4270976820982331 -0.9042054909954466 0
outer loop
vertex 86.80595580107668 -213.63936793111696 1.5
vertex 86.49209950108654 -213.49111922042826 1.5
vertex 86.49209950108691 -213.49111922042846 0
endloop
endfacet
facet normal -0.4270976820982331 -0.9042054909954466 0
outer loop
vertex 86.80595580107668 -213.63936793111696 1.5
vertex 86.49209950108691 -213.49111922042846 0
vertex 86.80595580107646 -213.63936793111688 0
endloop
endfacet
facet normal -0.2643292243938337 -0.9644325072970915 0
outer loop
vertex 87.140717336308 -213.7311185267212 1.5
vertex 86.80595580107668 -213.63936793111696 1.5
vertex 86.80595580107646 -213.63936793111688 0
endloop
endfacet
facet normal -0.2643292243938337 -0.9644325072970915 0
outer loop
vertex 87.140717336308 -213.7311185267212 1.5
vertex 86.80595580107646 -213.63936793111688 0
vertex 87.14071733630828 -213.73111852672125 0
endloop
endfacet
facet normal -0.0935913023622846 -0.995610701088599 0
outer loop
vertex 87.48630160000022 -213.7636048 1.5
vertex 87.140717336308 -213.7311185267212 1.5
vertex 87.14071733630828 -213.73111852672125 0
endloop
endfacet
facet normal -0.0935913023622846 -0.995610701088599 0
outer loop
vertex 87.48630160000022 -213.7636048 1.5
vertex 87.14071733630828 -213.73111852672125 0
vertex 87.4863015999998 -213.7636048 0
endloop
endfacet
facet normal -0.006849284062326434 -0.9999765433788103 0
outer loop
vertex 156.5137000000002 -214.23640415000003 1.5
vertex 87.48630160000022 -213.7636048 1.5
vertex 87.4863015999998 -213.7636048 0
endloop
endfacet
facet normal -0.006849284062326434 -0.9999765433788103 0
outer loop
vertex 156.5137000000002 -214.23640415000003 1.5
vertex 87.4863015999998 -213.7636048 0
vertex 156.513700000001 -214.23640415000003 0
endloop
endfacet
facet normal -0.09359838885558247 -0.9956100349050523 0
outer loop
vertex 156.85928127762406 -214.26889262407144 1.5
vertex 156.5137000000002 -214.23640415000003 1.5
vertex 156.513700000001 -214.23640415000003 0
endloop
endfacet
facet normal -0.09359838885558247 -0.9956100349050523 0
outer loop
vertex 156.85928127762406 -214.26889262407144 1.5
vertex 156.513700000001 -214.23640415000003 0
vertex 156.859281277624 -214.26889262407144 0
endloop
endfacet
facet normal -0.2643276169936254 -0.9644329478478384 0
outer loop
vertex 157.19404083067752 -214.3606420765574 1.5
vertex 156.85928127762406 -214.26889262407144 1.5
vertex 156.859281277624 -214.26889262407144 0
endloop
endfacet
facet normal -0.2643276169936254 -0.9644329478478384 0
outer loop
vertex 157.19404083067752 -214.3606420765574 1.5
vertex 156.859281277624 -214.26889262407144 0
vertex 157.19404083067738 -214.36064207655735 0
endloop
endfacet
facet normal -0.42709517040458367 -0.9042066773791706 0
outer loop
vertex 157.50789554070437 -214.5088889699001 1.5
vertex 157.19404083067752 -214.3606420765574 1.5
vertex 157.19404083067738 -214.36064207655735 0
endloop
endfacet
facet normal -0.42709517040458367 -0.9042066773791706 0
outer loop
vertex 157.50789554070437 -214.5088889699001 1.5
vertex 157.19404083067738 -214.36064207655735 0
vertex 157.50789554070448 -214.5088889699002 0
endloop
endfacet
facet normal -0.5769984122355252 -0.816745267680005 0
outer loop
vertex 157.79139195315773 -214.70916803649905 1.5
vertex 157.50789554070437 -214.5088889699001 1.5
vertex 157.50789554070448 -214.5088889699002 0
endloop
endfacet
facet normal -0.5769984122355252 -0.816745267680005 0
outer loop
vertex 157.79139195315773 -214.70916803649905 1.5
vertex 157.50789554070448 -214.5088889699002 0
vertex 157.79139195315773 -214.70916803649905 0
endloop
endfacet
facet normal -0.7095221848740532 -0.7046830984006571 0
outer loop
vertex 158.0359910199891 -214.95544677471517 1.5
vertex 157.79139195315773 -214.70916803649905 1.5
vertex 157.79139195315773 -214.70916803649905 0
endloop
endfacet
facet normal -0.7095221848740532 -0.7046830984006571 0
outer loop
vertex 158.0359910199891 -214.95544677471517 1.5
vertex 157.79139195315773 -214.70916803649905 0
vertex 158.03599101998915 -214.95544677471523 0
endloop
endfacet
facet normal -0.8206748086640955 -0.5713955358804882 0
outer loop
vertex 158.2343252998733 -215.24030715071493 1.5
vertex 158.0359910199891 -214.95544677471517 1.5
vertex 158.03599101998915 -214.95544677471523 0
endloop
endfacet
facet normal -0.8206748086640955 -0.5713955358804882 0
outer loop
vertex 158.2343252998733 -215.24030715071493 1.5
vertex 158.03599101998915 -214.95544677471523 0
vertex 158.23432529987323 -215.24030715071478 0
endloop
endfacet
facet normal -0.9071083132128227 -0.42089726549383455 0
outer loop
vertex 158.38042086908047 -215.5551690332123 1.5
vertex 158.2343252998733 -215.24030715071493 1.5
vertex 158.23432529987323 -215.24030715071478 0
endloop
endfacet
facet normal -0.9071083132128227 -0.42089726549383455 0
outer loop
vertex 158.38042086908047 -215.5551690332123 1.5
vertex 158.23432529987323 -215.24030715071478 0
vertex 158.38042086908047 -215.55516903321228 0
endloop
endfacet
facet normal -0.9662192798667742 -0.2577213673984603 0
outer loop
vertex 158.46987725892603 -215.8905486311423 1.5
vertex 158.38042086908047 -215.5551690332123 1.5
vertex 158.38042086908047 -215.55516903321228 0
endloop
endfacet
facet normal -0.9662192798667742 -0.2577213673984603 0
outer loop
vertex 158.46987725892603 -215.8905486311423 1.5
vertex 158.38042086908047 -215.55516903321228 0
vertex 158.46987725892606 -215.8905486311423 0
endloop
endfacet
facet normal -0.9962273479734691 -0.08678174433455858 0
outer loop
vertex 158.5 -216.23634830000037 1.5
vertex 158.46987725892603 -215.8905486311423 1.5
vertex 158.46987725892606 -215.8905486311423 0
endloop
endfacet
facet normal -0.9962273479734691 -0.08678174433455858 0
outer loop
vertex 158.5 -216.23634830000037 1.5
vertex 158.46987725892606 -215.8905486311423 0
vertex 158.5 -216.23634830000034 0
endloop
endfacet
facet normal 0 0 -1
outer loop
vertex 158.5000012 -249.06013459999997 1.5
vertex 158.50000017497575 -221.02248725000015 1.5
vertex 158.50000016727287 -220.81178903523968 1.5
endloop
endfacet
facet normal 0 0 -1
outer loop
vertex 158.5000012 -249.06013459999997 1.5
vertex 158.50000016727287 -220.81178903523968 1.5
vertex 158.50000015903046 -220.5863334353907 1.5
endloop
endfacet
facet normal 0 0 -1
outer loop
vertex 158.5000012 -249.06013459999997 1.5
vertex 158.50000015903046 -220.5863334353907 1.5
vertex 158.500000150376 -220.3496054769114 1.5
endloop
endfacet
facet normal 0 0 -1
outer loop
vertex 158.5000012 -249.06013459999997 1.5
vertex 158.500000150376 -220.3496054769114 1.5
vertex 158.50000014144317 -220.10526443106883 1.5
endloop
endfacet
facet normal 0 0 -1
outer loop
vertex 158.5000012 -249.06013459999997 1.5
vertex 158.50000014144317 -220.10526443106883 1.5
vertex 158.50000013237 -219.85708450000024 1.5
endloop
endfacet
facet normal 0 0 -1
outer loop
vertex 158.5000012 -249.06013459999997 1.5
vertex 158.50000013237 -219.85708450000024 1.5
vertex 158.5 -216.23634830000037 1.5
endloop
endfacet
facet normal 0 0 -1
outer loop
vertex 158.5000012 -249.06013459999997 1.5
vertex 158.5 -216.23634830000037 1.5
vertex 158.5 -216.23634830000034 0
endloop
endfacet
facet normal 0 0 -1
outer loop
vertex 158.5000012 -249.06013459999997 1.5
vertex 158.5 -216.23634830000034 0
vertex 158.50000013236996 -219.85708450000024 0
endloop
endfacet
facet normal 0 0 -1
outer loop
vertex 158.5000012 -249.06013459999997 1.5
vertex 158.50000013236996 -219.85708450000024 0
vertex 158.50000014144314 -220.1052644310685 0
endloop
endfacet
facet normal 0 0 -1
outer loop
vertex 158.5000012 -249.06013459999997 1.5
vertex 158.50000014144314 -220.1052644310685 0
vertex 158.50000015037597 -220.34960547691173 0
endloop
endfacet
facet normal 0 0 -1
outer loop
vertex 158.5000012 -249.06013459999997 1.5
vertex 158.50000015037597 -220.34960547691173 0
vertex 158.5000001590305 -220.58633343539086 0
endloop
endfacet
facet normal 0 0 -1
outer loop
vertex 158.5000012 -249.06013459999997 1.5
vertex 158.5000001590305 -220.58633343539086 0
vertex 158.50000016727287 -220.81178903523968 0
endloop
endfacet
facet normal 0 0 -1
outer loop
vertex 158.5000012 -249.06013459999997 1.5
vertex 158.50000016727287 -220.81178903523968 0
vertex 158.50000017497578 -221.02248724999978 0
endloop
endfacet
facet normal 0 0 -1
outer loop
vertex 158.5000012 -249.06013459999997 1.5
vertex 158.50000017497578 -221.02248724999978 0
vertex 158.5000012 -249.06013459999997 0
endloop
endfacet
facet normal -0.9970618584583745 -0.0766005901252242 0
outer loop
vertex 158.52346983433418 -249.3656110999389 1.5
vertex 158.5000012 -249.06013459999997 1.5
vertex 158.5000012 -249.06013459999997 0
endloop
endfacet
facet normal -0.9970618584583745 -0.0766005901252242 0
outer loop
vertex 158.52346983433418 -249.3656110999389 1.5
vertex 158.5000012 -249.06013459999997 0
vertex 158.52346983433418 -249.36561109993892 0
endloop
endfacet
facet normal -0.973663153181362 -0.22799136855795135 0
outer loop
vertex 158.59332107244194 -249.66391878228583 1.5
vertex 158.52346983433418 -249.3656110999389 1.5
vertex 158.52346983433418 -249.36561109993892 0
endloop
endfacet
facet normal -0.973663153181362 -0.22799136855795135 0
outer loop
vertex 158.59332107244194 -249.66391878228583 1.5
vertex 158.52346983433418 -249.36561109993892 0
vertex 158.59332107244194 -249.6639187822858 0
endloop
endfacet
facet normal -0.9274158187206837 -0.3740319494196234 0
outer loop
vertex 158.70791573856502 -249.94805735993535 1.5
vertex 158.59332107244194 -249.66391878228583 1.5
vertex 158.59332107244194 -249.6639187822858 0
endloop
endfacet
facet normal -0.9274158187206837 -0.3740319494196234 0
outer loop
vertex 158.70791573856502 -249.94805735993535 1.5
vertex 158.59332107244194 -249.6639187822858 0
vertex 158.70791573856502 -249.94805735993532 0
endloop
endfacet
facet normal -0.8594051258832309 -0.5112952470008186 0
outer loop
vertex 158.86456467781008 -250.2113590474458 1.5
vertex 158.70791573856502 -249.94805735993535 1.5
vertex 158.70791573856502 -249.94805735993532 0
endloop
endfacet
facet normal -0.8594051258832309 -0.5112952470008186 0
outer loop
vertex 158.86456467781008 -250.2113590474458 1.5
vertex 158.70791573856502 -249.94805735993532 0
vertex 158.86456467781005 -250.2113590474457 0
endloop
endfacet
facet normal -0.7712270589640443 -0.6365601491781202 0
outer loop
vertex 159.059591861652 -250.44764503174224 1.5
vertex 158.86456467781008 -250.2113590474458 1.5
vertex 158.86456467781005 -250.2113590474457 0
endloop
endfacet
facet normal -0.7712270589640443 -0.6365601491781202 0
outer loop
vertex 159.059591861652 -250.44764503174224 1.5
vertex 158.86456467781005 -250.2113590474457 0
vertex 159.0595918616522 -250.4476450317424 0
endloop
endfacet
facet normal -0.6649508633140302 -0.7468871061799943 0
outer loop
vertex 159.28842065207257 -250.65137046826703 1.5
vertex 159.059591861652 -250.44764503174224 1.5
vertex 159.0595918616522 -250.4476450317424 0
endloop
endfacet
facet normal -0.6649508633140302 -0.7468871061799943 0
outer loop
vertex 159.28842065207257 -250.65137046826703 1.5
vertex 159.0595918616522 -250.4476450317424 0
vertex 159.28842065207257 -250.65137046826706 0
endloop
endfacet
facet normal -0.543079286971813 -0.8396814205769871 0
outer loop
vertex 159.54568239999992 -250.81775919999993 1.5
vertex 159.28842065207257 -250.65137046826703 1.5
vertex 159.28842065207257 -250.65137046826706 0
endloop
endfacet
facet normal -0.543079286971813 -0.8396814205769871 0
outer loop
vertex 159.54568239999992 -250.81775919999993 1.5
vertex 159.28842065207257 -250.65137046826706 0
vertex 159.5456823999999 -250.81775919999995 0
endloop
endfacet
facet normal -0.47715865656246487 -0.8788171689649127 0
outer loop
vertex 193.3975439500002 -269.1978152000001 1.5
vertex 159.54568239999992 -250.81775919999993 1.5
vertex 159.5456823999999 -250.81775919999995 0
endloop
endfacet
facet normal -0.47715865656246487 -0.8788171689649127 0
outer loop
vertex 193.3975439500002 -269.1978152000001 1.5
vertex 159.5456823999999 -250.81775919999995 0
vertex 193.39754395000017 -269.19781520000004 0
endloop
endfacet
facet normal -0.4077123456154948 -0.9131104222560991 0
outer loop
vertex 193.68022544377422 -269.32403513143396 1.5
vertex 193.3975439500002 -269.1978152000001 1.5
vertex 193.39754395000017 -269.19781520000004 0
endloop
endfacet
facet normal -0.4077123456154948 -0.9131104222560991 0
outer loop
vertex 193.68022544377422 -269.32403513143396 1.5
vertex 193.39754395000017 -269.19781520000004 0
vertex 193.6802254437744 -269.32403513143396 0
endloop
endfacet
facet normal -0.2619111423178421 -0.965091992262791 0
outer loop
vertex 193.9789994357828 -269.40511780352034 1.5
vertex 193.68022544377422 -269.32403513143396 1.5
vertex 193.6802254437744 -269.32403513143396 0
endloop
endfacet
facet normal -0.2619111423178421 -0.965091992262791 0
outer loop
vertex 193.9789994357828 -269.40511780352034 1.5
vertex 193.6802254437744 -269.32403513143396 0
vertex 193.9789994357832 -269.4051178035204 0
endloop
endfacet
facet normal -0.10983452853713509 -0.9939498862322111 0
outer loop
vertex 194.28670727891827 -269.4391204693952 1.5
vertex 193.9789994357828 -269.40511780352034 1.5
vertex 193.9789994357832 -269.4051178035204 0
endloop
endfacet
facet normal -0.10983452853713509 -0.9939498862322111 0
outer loop
vertex 194.28670727891827 -269.4391204693952 1.5
vertex 193.9789994357832 -269.4051178035204 0
vertex 194.2867072789179 -269.4391204693952 0
endloop
endfacet
facet normal 0.04487372873057895 -0.9989926668748947 0
outer loop
vertex 194.5959762703332 -269.42522842265083 1.5
vertex 194.28670727891827 -269.4391204693952 1.5
vertex 194.2867072789179 -269.4391204693952 0
endloop
endfacet
facet normal 0.04487372873057895 -0.9989926668748947 0
outer loop
vertex 194.5959762703332 -269.42522842265083 1.5
vertex 194.2867072789179 -269.4391204693952 0
vertex 194.5959762703334 -269.42522842265083 0
endloop
endfacet
facet normal 0.1985068081145864 -0.9800995087908977 0
outer loop
vertex 194.89939630195198 -269.3637745177622 1.5
vertex 194.5959762703332 -269.42522842265083 1.5
vertex 194.5959762703334 -269.42522842265083 0
endloop
endfacet
facet normal 0.1985068081145864 -0.9800995087908977 0
outer loop
vertex 194.89939630195198 -269.3637745177622 1.5
vertex 194.5959762703334 -269.42522842265083 0
vertex 194.89939630195155 -269.3637745177623 0
endloop
endfacet
facet normal 0.34738364958656176 -0.9377230934555898 0
outer loop
vertex 195.18969740721062 -269.25623119486914 1.5
vertex 194.89939630195198 -269.3637745177622 1.5
vertex 194.89939630195155 -269.3637745177623 0
endloop
endfacet
facet normal 0.34738364958656176 -0.9377230934555898 0
outer loop
vertex 195.18969740721062 -269.25623119486914 1.5
vertex 194.89939630195155 -269.3637745177623 0
vertex 195.1896974072108 -269.25623119486903 0
endloop
endfacet
facet normal 0.4879435319386441 -0.872875197058114 0
outer loop
vertex 195.45992790000048 -269.10517039999974 1.5
vertex 195.18969740721062 -269.25623119486914 1.5
vertex 195.1896974072108 -269.25623119486903 0
endloop
endfacet
facet normal 0.4879435319386441 -0.872875197058114 0
outer loop
vertex 195.45992790000048 -269.10517039999974 1.5
vertex 195.1896974072108 -269.25623119486903 0
vertex 195.45992790000068 -269.1051703999996 0
endloop
endfacet
facet normal 0.5540352025799875 -0.8324932397936647 0
outer loop
vertex 231.9102618500003 -244.8469936499998 1.5
vertex 195.45992790000048 -269.10517039999974 1.5
vertex 195.45992790000068 -269.1051703999996 0
endloop
endfacet
facet normal 0.5540352025799875 -0.8324932397936647 0
outer loop
vertex 231.9102618500003 -244.8469936499998 1.5
vertex 195.45992790000068 -269.1051703999996 0
vertex 231.9102618499998 -244.84699365000012 0
endloop
endfacet
facet normal 0.6190117942178982 -0.7853816897656442 0
outer loop
vertex 232.16220044662595 -244.64842400575904 1.5
vertex 231.9102618500003 -244.8469936499998 1.5
vertex 231.9102618499998 -244.84699365000012 0
endloop
endfacet
facet normal 0.6190117942178982 -0.7853816897656442 0
outer loop
vertex 232.16220044662595 -244.64842400575904 1.5
vertex 231.9102618499998 -244.84699365000012 0
vertex 232.16220044662623 -244.64842400575876 0
endloop
endfacet
facet normal 0.7366130891926238 -0.6763143920027872 0
outer loop
vertex 232.37915189968325 -244.41212964040017 1.5
vertex 232.16220044662595 -244.64842400575904 1.5
vertex 232.16220044662623 -244.64842400575876 0
endloop
endfacet
facet normal 0.7366130891926238 -0.6763143920027872 0
outer loop
vertex 232.37915189968325 -244.41212964040017 1.5
vertex 232.16220044662623 -244.64842400575876 0
vertex 232.3791518996833 -244.41212964040014 0
endloop
endfacet
facet normal 0.835264467338624 -0.5498484060188997 0
outer loop
vertex 232.55553497249372 -244.1441894013345 1.5
vertex 232.37915189968325 -244.41212964040017 1.5
vertex 232.3791518996833 -244.41212964040014 0
endloop
endfacet
facet normal 0.835264467338624 -0.5498484060188997 0
outer loop
vertex 232.55553497249372 -244.1441894013345 1.5
vertex 232.3791518996833 -244.41212964040014 0
vertex 232.55553497249366 -244.14418940133461 0
endloop
endfacet
facet normal 0.9124280489491647 -0.40923716289068945 0
outer loop
vertex 232.68681207998074 -243.8514962494956 1.5
vertex 232.55553497249372 -244.1441894013345 1.5
vertex 232.55553497249366 -244.14418940133461 0
endloop
endfacet
facet normal 0.9124280489491647 -0.40923716289068945 0
outer loop
vertex 232.68681207998074 -243.8514962494956 1.5
vertex 232.55553497249366 -244.14418940133461 0
vertex 232.68681207998074 -243.85149624949557 0
endloop
endfacet
facet normal 0.9661187437845429 -0.25809799090302327 0
outer loop
vertex 232.7696060214075 -243.54157993281163 1.5
vertex 232.68681207998074 -243.8514962494956 1.5
vertex 232.68681207998074 -243.85149624949557 0
endloop
endfacet
facet normal 0.9661187437845429 -0.25809799090302327 0
outer loop
vertex 232.7696060214075 -243.54157993281163 1.5
vertex 232.68681207998074 -243.85149624949557 0
vertex 232.76960602140753 -243.54157993281157 0
endloop
endfacet
facet normal 0.994955318987873 -0.10031905710152951 0
outer loop
vertex 232.8017868613614 -243.22241327787376 1.5
vertex 232.7696060214075 -243.54157993281163 1.5
vertex 232.76960602140753 -243.54157993281157 0
endloop
endfacet
facet normal 0.994955318987873 -0.10031905710152951 0
outer loop
vertex 232.8017868613614 -243.22241327787376 1.5
vertex 232.76960602140753 -243.54157993281157 0
vertex 232.80178686136142 -243.22241327787367 0
endloop
endfacet
facet normal 0.9981959323224097 0.060040658682225925 0
outer loop
vertex 232.78252672391994 -242.90220708307177 1.5
vertex 232.8017868613614 -243.22241327787376 1.5
vertex 232.80178686136142 -243.22241327787367 0
endloop
endfacet
facet normal 0.9981959323224097 0.060040658682225925 0
outer loop
vertex 232.78252672391994 -242.90220708307177 1.5
vertex 232.80178686136142 -243.22241327787367 0
vertex 232.78252672391997 -242.902207083072 0
endloop
endfacet
facet normal 0.9757572166119993 0.21885578408989742 0
outer loop
vertex 232.71232109037174 -242.58919888972497 1.5
vertex 232.78252672391994 -242.90220708307177 1.5
vertex 232.78252672391997 -242.902207083072 0
endloop
endfacet
facet normal 0.9757572166119993 0.21885578408989742 0
outer loop
vertex 232.71232109037174 -242.58919888972497 1.5
vertex 232.78252672391997 -242.902207083072 0
vertex 232.71232109037166 -242.58919888972468 0
endloop
endfacet
facet normal 0.9282164244234081 0.37204068249403005 0
outer loop
vertex 232.5929760525935 -242.2914410652404 1.5
vertex 232.71232109037174 -242.58919888972497 1.5
vertex 232.71232109037166 -242.58919888972468 0
endloop
endfacet
facet normal 0.9282164244234081 0.37204068249403005 0
outer loop
vertex 232.5929760525935 -242.2914410652404 1.5
vertex 232.71232109037166 -242.58919888972468 0
vertex 232.5929760525936 -242.29144106524055 0
endloop
endfacet
facet normal 0.8567961002843357 0.5156553524763943 0
outer loop
vertex 232.42756370000012 -242.01659730000017 1.5
vertex 232.5929760525935 -242.2914410652404 1.5
vertex 232.5929760525936 -242.29144106524055 0
endloop
endfacet
facet normal 0.8567961002843357 0.5156553524763943 0
outer loop
vertex 232.42756370000012 -242.01659730000017 1.5
vertex 232.5929760525936 -242.29144106524055 0
vertex 232.42756370000004 -242.0165973000001 0
endloop
endfacet
facet normal 0.8126858776211032 0.5827020373357358 0
outer loop
vertex 217.37462500000012 -221.02248725000015 1.5
vertex 232.42756370000012 -242.01659730000017 1.5
vertex 232.42756370000004 -242.0165973000001 0
endloop
endfacet
facet normal 0.8126858776211032 0.5827020373357358 0
outer loop
vertex 217.37462500000012 -221.02248725000015 1.5
vertex 232.42756370000004 -242.0165973000001 0
vertex 217.37462499999987 -221.02248724999978 0
endloop
endfacet
facet normal 0.8473412201131771 0.5310488270367543 0
outer loop
vertex 217.24257543466405 -220.81178903523968 1.5
vertex 217.37462500000012 -221.02248725000015 1.5
vertex 217.37462499999987 -221.02248724999978 0
endloop
endfacet
facet normal 0.8473412201131771 0.5310488270367543 0
outer loop
vertex 217.24257543466405 -220.81178903523968 1.5
vertex 217.37462499999987 -221.02248724999978 0
vertex 217.24257543466402 -220.81178903523968 0
endloop
endfacet
facet normal 0.9066893294492575 0.42179907522759674 0
outer loop
vertex 217.13769169948327 -220.5863334353907 1.5
vertex 217.24257543466405 -220.81178903523968 1.5
vertex 217.24257543466402 -220.81178903523968 0
endloop
endfacet
facet normal 0.9066893294492575 0.42179907522759674 0
outer loop
vertex 217.13769169948327 -220.5863334353907 1.5
vertex 217.24257543466402 -220.81178903523968 0
vertex 217.13769169948333 -220.58633343539086 0
endloop
endfacet
facet normal 0.9520221013781873 0.30602927717370565 0
outer loop
vertex 217.06159505643757 -220.3496054769114 1.5
vertex 217.13769169948327 -220.5863334353907 1.5
vertex 217.13769169948333 -220.58633343539086 0
endloop
endfacet
facet normal 0.9520221013781873 0.30602927717370565 0
outer loop
vertex 217.06159505643757 -220.3496054769114 1.5
vertex 217.13769169948333 -220.58633343539086 0
vertex 217.06159505643765 -220.34960547691173 0
endloop
endfacet
facet normal 0.9826387952231619 0.18552896841833935 0
outer loop
vertex 217.01546178508923 -220.10526443106883 1.5
vertex 217.06159505643757 -220.3496054769114 1.5
vertex 217.06159505643765 -220.34960547691173 0
endloop
endfacet
facet normal 0.9826387952231619 0.18552896841833935 0
outer loop
vertex 217.01546178508923 -220.10526443106883 1.5
vertex 217.06159505643765 -220.34960547691173 0
vertex 217.01546178508917 -220.1052644310685 0
endloop
endfacet
facet normal 0.998064942173398 0.0621801512093043 0
outer loop
vertex 217 -219.85708450000024 1.5
vertex 217.01546178508923 -220.10526443106883 1.5
vertex 217.01546178508917 -220.1052644310685 0
endloop
endfacet
facet normal 0.998064942173398 0.0621801512093043 0
outer loop
vertex 217 -219.85708450000024 1.5
vertex 217.01546178508917 -220.1052644310685 0
vertex 217 -219.85708450000024 0
endloop
endfacet
facet normal 1 0 0
outer loop
vertex 217 -216.23634830000034 0
vertex 217 -215.8905486311423 0
vertex 217 -215.55516903321228 0
endloop
endfacet
facet normal 1 0 0
outer loop
vertex 217 -216.23634830000034 0
vertex 217 -215.55516903321228 0
vertex 217 -215.24030715071478 0
endloop
endfacet
facet normal 1 0 0
outer loop
vertex 217 -216.23634830000034 0
vertex 217 -215.24030715071478 0
vertex 217 -214.95544677471523 0
endloop
endfacet
facet normal 1 0 0
outer loop
vertex 217 -216.23634830000034 0
vertex 217 -214.95544677471523 0
vertex 217 -214.70916803649905 0
endloop
endfacet
facet normal 1 0 0
outer loop
vertex 217 -216.23634830000034 0
vertex 217 -214.70916803649905 0
vertex 217 -214.5088889699002 0
endloop
endfacet
facet normal 1 0 0
outer loop
vertex 217 -216.23634830000034 0
vertex 217 -214.5088889699002 0
vertex 217 -214.36064207655735 0
endloop
endfacet
facet normal 1 0 0
outer loop
vertex 217 -216.23634830000034 0
vertex 217 -214.36064207655735 0
vertex 217 -214.26889262407144 0
endloop
endfacet
facet normal 1 0 0
outer loop
vertex 217 -216.23634830000034 0
vertex 217 -214.26889262407144 0
vertex 217 -214.23640415000003 0
endloop
endfacet
facet normal 1 0 0
outer loop
vertex 217 -216.23634830000034 0
vertex 217 -214.23640415000003 0
vertex 217 -148.25 0
endloop
endfacet
facet normal 1 0 0
outer loop
vertex 217 -216.23634830000034 0
vertex 217 -148.25 0
vertex 217 -148.24005010644737 0
endloop
endfacet
facet normal 1 0 0
outer loop
vertex 217 -216.23634830000034 0
vertex 217 -148.24005010644737 0
vertex 217 -148.21028863754026 0
endloop
endfacet
facet normal 1 0 0
outer loop
vertex 217 -216.23634830000034 0
vertex 217 -148.21028863754026 0
vertex 217 -148.1610168040406 0
endloop
endfacet
facet normal 1 0 0
outer loop
vertex 217 -216.23634830000034 0
vertex 217 -148.1610168040406 0
vertex 217 -148.09272500000012 0
endloop
endfacet
facet normal 1 0 0
outer loop
vertex 217 -216.23634830000034 0
vertex 217 -148.09272500000012 0
vertex 217 -136.75 0
endloop
endfacet
facet normal 1 0 0
outer loop
vertex 217 -216.23634830000034 0
vertex 217 -136.75 0
vertex 217 -136.74999999999997 1.5
endloop
endfacet
facet normal 1 0 0
outer loop
vertex 217 -216.23634830000034 0
vertex 217 -136.74999999999997 1.5
vertex 217 -148.09272499999986 1.5
endloop
endfacet
facet normal 1 0 0
outer loop
vertex 217 -216.23634830000034 0
vertex 217 -148.09272499999986 1.5
vertex 217 -148.16101680404057 1.5
endloop
endfacet
facet normal 1 0 0
outer loop
vertex 217 -216.23634830000034 0
vertex 217 -148.16101680404057 1.5
vertex 217 -148.21028863754037 1.5
endloop
endfacet
facet normal 1 0 0
outer loop
vertex 217 -216.23634830000034 0
vertex 217 -148.21028863754037 1.5
vertex 217 -148.2400501064473 1.5
endloop
endfacet
facet normal 1 0 0
outer loop
vertex 217 -216.23634830000034 0
vertex 217 -148.2400501064473 1.5
vertex 217 -148.25 1.5
endloop
endfacet
facet normal 1 0 0
outer loop
vertex 217 -216.23634830000034 0
vertex 217 -148.25 1.5
vertex 217 -214.23640415000003 1.5
endloop
endfacet
facet normal 1 0 0
outer loop
vertex 217 -216.23634830000034 0
vertex 217 -214.23640415000003 1.5
vertex 217 -214.26889262407144 1.5
endloop
endfacet
facet normal 1 0 0
outer loop
vertex 217 -216.23634830000034 0
vertex 217 -214.26889262407144 1.5
vertex 217 -214.3606420765574 1.5
endloop
endfacet
facet normal 1 0 0
outer loop
vertex 217 -216.23634830000034 0
vertex 217 -214.3606420765574 1.5
vertex 217 -214.5088889699001 1.5
endloop
endfacet
facet normal 1 0 0
outer loop
vertex 217 -216.23634830000034 0
vertex 217 -214.5088889699001 1.5
vertex 217 -214.70916803649905 1.5
endloop
endfacet
facet normal 1 0 0
outer loop
vertex 217 -216.23634830000034 0
vertex 217 -214.70916803649905 1.5
vertex 217 -214.95544677471517 1.5
endloop
endfacet
facet normal 1 0 0
outer loop
vertex 217 -216.23634830000034 0
vertex 217 -214.95544677471517 1.5
vertex 217 -215.24030715071493 1.5
endloop
endfacet
facet normal 1 0 0
outer loop
vertex 217 -216.23634830000034 0
vertex 217 -215.24030715071493 1.5
vertex 217 -215.5551690332123 1.5
endloop
endfacet
facet normal 1 0 0
outer loop
vertex 217 -216.23634830000034 0
vertex 217 -215.5551690332123 1.5
vertex 217 -215.8905486311423 1.5
endloop
endfacet
facet normal 1 0 0
outer loop
vertex 217 -216.23634830000034 0
vertex 217 -215.8905486311423 1.5
vertex 217 -216.23634830000037 1.5
endloop
endfacet
facet normal 1 0 0
outer loop
vertex 217 -216.23634830000034 0
vertex 217 -216.23634830000037 1.5
vertex 217 -219.85708450000024 1.5
endloop
endfacet
facet normal 1 0 0
outer loop
vertex 217 -216.23634830000034 0
vertex 217 -219.85708450000024 1.5
vertex 217 -219.85708450000024 0
endloop
endfacet
facet normal 0.9961946980917434 0.08715574274768315 0
outer loop
vertex 216.9696155060244 -136.40270364466613 1.5
vertex 217 -136.74999999999997 1.5
vertex 217 -136.75 0
endloop
endfacet
facet normal 0.9961946980917434 0.08715574274768315 0
outer loop
vertex 216.9696155060244 -136.40270364466613 1.5
vertex 217 -136.75 0
vertex 216.9696155060244 -136.402703644666 0
endloop
endfacet
facet normal 0.9659258262890631 0.2588190451025404 0
outer loop
vertex 216.87938524157187 -136.06595971334883 1.5
vertex 216.9696155060244 -136.40270364466613 1.5
vertex 216.9696155060244 -136.402703644666 0
endloop
endfacet
facet normal 0.9659258262890631 0.2588190451025404 0
outer loop
vertex 216.87938524157187 -136.06595971334883 1.5
vertex 216.9696155060244 -136.402703644666 0
vertex 216.8793852415719 -136.06595971334883 0
endloop
endfacet
facet normal 0.9063077870366523 0.42261826174069467 0
outer loop
vertex 216.7320508075688 -135.74999999999991 1.5
vertex 216.87938524157187 -136.06595971334883 1.5
vertex 216.8793852415719 -136.06595971334883 0
endloop
endfacet
facet normal 0.9063077870366523 0.42261826174069467 0
outer loop
vertex 216.7320508075688 -135.74999999999991 1.5
vertex 216.8793852415719 -136.06595971334883 0
vertex 216.73205080756884 -135.74999999999994 0
endloop
endfacet
facet normal 0.8191520442889936 0.5735764363510437 0
outer loop
vertex 216.5320888862379 -135.46442478062684 1.5
vertex 216.7320508075688 -135.74999999999991 1.5
vertex 216.73205080756884 -135.74999999999994 0
endloop
endfacet
facet normal 0.8191520442889936 0.5735764363510437 0
outer loop
vertex 216.5320888862379 -135.46442478062684 1.5
vertex 216.73205080756884 -135.74999999999994 0
vertex 216.532088886238 -135.46442478062698 0
endloop
endfacet
facet normal 0.7071067811865617 0.7071067811865333 0
outer loop
vertex 216.28557521937321 -135.21791111376217 1.5
vertex 216.5320888862379 -135.46442478062684 1.5
vertex 216.532088886238 -135.46442478062698 0
endloop
endfacet
facet normal 0.7071067811865617 0.7071067811865333 0
outer loop
vertex 216.28557521937321 -135.21791111376217 1.5
vertex 216.532088886238 -135.46442478062698 0
vertex 216.28557521937313 -135.2179111137621 0
endloop
endfacet
facet normal 0.5735764363510596 0.8191520442889824 0
outer loop
vertex 216 -135.01794919243116 1.5
vertex 216.28557521937321 -135.21791111376217 1.5
vertex 216.28557521937313 -135.2179111137621 0
endloop
endfacet
facet normal 0.5735764363510596 0.8191520442889824 0
outer loop
vertex 216 -135.01794919243116 1.5
vertex 216.28557521937313 -135.2179111137621 0
vertex 216.00000000000003 -135.01794919243116 0
endloop
endfacet
facet normal 0.4226182617407234 0.9063077870366388 0
outer loop
vertex 215.6840402866512 -134.87061475842816 1.5
vertex 216 -135.01794919243116 1.5
vertex 216.00000000000003 -135.01794919243116 0
endloop
endfacet
facet normal 0.4226182617407234 0.9063077870366388 0
outer loop
vertex 215.6840402866512 -134.87061475842816 1.5
vertex 216.00000000000003 -135.01794919243116 0
vertex 215.68404028665122 -134.87061475842816 0
endloop
endfacet
facet normal 0.25881904510251214 0.9659258262890708 0
outer loop
vertex 215.34729635533387 -134.7803844939756 1.5
vertex 215.6840402866512 -134.87061475842816 1.5
vertex 215.68404028665122 -134.87061475842816 0
endloop
endfacet
facet normal 0.25881904510251214 0.9659258262890708 0
outer loop
vertex 215.34729635533387 -134.7803844939756 1.5
vertex 215.68404028665122 -134.87061475842816 0
vertex 215.34729635533392 -134.7803844939756 0
endloop
endfacet
facet normal 0.08715574274765463 0.9961946980917459 0
outer loop
vertex 214.99999999999983 -134.74999999999997 1.5
vertex 215.34729635533387 -134.7803844939756 1.5
vertex 215.34729635533392 -134.7803844939756 0
endloop
endfacet
facet normal 0.08715574274765463 0.9961946980917459 0
outer loop
vertex 214.99999999999983 -134.74999999999997 1.5
vertex 215.34729635533392 -134.7803844939756 0
vertex 215.00000000000009 -134.75 0
endloop
endfacet
facet normal 5.280207915348001e-8 0.9999999999999987 0
outer loop
vertex 136.40460895000024 -134.74999585 1.5
vertex 214.99999999999983 -134.74999999999997 1.5
vertex 215.00000000000009 -134.75 0
endloop
endfacet
facet normal 5.280207915348001e-8 0.9999999999999987 0
outer loop
vertex 136.40460895000024 -134.74999585 1.5
vertex 215.00000000000009 -134.75 0
vertex 136.4046089500001 -134.74999585 0
endloop
endfacet
facet normal -0.049892284444098337 0.9987546044714634 0
outer loop
vertex 136.205329725095 -134.7599507435527 1.5
vertex 136.40460895000024 -134.74999585 1.5
vertex 136.4046089500001 -134.74999585 0
endloop
endfacet
facet normal -0.049892284444098337 0.9987546044714634 0
outer loop
vertex 136.205329725095 -134.7599507435527 1.5
vertex 136.4046089500001 -134.74999585 0
vertex 136.20532972509505 -134.75995074355268 0
endloop
endfacet
facet normal -0.14915957306075686 0.9888131379408007 0
outer loop
vertex 136.00803409829888 -134.7897122124597 1.5
vertex 136.205329725095 -134.7599507435527 1.5
vertex 136.20532972509505 -134.75995074355268 0
endloop
endfacet
facet normal -0.14915957306075686 0.9888131379408007 0
outer loop
vertex 136.00803409829888 -134.7897122124597 1.5
vertex 136.20532972509505 -134.75995074355268 0
vertex 136.00803409829936 -134.78971221245962 0
endloop
endfacet
facet normal -0.246942302199785 0.9690301849706593 0
outer loop
vertex 135.8146857189216 -134.83898404595936 1.5
vertex 136.00803409829888 -134.7897122124597 1.5
vertex 136.00803409829936 -134.78971221245962 0
endloop
endfacet
facet normal -0.246942302199785 0.9690301849706593 0
outer loop
vertex 135.8146857189216 -134.83898404595936 1.5
vertex 136.00803409829936 -134.78971221245962 0
vertex 135.81468571892123 -134.8389840459595 0
endloop
endfacet
facet normal -0.3422472021833869 0.9396099470512453 0
outer loop
vertex 135.62720790000006 -134.90727169999997 1.5
vertex 135.8146857189216 -134.83898404595936 1.5
vertex 135.81468571892123 -134.8389840459595 0
endloop
endfacet
facet normal -0.3422472021833869 0.9396099470512453 0
outer loop
vertex 135.62720790000006 -134.90727169999997 1.5
vertex 135.81468571892123 -134.8389840459595 0
vertex 135.6272078999998 -134.90727170000005 0
endloop
endfacet
facet normal -0.3887004053414127 0.9213642031723511 0
outer loop
vertex 104.37279060000024 -148.09272499999986 1.5
vertex 135.62720790000006 -134.90727169999997 1.5
vertex 135.6272078999998 -134.90727170000005 0
endloop
endfacet
facet normal -0.3887004053414127 0.9213642031723511 0
outer loop
vertex 104.37279060000024 -148.09272499999986 1.5
vertex 135.6272078999998 -134.90727170000005 0
vertex 104.3727905999996 -148.09272500000012 0
endloop
endfacet
facet normal -0.3422672572404495 0.9396026418763945 0
outer loop
vertex 104.18531383107846 -148.16101680404057 1.5
vertex 104.37279060000024 -148.09272499999986 1.5
vertex 104.3727905999996 -148.09272500000012 0
endloop
endfacet
facet normal -0.3422672572404495 0.9396026418763945 0
outer loop
vertex 104.18531383107846 -148.16101680404057 1.5
vertex 104.3727905999996 -148.09272500000012 0
vertex 104.18531383107849 -148.1610168040406 0
endloop
endfacet
facet normal -0.24694230219984006 0.9690301849706453 0
outer loop
vertex 103.99196545170074 -148.21028863754037 1.5
vertex 104.18531383107846 -148.16101680404057 1.5
vertex 104.18531383107849 -148.1610168040406 0
endloop
endfacet
facet normal -0.24694230219984006 0.9690301849706453 0
outer loop
vertex 103.99196545170074 -148.21028863754037 1.5
vertex 104.18531383107849 -148.1610168040406 0
vertex 103.99196545170129 -148.21028863754026 0
endloop
endfacet
facet normal -0.14915957306075686 0.9888131379408007 0
outer loop
vertex 103.79466982490511 -148.2400501064473 1.5
vertex 103.99196545170074 -148.21028863754037 1.5
vertex 103.99196545170129 -148.21028863754026 0
endloop
endfacet
facet normal -0.14915957306075686 0.9888131379408007 0
outer loop
vertex 103.79466982490511 -148.2400501064473 1.5
vertex 103.99196545170129 -148.21028863754026 0
vertex 103.79466982490442 -148.24005010644737 0
endloop
endfacet
facet normal -0.049867437370380706 0.9987558453847023 0
outer loop
vertex 103.59539120000021 -148.25 1.5
vertex 103.79466982490511 -148.2400501064473 1.5
vertex 103.79466982490442 -148.24005010644737 0
endloop
endfacet
facet normal -0.049867437370380706 0.9987558453847023 0
outer loop
vertex 103.59539120000021 -148.25 1.5
vertex 103.79466982490442 -148.24005010644737 0
vertex 103.59539120000062 -148.25 0
endloop
endfacet
facet normal 0 1 0
outer loop
vertex 103.59539120000021 -148.25 1.5
vertex 103.59539120000062 -148.25 0
vertex 87.49999999999973 -148.25 0
endloop
endfacet
facet normal 0 1 0
outer loop
vertex 103.59539120000021 -148.25 1.5
vertex 87.49999999999973 -148.25 0
vertex 87.49999999999974 -148.25 1.5
endloop
endfacet
facet normal -0.087155742747683 0.9961946980917434 0
outer loop
vertex 87.15270364466647 -148.28038449397553 1.5
vertex 87.49999999999974 -148.25 1.5
vertex 87.49999999999973 -148.25 0
endloop
endfacet
facet normal -0.087155742747683 0.9961946980917434 0
outer loop
vertex 87.15270364466647 -148.28038449397553 1.5
vertex 87.49999999999973 -148.25 0
vertex 87.15270364466636 -148.28038449397553 0
endloop
endfacet
facet normal -0.2588190451025404 0.9659258262890631 0
outer loop
vertex 86.81595971334853 -148.37061475842825 1.5
vertex 87.15270364466647 -148.28038449397553 1.5
vertex 87.15270364466636 -148.28038449397553 0
endloop
endfacet
facet normal -0.2588190451025404 0.9659258262890631 0
outer loop
vertex 86.81595971334853 -148.37061475842825 1.5
vertex 87.15270364466636 -148.28038449397553 0
vertex 86.81595971334872 -148.3706147584282 0
endloop
endfacet
facet normal -0.4226182617406946 0.9063077870366524 0
outer loop
vertex 86.50000000000006 -148.5179491924311 1.5
vertex 86.81595971334853 -148.37061475842825 1.5
vertex 86.81595971334872 -148.3706147584282 0
endloop
endfacet
facet normal -0.4226182617406946 0.9063077870366524 0
outer loop
vertex 86.50000000000006 -148.5179491924311 1.5
vertex 86.81595971334872 -148.3706147584282 0
vertex 86.4999999999998 -148.51794919243125 0
endloop
endfacet
facet normal -0.5735764363510599 0.8191520442889821 0
outer loop
vertex 86.21442478062687 -148.7179111137621 1.5
vertex 86.50000000000006 -148.5179491924311 1.5
vertex 86.4999999999998 -148.51794919243125 0
endloop
endfacet
facet normal -0.5735764363510599 0.8191520442889821 0
outer loop
vertex 86.21442478062687 -148.7179111137621 1.5
vertex 86.4999999999998 -148.51794919243125 0
vertex 86.21442478062691 -148.71791111376203 0
endloop
endfacet
facet normal -0.7071067811865192 0.707106781186576 0
outer loop
vertex 85.96791111376203 -148.96442478062693 1.5
vertex 86.21442478062687 -148.7179111137621 1.5
vertex 86.21442478062691 -148.71791111376203 0
endloop
endfacet
facet normal -0.7071067811865192 0.707106781186576 0
outer loop
vertex 85.96791111376203 -148.96442478062693 1.5
vertex 86.21442478062691 -148.71791111376203 0
vertex 85.96791111376204 -148.9644247806269 0
endloop
endfacet
facet normal -0.8191520442889821 0.5735764363510599 0
outer loop
vertex 85.76794919243115 -149.24999999999994 1.5
vertex 85.96791111376203 -148.96442478062693 1.5
vertex 85.96791111376204 -148.9644247806269 0
endloop
endfacet
facet normal -0.8191520442889821 0.5735764363510599 0
outer loop
vertex 85.76794919243115 -149.24999999999994 1.5
vertex 85.96791111376204 -148.9644247806269 0
vertex 85.76794919243117 -149.2499999999999 0
endloop
endfacet
facet normal -0.9063077870366711 0.42261826174065414 0
outer loop
vertex 85.6206147584282 -149.56595971334863 1.5
vertex 85.76794919243115 -149.24999999999994 1.5
vertex 85.76794919243117 -149.2499999999999 0
endloop
endfacet
facet normal -0.9063077870366711 0.42261826174065414 0
outer loop
vertex 85.6206147584282 -149.56595971334863 1.5
vertex 85.76794919243117 -149.2499999999999 0
vertex 85.62061475842819 -149.5659597133487 0
endloop
endfacet
facet normal -0.9659258262890666 0.2588190451025271 0
outer loop
vertex 85.53038449397556 -149.90270364466627 1.5
vertex 85.6206147584282 -149.56595971334863 1.5
vertex 85.62061475842819 -149.5659597133487 0
endloop
endfacet
facet normal -0.9659258262890666 0.2588190451025271 0
outer loop
vertex 85.53038449397556 -149.90270364466627 1.5
vertex 85.62061475842819 -149.5659597133487 0
vertex 85.53038449397557 -149.90270364466625 0
endloop
endfacet
facet normal -0.9961946980917447 0.08715574274766881 0
outer loop
vertex 85.5 -150.24999999999977 1.5
vertex 85.53038449397556 -149.90270364466627 1.5
vertex 85.53038449397557 -149.90270364466625 0
endloop
endfacet
facet normal -0.9961946980917447 0.08715574274766881 0
outer loop
vertex 85.5 -150.24999999999977 1.5
vertex 85.53038449397557 -149.90270364466625 0
vertex 85.5 -150.25 0
endloop
endfacet
facet normal -1 -1.3005248433728411e-8 0
outer loop
vertex 85.50000080000001 -211.76364740000005 1.5
vertex 85.5 -150.24999999999977 1.5
vertex 85.5 -150.25 0
endloop
endfacet
facet normal -1 -1.3005248433728411e-8 0
outer loop
vertex 85.50000080000001 -211.76364740000005 1.5
vertex 85.5 -150.25 0
vertex 85.5000008 -211.7636474 0
endloop
endfacet
endsolid csg.js
