solid csg.js
facet normal 0 0 -1
outer loop
vertex 213.99999999999974 -135.75 0
vertex 214.34729635533392 -135.78038449397562 0
vertex 214.6840402866513 -135.8706147584282 0
endloop
endfacet
facet normal 0 0 -1
outer loop
vertex 213.99999999999974 -135.75 0
vertex 214.6840402866513 -135.8706147584282 0
vertex 215.00000000000003 -136.01794919243116 0
endloop
endfacet
facet normal 0 0 -1
outer loop
vertex 213.99999999999974 -135.75 0
vertex 215.00000000000003 -136.01794919243116 0
vertex 215.28557521937327 -136.2179111137622 0
endloop
endfacet
facet normal 0 0 -1
outer loop
vertex 213.99999999999974 -135.75 0
vertex 215.28557521937327 -136.2179111137622 0
vertex 215.53208888623783 -136.46442478062676 0
endloop
endfacet
facet normal 0 0 -1
outer loop
vertex 213.99999999999974 -135.75 0
vertex 215.53208888623783 -136.46442478062676 0
vertex 215.73205080756887 -136.75 0
endloop
endfacet
facet normal 0 0 -1
outer loop
vertex 213.99999999999974 -135.75 0
vertex 215.73205080756887 -136.75 0
vertex 215.8793852415718 -137.0659597133487 0
endloop
endfacet
facet normal 0 0 -1
outer loop
vertex 213.99999999999974 -135.75 0
vertex 215.8793852415718 -137.0659597133487 0
vertex 215.9696155060244 -137.40270364466616 0
endloop
endfacet
facet normal 0 0 -1
outer loop
vertex 213.99999999999974 -135.75 0
vertex 215.9696155060244 -137.40270364466616 0
vertex 216 -137.75 0
endloop
endfacet
facet normal 0 0 -1
outer loop
vertex 213.99999999999974 -135.75 0
vertex 216 -137.75 0
vertex 216 -149.09272499999992 0
endloop
endfacet
facet normal 0 0 -1
outer loop
vertex 213.99999999999974 -135.75 0
vertex 216 -149.09272499999992 0
vertex 104.37279060000012 -149.09272499999992 0
endloop
endfacet
facet normal 0 0 -1
outer loop
vertex 213.99999999999974 -135.75 0
vertex 104.37279060000012 -149.09272499999992 0
vertex 135.62720790000046 -135.90727169999982 0
endloop
endfacet
facet normal 0 0 -1
outer loop
vertex 213.99999999999974 -135.75 0
vertex 135.62720790000046 -135.90727169999982 0
vertex 135.81468571892134 -135.83898404595945 0
endloop
endfacet
facet normal 0 0 -1
outer loop
vertex 213.99999999999974 -135.75 0
vertex 135.81468571892134 -135.83898404595945 0
vertex 136.00803409829894 -135.7897122124597 0
endloop
endfacet
facet normal 0 0 -1
outer loop
vertex 213.99999999999974 -135.75 0
vertex 136.00803409829894 -135.7897122124597 0
vertex 136.2053297250949 -135.7599507435527 0
endloop
endfacet
facet normal 0 0 -1
outer loop
vertex 213.99999999999974 -135.75 0
vertex 136.2053297250949 -135.7599507435527 0
vertex 136.40460895000024 -135.74999585 0
endloop
endfacet
facet normal 0 0 -1
outer loop
vertex 216 -149.09272499999992 0
vertex 216 -149.16101680404066 0
vertex 104.18531383107825 -149.16101680404066 0
endloop
endfacet
facet normal 0 0 -1
outer loop
vertex 216 -149.09272499999992 0
vertex 104.18531383107825 -149.16101680404066 0
vertex 104.37279060000012 -149.09272499999992 0
endloop
endfacet
facet normal 0 0 -1
outer loop
vertex 216 -149.16101680404066 0
vertex 216 -149.21028863754034 0
vertex 103.99196545170088 -149.21028863754034 0
endloop
endfacet
facet normal 0 0 -1
outer loop
vertex 216 -149.16101680404066 0
vertex 103.99196545170088 -149.21028863754034 0
vertex 104.18531383107825 -149.16101680404066 0
endloop
endfacet
facet normal 0 0 -1
outer loop
vertex 216 -149.21028863754034 0
vertex 216 -149.24005010644737 0
vertex 103.79466982490459 -149.24005010644737 0
endloop
endfacet
facet normal 0 0 -1
outer loop
vertex 216 -149.21028863754034 0
vertex 103.79466982490459 -149.24005010644737 0
vertex 103.99196545170088 -149.21028863754034 0
endloop
endfacet
facet normal 0 0 -1
outer loop
vertex 216 -149.24005010644737 0
vertex 216 -149.25 0
vertex 103.59539120000082 -149.25 0
endloop
endfacet
facet normal 0 0 -1
outer loop
vertex 216 -149.24005010644737 0
vertex 103.59539120000082 -149.25 0
vertex 103.79466982490459 -149.24005010644737 0
endloop
endfacet
facet normal 0 0 -1
outer loop
vertex 103.59539120000082 -149.25 0
vertex 216 -149.25 0
vertex 216 -213.23640415000003 0
endloop
endfacet
facet normal 0 0 -1
outer loop
vertex 103.59539120000082 -149.25 0
vertex 216 -213.23640415000003 0
vertex 157.51370000000068 -213.23640415000003 0
endloop
endfacet
facet normal 0 0 -1
outer loop
vertex 103.59539120000082 -149.25 0
vertex 157.51370000000068 -213.23640415000003 0
vertex 88.4863015999997 -212.7636048 0
endloop
endfacet
facet normal 0 0 -1
outer loop
vertex 103.59539120000082 -149.25 0
vertex 88.4863015999997 -212.7636048 0
vertex 88.14071733630819 -212.73111852672125 0
endloop
endfacet
facet normal 0 0 -1
outer loop
vertex 103.59539120000082 -149.25 0
vertex 88.14071733630819 -212.73111852672125 0
vertex 87.80595580107652 -212.63936793111694 0
endloop
endfacet
facet normal 0 0 -1
outer loop
vertex 103.59539120000082 -149.25 0
vertex 87.80595580107652 -212.63936793111694 0
vertex 87.49209950108681 -212.49111922042843 0
endloop
endfacet
facet normal 0 0 -1
outer loop
vertex 103.59539120000082 -149.25 0
vertex 87.49209950108681 -212.49111922042843 0
vertex 87.20860205936494 -212.29083777395508 0
endloop
endfacet
facet normal 0 0 -1
outer loop
vertex 103.59539120000082 -149.25 0
vertex 87.20860205936494 -212.29083777395508 0
vertex 86.96400266388744 -212.04455624197138 0
endloop
endfacet
facet normal 0 0 -1
outer loop
vertex 103.59539120000082 -149.25 0
vertex 86.96400266388744 -212.04455624197138 0
vertex 86.76566885985703 -211.75969283708557 0
endloop
endfacet
facet normal 0 0 -1
outer loop
vertex 103.59539120000082 -149.25 0
vertex 86.76566885985703 -211.75969283708557 0
vertex 86.61957463287436 -211.444827891265 0
endloop
endfacet
facet normal 0 0 -1
outer loop
vertex 103.59539120000082 -149.25 0
vertex 86.61957463287436 -211.444827891265 0
vertex 86.53012046732769 -211.10944540882056 0
endloop
endfacet
facet normal 0 0 -1
outer loop
vertex 103.59539120000082 -149.25 0
vertex 86.53012046732769 -211.10944540882056 0
vertex 86.50000079999998 -210.76364740000017 0
endloop
endfacet
facet normal 0 0 -1
outer loop
vertex 103.59539120000082 -149.25 0
vertex 86.50000079999998 -210.76364740000017 0
vertex 86.5 -151.24999999999991 0
endloop
endfacet
facet normal 0 0 -1
outer loop
vertex 103.59539120000082 -149.25 0
vertex 86.5 -151.24999999999991 0
vertex 86.53038449397557 -150.90270364466616 0
endloop
endfacet
facet normal 0 0 -1
outer loop
vertex 103.59539120000082 -149.25 0
vertex 86.53038449397557 -150.90270364466616 0
vertex 86.6206147584282 -150.5659597133486 0
endloop
endfacet
facet normal 0 0 -1
outer loop
vertex 103.59539120000082 -149.25 0
vertex 86.6206147584282 -150.5659597133486 0
vertex 86.76794919243102 -150.2500000000002 0
endloop
endfacet
facet normal 0 0 -1
outer loop
vertex 103.59539120000082 -149.25 0
vertex 86.76794919243102 -150.2500000000002 0
vertex 86.96791111376226 -149.9644247806267 0
endloop
endfacet
facet normal 0 0 -1
outer loop
vertex 103.59539120000082 -149.25 0
vertex 86.96791111376226 -149.9644247806267 0
vertex 87.214424780627 -149.71791111376197 0
endloop
endfacet
facet normal 0 0 -1
outer loop
vertex 103.59539120000082 -149.25 0
vertex 87.214424780627 -149.71791111376197 0
vertex 87.49999999999989 -149.5179491924312 0
endloop
endfacet
facet normal 0 0 -1
outer loop
vertex 103.59539120000082 -149.25 0
vertex 87.49999999999989 -149.5179491924312 0
vertex 87.81595971334868 -149.3706147584282 0
endloop
endfacet
facet normal 0 0 -1
outer loop
vertex 103.59539120000082 -149.25 0
vertex 87.81595971334868 -149.3706147584282 0
vertex 88.15270364466629 -149.28038449397556 0
endloop
endfacet
facet normal 0 0 -1
outer loop
vertex 103.59539120000082 -149.25 0
vertex 88.15270364466629 -149.28038449397556 0
vertex 88.49999999999983 -149.25 0
endloop
endfacet
facet normal 0 0 -1
outer loop
vertex 216 -213.23640415000003 0
vertex 216 -213.26889262407144 0
vertex 157.85928127762415 -213.26889262407144 0
endloop
endfacet
facet normal 0 0 -1
outer loop
vertex 216 -213.23640415000003 0
vertex 157.85928127762415 -213.26889262407144 0
vertex 157.51370000000068 -213.23640415000003 0
endloop
endfacet
facet normal 0 0 -1
outer loop
vertex 216 -213.26889262407144 0
vertex 216 -213.36064207655747 0
vertex 158.19404083067766 -213.36064207655747 0
endloop
endfacet
facet normal 0 0 -1
outer loop
vertex 216 -213.26889262407144 0
vertex 158.19404083067766 -213.36064207655747 0
vertex 157.85928127762415 -213.26889262407144 0
endloop
endfacet
facet normal 0 0 -1
outer loop
vertex 216 -213.36064207655747 0
vertex 216 -213.50888896990017 0
vertex 158.50789554070442 -213.50888896990017 0
endloop
endfacet
facet normal 0 0 -1
outer loop
vertex 216 -213.36064207655747 0
vertex 158.50789554070442 -213.50888896990017 0
vertex 158.19404083067766 -213.36064207655747 0
endloop
endfacet
facet normal 0 0 -1
outer loop
vertex 216 -213.50888896990017 0
vertex 216 -213.70916803649936 0
vertex 158.7913919531581 -213.70916803649936 0
endloop
endfacet
facet normal 0 0 -1
outer loop
vertex 216 -213.50888896990017 0
vertex 158.7913919531581 -213.70916803649936 0
vertex 158.50789554070442 -213.50888896990017 0
endloop
endfacet
facet normal 0 0 -1
outer loop
vertex 216 -213.70916803649936 0
vertex 216 -213.955446774715 0
vertex 159.035991019989 -213.955446774715 0
endloop
endfacet
facet normal 0 0 -1
outer loop
vertex 216 -213.70916803649936 0
vertex 159.035991019989 -213.955446774715 0
vertex 158.7913919531581 -213.70916803649936 0
endloop
endfacet
facet normal 0 0 -1
outer loop
vertex 216 -213.955446774715 0
vertex 216 -214.24030715071478 0
vertex 159.23432529987323 -214.24030715071478 0
endloop
endfacet
facet normal 0 0 -1
outer loop
vertex 216 -213.955446774715 0
vertex 159.23432529987323 -214.24030715071478 0
vertex 159.035991019989 -213.955446774715 0
endloop
endfacet
facet normal 0 0 -1
outer loop
vertex 216 -214.24030715071478 0
vertex 216 -214.55516903321228 0
vertex 159.38042086908047 -214.55516903321228 0
endloop
endfacet
facet normal 0 0 -1
outer loop
vertex 216 -214.24030715071478 0
vertex 159.38042086908047 -214.55516903321228 0
vertex 159.23432529987323 -214.24030715071478 0
endloop
endfacet
facet normal 0 0 -1
outer loop
vertex 216 -214.55516903321228 0
vertex 216 -214.89054863114245 0
vertex 159.46987725892606 -214.89054863114245 0
endloop
endfacet
facet normal 0 0 -1
outer loop
vertex 216 -214.55516903321228 0
vertex 159.46987725892606 -214.89054863114245 0
vertex 159.38042086908047 -214.55516903321228 0
endloop
endfacet
facet normal 0 0 -1
outer loop
vertex 216 -214.89054863114245 0
vertex 216 -215.23634830000017 0
vertex 159.5 -215.23634830000017 0
endloop
endfacet
facet normal 0 0 -1
outer loop
vertex 216 -214.89054863114245 0
vertex 159.5 -215.23634830000017 0
vertex 159.46987725892606 -214.89054863114245 0
endloop
endfacet
facet normal 0 0 -1
outer loop
vertex 216 -215.23634830000017 0
vertex 216 -219.86329289999975 0
vertex 159.50000016915575 -219.86329289999975 0
endloop
endfacet
facet normal 0 0 -1
outer loop
vertex 216 -215.23634830000017 0
vertex 159.50000016915575 -219.86329289999975 0
vertex 159.5 -215.23634830000017 0
endloop
endfacet
facet normal 0 0 -1
outer loop
vertex 216 -219.86329289999975 0
vertex 216.01518381505912 -220.10923643261498 0
vertex 159.50000017814716 -220.10923643261498 0
endloop
endfacet
facet normal 0 0 -1
outer loop
vertex 216 -219.86329289999975 0
vertex 159.50000017814716 -220.10923643261498 0
vertex 159.50000016915575 -219.86329289999975 0
endloop
endfacet
facet normal 0 0 -1
outer loop
vertex 216.01518381505912 -220.10923643261498 0
vertex 216.06049066331494 -220.351443288373 0
vertex 159.50000018700197 -220.351443288373 0
endloop
endfacet
facet normal 0 0 -1
outer loop
vertex 216.01518381505912 -220.10923643261498 0
vertex 159.50000018700197 -220.351443288373 0
vertex 159.50000017814716 -220.10923643261498 0
endloop
endfacet
facet normal 0 0 -1
outer loop
vertex 216.06049066331494 -220.351443288373 0
vertex 216.1352378222471 -220.58624050664227 0
vertex 159.5000001955859 -220.58624050664227 0
endloop
endfacet
facet normal 0 0 -1
outer loop
vertex 216.06049066331494 -220.351443288373 0
vertex 159.5000001955859 -220.58624050664227 0
vertex 159.50000018700197 -220.351443288373 0
endloop
endfacet
facet normal 0 0 -1
outer loop
vertex 216.1352378222471 -220.58624050664227 0
vertex 216.23829068844464 -220.81006404929025 0
vertex 159.50000020376862 -220.81006404929025 0
endloop
endfacet
facet normal 0 0 -1
outer loop
vertex 216.1352378222471 -220.58624050664227 0
vertex 159.50000020376862 -220.81006404929025 0
vertex 159.5000001955859 -220.58624050664227 0
endloop
endfacet
facet normal 0 0 -1
outer loop
vertex 216.23829068844464 -220.81006404929025 0
vertex 216.36808500000004 -221.01951645000005 0
vertex 159.50000021142597 -221.01951645000005 0
endloop
endfacet
facet normal 0 0 -1
outer loop
vertex 216.23829068844464 -220.81006404929025 0
vertex 159.50000021142597 -221.01951645000005 0
vertex 159.50000020376862 -220.81006404929025 0
endloop
endfacet
facet normal 0 0 -1
outer loop
vertex 216.36808500000004 -221.01951645000005 0
vertex 231.05569290000025 -241.7496676000004 0
vertex 231.2190529026845 -242.024407519342 0
endloop
endfacet
facet normal 0 0 -1
outer loop
vertex 216.36808500000004 -221.01951645000005 0
vertex 231.2190529026845 -242.024407519342 0
vertex 231.33655403974578 -242.32166653895456 0
endloop
endfacet
facet normal 0 0 -1
outer loop
vertex 216.36808500000004 -221.01951645000005 0
vertex 231.33655403974578 -242.32166653895456 0
vertex 231.40519860478307 -242.63384816179973 0
endloop
endfacet
facet normal 0 0 -1
outer loop
vertex 216.36808500000004 -221.01951645000005 0
vertex 231.40519860478307 -242.63384816179973 0
vertex 231.42323325357086 -242.95297853233023 0
endloop
endfacet
facet normal 0 0 -1
outer loop
vertex 216.36808500000004 -221.01951645000005 0
vertex 231.42323325357086 -242.95297853233023 0
vertex 231.39019733860846 -243.27090630757803 0
endloop
endfacet
facet normal 0 0 -1
outer loop
vertex 216.36808500000004 -221.01951645000005 0
vertex 231.39019733860846 -243.27090630757803 0
vertex 231.30693467514482 -243.57951086169967 0
endloop
endfacet
facet normal 0 0 -1
outer loop
vertex 216.36808500000004 -221.01951645000005 0
vertex 231.30693467514482 -243.57951086169967 0
vertex 231.1755719881455 -243.87090970592487 0
endloop
endfacet
facet normal 0 0 -1
outer loop
vertex 216.36808500000004 -221.01951645000005 0
vertex 231.1755719881455 -243.87090970592487 0
vertex 230.99946459071606 -244.1376598259295 0
endloop
endfacet
facet normal 0 0 -1
outer loop
vertex 216.36808500000004 -221.01951645000005 0
vertex 230.99946459071606 -244.1376598259295 0
vertex 230.78311068148696 -244.37294779398712 0
endloop
endfacet
facet normal 0 0 -1
outer loop
vertex 216.36808500000004 -221.01951645000005 0
vertex 230.78311068148696 -244.37294779398712 0
vertex 230.53203645000013 -244.5707637999999 0
endloop
endfacet
facet normal 0 0 -1
outer loop
vertex 216.36808500000004 -221.01951645000005 0
vertex 230.53203645000013 -244.5707637999999 0
vertex 195.7540121 -267.7216624 0
endloop
endfacet
facet normal 0 0 -1
outer loop
vertex 216.36808500000004 -221.01951645000005 0
vertex 195.7540121 -267.7216624 0
vertex 195.48377696156302 -267.8727649820428 0
endloop
endfacet
facet normal 0 0 -1
outer loop
vertex 216.36808500000004 -221.01951645000005 0
vertex 195.48377696156302 -267.8727649820428 0
vertex 195.1934542371085 -267.9803485938625 0
endloop
endfacet
facet normal 0 0 -1
outer loop
vertex 216.36808500000004 -221.01951645000005 0
vertex 195.1934542371085 -267.9803485938625 0
vertex 194.89000557089577 -268.04183375337743 0
endloop
endfacet
facet normal 0 0 -1
outer loop
vertex 216.36808500000004 -221.01951645000005 0
vertex 194.89000557089577 -268.04183375337743 0
vertex 194.5807032253592 -268.0557469454082 0
endloop
endfacet
facet normal 0 0 -1
outer loop
vertex 216.36808500000004 -221.01951645000005 0
vertex 194.5807032253592 -268.0557469454082 0
vertex 194.27295974857972 -268.02175473502825 0
endloop
endfacet
facet normal 0 0 -1
outer loop
vertex 216.36808500000004 -221.01951645000005 0
vertex 194.27295974857972 -268.02175473502825 0
vertex 193.9741503297561 -267.94067175845817 0
endloop
endfacet
facet normal 0 0 -1
outer loop
vertex 216.36808500000004 -221.01951645000005 0
vertex 193.9741503297561 -267.94067175845817 0
vertex 193.69143605000085 -267.8144412000004 0
endloop
endfacet
facet normal 0 0 -1
outer loop
vertex 216.36808500000004 -221.01951645000005 0
vertex 193.69143605000085 -267.8144412000004 0
vertex 160.5456823999995 -249.8177591999997 0
endloop
endfacet
facet normal 0 0 -1
outer loop
vertex 216.36808500000004 -221.01951645000005 0
vertex 160.5456823999995 -249.8177591999997 0
vertex 160.2884206520727 -249.65137046826715 0
endloop
endfacet
facet normal 0 0 -1
outer loop
vertex 216.36808500000004 -221.01951645000005 0
vertex 160.2884206520727 -249.65137046826715 0
vertex 160.05959186165222 -249.44764503174244 0
endloop
endfacet
facet normal 0 0 -1
outer loop
vertex 216.36808500000004 -221.01951645000005 0
vertex 160.05959186165222 -249.44764503174244 0
vertex 159.86456467781008 -249.21135904744574 0
endloop
endfacet
facet normal 0 0 -1
outer loop
vertex 216.36808500000004 -221.01951645000005 0
vertex 159.86456467781008 -249.21135904744574 0
vertex 159.707915738565 -248.9480573599353 0
endloop
endfacet
facet normal 0 0 -1
outer loop
vertex 216.36808500000004 -221.01951645000005 0
vertex 159.707915738565 -248.9480573599353 0
vertex 159.59332107244197 -248.66391878228595 0
endloop
endfacet
facet normal 0 0 -1
outer loop
vertex 216.36808500000004 -221.01951645000005 0
vertex 159.59332107244197 -248.66391878228595 0
vertex 159.52346983433415 -248.36561109993877 0
endloop
endfacet
facet normal 0 0 -1
outer loop
vertex 216.36808500000004 -221.01951645000005 0
vertex 159.52346983433415 -248.36561109993877 0
vertex 159.50000119999999 -248.06013460000003 0
endloop
endfacet
facet normal 0 0 -1
outer loop
vertex 216.36808500000004 -221.01951645000005 0
vertex 159.50000119999999 -248.06013460000003 0
vertex 159.50000021142597 -221.01951645000005 0
endloop
endfacet
facet normal 0 0 1
outer loop
vertex 194.89000557089557 -268.0418337533775 6.5
vertex 195.1934542371085 -267.9803485938625 6.5
vertex 195.48377696156297 -267.87276498204284 6.5
endloop
endfacet
facet normal 0 0 1
outer loop
vertex 194.89000557089557 -268.0418337533775 6.5
vertex 195.48377696156297 -267.87276498204284 6.5
vertex 195.75401209999967 -267.72166240000024 6.5
endloop
endfacet
facet normal 0 0 1
outer loop
vertex 194.89000557089557 -268.0418337533775 6.5
vertex 195.75401209999967 -267.72166240000024 6.5
vertex 230.53203645000008 -244.57076379999992 6.5
endloop
endfacet
facet normal 0 0 1
outer loop
vertex 194.89000557089557 -268.0418337533775 6.5
vertex 230.53203645000008 -244.57076379999992 6.5
vertex 230.78311068148724 -244.3729477939869 6.5
endloop
endfacet
facet normal 0 0 1
outer loop
vertex 194.89000557089557 -268.0418337533775 6.5
vertex 230.78311068148724 -244.3729477939869 6.5
vertex 230.99946459071577 -244.13765982592986 6.5
endloop
endfacet
facet normal 0 0 1
outer loop
vertex 194.89000557089557 -268.0418337533775 6.5
vertex 230.99946459071577 -244.13765982592986 6.5
vertex 231.1755719881456 -243.87090970592465 6.5
endloop
endfacet
facet normal 0 0 1
outer loop
vertex 194.89000557089557 -268.0418337533775 6.5
vertex 231.1755719881456 -243.87090970592465 6.5
vertex 231.30693467514473 -243.57951086169987 6.5
endloop
endfacet
facet normal 0 0 1
outer loop
vertex 194.89000557089557 -268.0418337533775 6.5
vertex 231.30693467514473 -243.57951086169987 6.5
vertex 231.39019733860846 -243.27090630757795 6.5
endloop
endfacet
facet normal 0 0 1
outer loop
vertex 194.89000557089557 -268.0418337533775 6.5
vertex 231.39019733860846 -243.27090630757795 6.5
vertex 231.42323325357086 -242.95297853233006 6.5
endloop
endfacet
facet normal 0 0 1
outer loop
vertex 194.89000557089557 -268.0418337533775 6.5
vertex 231.42323325357086 -242.95297853233006 6.5
vertex 231.4051986047831 -242.63384816179982 6.5
endloop
endfacet
facet normal 0 0 1
outer loop
vertex 194.89000557089557 -268.0418337533775 6.5
vertex 231.4051986047831 -242.63384816179982 6.5
vertex 231.33655403974583 -242.32166653895473 6.5
endloop
endfacet
facet normal 0 0 1
outer loop
vertex 194.89000557089557 -268.0418337533775 6.5
vertex 231.33655403974583 -242.32166653895473 6.5
vertex 231.21905290268444 -242.02440751934188 6.5
endloop
endfacet
facet normal 0 0 1
outer loop
vertex 194.89000557089557 -268.0418337533775 6.5
vertex 231.21905290268444 -242.02440751934188 6.5
vertex 231.05569290000028 -241.74966760000044 6.5
endloop
endfacet
facet normal 0 0 1
outer loop
vertex 194.89000557089557 -268.0418337533775 6.5
vertex 231.05569290000028 -241.74966760000044 6.5
vertex 216.36808500000006 -221.01951645000005 6.5
endloop
endfacet
facet normal 0 0 1
outer loop
vertex 194.89000557089557 -268.0418337533775 6.5
vertex 216.36808500000006 -221.01951645000005 6.5
vertex 159.500000211426 -221.01951645000005 6.5
endloop
endfacet
facet normal 0 0 1
outer loop
vertex 194.89000557089557 -268.0418337533775 6.5
vertex 159.500000211426 -221.01951645000005 6.5
vertex 159.50000119999999 -248.0601345999999 6.5
endloop
endfacet
facet normal 0 0 1
outer loop
vertex 194.89000557089557 -268.0418337533775 6.5
vertex 159.50000119999999 -248.0601345999999 6.5
vertex 159.52346983433415 -248.36561109993883 6.5
endloop
endfacet
facet normal 0 0 1
outer loop
vertex 194.89000557089557 -268.0418337533775 6.5
vertex 159.52346983433415 -248.36561109993883 6.5
vertex 159.5933210724419 -248.66391878228578 6.5
endloop
endfacet
facet normal 0 0 1
outer loop
vertex 194.89000557089557 -268.0418337533775 6.5
vertex 159.5933210724419 -248.66391878228578 6.5
vertex 159.70791573856508 -248.94805735993546 6.5
endloop
endfacet
facet normal 0 0 1
outer loop
vertex 194.89000557089557 -268.0418337533775 6.5
vertex 159.70791573856508 -248.94805735993546 6.5
vertex 159.86456467781002 -249.21135904744568 6.5
endloop
endfacet
facet normal 0 0 1
outer loop
vertex 194.89000557089557 -268.0418337533775 6.5
vertex 159.86456467781002 -249.21135904744568 6.5
vertex 160.0595918616521 -249.44764503174233 6.5
endloop
endfacet
facet normal 0 0 1
outer loop
vertex 194.89000557089557 -268.0418337533775 6.5
vertex 160.0595918616521 -249.44764503174233 6.5
vertex 160.28842065207274 -249.65137046826717 6.5
endloop
endfacet
facet normal 0 0 1
outer loop
vertex 194.89000557089557 -268.0418337533775 6.5
vertex 160.28842065207274 -249.65137046826717 6.5
vertex 160.54568239999946 -249.8177591999997 6.5
endloop
endfacet
facet normal 0 0 1
outer loop
vertex 194.89000557089557 -268.0418337533775 6.5
vertex 160.54568239999946 -249.8177591999997 6.5
vertex 193.69143605000068 -267.8144412000003 6.5
endloop
endfacet
facet normal 0 0 1
outer loop
vertex 194.89000557089557 -268.0418337533775 6.5
vertex 193.69143605000068 -267.8144412000003 6.5
vertex 193.9741503297561 -267.94067175845817 6.5
endloop
endfacet
facet normal 0 0 1
outer loop
vertex 194.89000557089557 -268.0418337533775 6.5
vertex 193.9741503297561 -267.94067175845817 6.5
vertex 194.27295974857984 -268.0217547350283 6.5
endloop
endfacet
facet normal 0 0 1
outer loop
vertex 194.89000557089557 -268.0418337533775 6.5
vertex 194.27295974857984 -268.0217547350283 6.5
vertex 194.58070322535926 -268.05574694540826 6.5
endloop
endfacet
facet normal 0 0 1
outer loop
vertex 216.36808500000006 -221.01951645000005 6.5
vertex 216.23829068844464 -220.81006404929025 6.5
vertex 159.50000020376865 -220.81006404929025 6.5
endloop
endfacet
facet normal 0 0 1
outer loop
vertex 216.36808500000006 -221.01951645000005 6.5
vertex 159.50000020376865 -220.81006404929025 6.5
vertex 159.500000211426 -221.01951645000005 6.5
endloop
endfacet
facet normal 0 0 1
outer loop
vertex 216.23829068844464 -220.81006404929025 6.5
vertex 216.13523782224712 -220.58624050664227 6.5
vertex 159.50000019558593 -220.58624050664227 6.5
endloop
endfacet
facet normal 0 0 1
outer loop
vertex 216.23829068844464 -220.81006404929025 6.5
vertex 159.50000019558593 -220.58624050664227 6.5
vertex 159.50000020376865 -220.81006404929025 6.5
endloop
endfacet
facet normal 0 0 1
outer loop
vertex 216.13523782224712 -220.58624050664227 6.5
vertex 216.06049066331488 -220.35144328837274 6.5
vertex 159.500000187002 -220.35144328837274 6.5
endloop
endfacet
facet normal 0 0 1
outer loop
vertex 216.13523782224712 -220.58624050664227 6.5
vertex 159.500000187002 -220.35144328837274 6.5
vertex 159.50000019558593 -220.58624050664227 6.5
endloop
endfacet
facet normal 0 0 1
outer loop
vertex 216.06049066331488 -220.35144328837274 6.5
vertex 216.01518381505906 -220.1092364326148 6.5
vertex 159.5000001781472 -220.1092364326148 6.5
endloop
endfacet
facet normal 0 0 1
outer loop
vertex 216.06049066331488 -220.35144328837274 6.5
vertex 159.5000001781472 -220.1092364326148 6.5
vertex 159.500000187002 -220.35144328837274 6.5
endloop
endfacet
facet normal 0 0 1
outer loop
vertex 216.01518381505906 -220.1092364326148 6.5
vertex 216 -219.8632929000003 6.5
vertex 159.50000016915578 -219.8632929000003 6.5
endloop
endfacet
facet normal 0 0 1
outer loop
vertex 216.01518381505906 -220.1092364326148 6.5
vertex 159.50000016915578 -219.8632929000003 6.5
vertex 159.5000001781472 -220.1092364326148 6.5
endloop
endfacet
facet normal 0 0 1
outer loop
vertex 216 -219.8632929000003 6.5
vertex 216 -215.23634830000012 6.5
vertex 159.5 -215.23634830000012 6.5
endloop
endfacet
facet normal 0 0 1
outer loop
vertex 216 -219.8632929000003 6.5
vertex 159.5 -215.23634830000012 6.5
vertex 159.50000016915578 -219.8632929000003 6.5
endloop
endfacet
facet normal 0 0 1
outer loop
vertex 216 -215.23634830000012 6.5
vertex 216 -214.89054863114237 6.5
vertex 159.46987725892606 -214.89054863114237 6.5
endloop
endfacet
facet normal 0 0 1
outer loop
vertex 216 -215.23634830000012 6.5
vertex 159.46987725892606 -214.89054863114237 6.5
vertex 159.5 -215.23634830000012 6.5
endloop
endfacet
facet normal 0 0 1
outer loop
vertex 216 -214.89054863114237 6.5
vertex 216 -214.55516903321222 6.5
vertex 159.38042086908044 -214.55516903321222 6.5
endloop
endfacet
facet normal 0 0 1
outer loop
vertex 216 -214.89054863114237 6.5
vertex 159.38042086908044 -214.55516903321222 6.5
vertex 159.46987725892606 -214.89054863114237 6.5
endloop
endfacet
facet normal 0 0 1
outer loop
vertex 216 -214.55516903321222 6.5
vertex 216 -214.2403071507149 6.5
vertex 159.23432529987332 -214.2403071507149 6.5
endloop
endfacet
facet normal 0 0 1
outer loop
vertex 216 -214.55516903321222 6.5
vertex 159.23432529987332 -214.2403071507149 6.5
vertex 159.38042086908044 -214.55516903321222 6.5
endloop
endfacet
facet normal 0 0 1
outer loop
vertex 216 -214.2403071507149 6.5
vertex 216 -213.95544677471509 6.5
vertex 159.03599101998907 -213.95544677471509 6.5
endloop
endfacet
facet normal 0 0 1
outer loop
vertex 216 -214.2403071507149 6.5
vertex 159.03599101998907 -213.95544677471509 6.5
vertex 159.23432529987332 -214.2403071507149 6.5
endloop
endfacet
facet normal 0 0 1
outer loop
vertex 216 -213.95544677471509 6.5
vertex 216 -213.70916803649934 6.5
vertex 158.79139195315807 -213.70916803649934 6.5
endloop
endfacet
facet normal 0 0 1
outer loop
vertex 216 -213.95544677471509 6.5
vertex 158.79139195315807 -213.70916803649934 6.5
vertex 159.03599101998907 -213.95544677471509 6.5
endloop
endfacet
facet normal 0 0 1
outer loop
vertex 216 -213.70916803649934 6.5
vertex 216 -213.5088889699001 6.5
vertex 158.5078955407043 -213.5088889699001 6.5
endloop
endfacet
facet normal 0 0 1
outer loop
vertex 216 -213.70916803649934 6.5
vertex 158.5078955407043 -213.5088889699001 6.5
vertex 158.79139195315807 -213.70916803649934 6.5
endloop
endfacet
facet normal 0 0 1
outer loop
vertex 216 -213.5088889699001 6.5
vertex 216 -213.3606420765575 6.5
vertex 158.1940408306777 -213.3606420765575 6.5
endloop
endfacet
facet normal 0 0 1
outer loop
vertex 216 -213.5088889699001 6.5
vertex 158.1940408306777 -213.3606420765575 6.5
vertex 158.5078955407043 -213.5088889699001 6.5
endloop
endfacet
facet normal 0 0 1
outer loop
vertex 216 -213.3606420765575 6.5
vertex 216 -213.2688926240714 6.5
vertex 157.85928127762384 -213.2688926240714 6.5
endloop
endfacet
facet normal 0 0 1
outer loop
vertex 216 -213.3606420765575 6.5
vertex 157.85928127762384 -213.2688926240714 6.5
vertex 158.1940408306777 -213.3606420765575 6.5
endloop
endfacet
facet normal 0 0 1
outer loop
vertex 216 -213.2688926240714 6.5
vertex 216 -213.23640415000003 6.5
vertex 157.5137000000003 -213.23640415000003 6.5
endloop
endfacet
facet normal 0 0 1
outer loop
vertex 216 -213.2688926240714 6.5
vertex 157.5137000000003 -213.23640415000003 6.5
vertex 157.85928127762384 -213.2688926240714 6.5
endloop
endfacet
facet normal 0 0 1
outer loop
vertex 216 -213.23640415000003 6.5
vertex 216 -149.25 6.5
vertex 103.59539120000014 -149.25 6.5
endloop
endfacet
facet normal 0 0 1
outer loop
vertex 216 -213.23640415000003 6.5
vertex 103.59539120000014 -149.25 6.5
vertex 88.50000000000007 -149.25 6.5
endloop
endfacet
facet normal 0 0 1
outer loop
vertex 216 -213.23640415000003 6.5
vertex 88.50000000000007 -149.25 6.5
vertex 88.15270364466615 -149.2803844939756 6.5
endloop
endfacet
facet normal 0 0 1
outer loop
vertex 216 -213.23640415000003 6.5
vertex 88.15270364466615 -149.2803844939756 6.5
vertex 87.81595971334875 -149.37061475842816 6.5
endloop
endfacet
facet normal 0 0 1
outer loop
vertex 216 -213.23640415000003 6.5
vertex 87.81595971334875 -149.37061475842816 6.5
vertex 87.49999999999996 -149.51794919243116 6.5
endloop
endfacet
facet normal 0 0 1
outer loop
vertex 216 -213.23640415000003 6.5
vertex 87.49999999999996 -149.51794919243116 6.5
vertex 87.21442478062691 -149.71791111376206 6.5
endloop
endfacet
facet normal 0 0 1
outer loop
vertex 216 -213.23640415000003 6.5
vertex 87.21442478062691 -149.71791111376206 6.5
vertex 86.96791111376217 -149.96442478062679 6.5
endloop
endfacet
facet normal 0 0 1
outer loop
vertex 216 -213.23640415000003 6.5
vertex 86.96791111376217 -149.96442478062679 6.5
vertex 86.76794919243098 -150.25000000000023 6.5
endloop
endfacet
facet normal 0 0 1
outer loop
vertex 216 -213.23640415000003 6.5
vertex 86.76794919243098 -150.25000000000023 6.5
vertex 86.62061475842825 -150.56595971334846 6.5
endloop
endfacet
facet normal 0 0 1
outer loop
vertex 216 -213.23640415000003 6.5
vertex 86.62061475842825 -150.56595971334846 6.5
vertex 86.53038449397559 -150.90270364466616 6.5
endloop
endfacet
facet normal 0 0 1
outer loop
vertex 216 -213.23640415000003 6.5
vertex 86.53038449397559 -150.90270364466616 6.5
vertex 86.5 -151.25000000000009 6.5
endloop
endfacet
facet normal 0 0 1
outer loop
vertex 216 -213.23640415000003 6.5
vertex 86.5 -151.25000000000009 6.5
vertex 86.5000008 -210.76364740000017 6.5
endloop
endfacet
facet normal 0 0 1
outer loop
vertex 216 -213.23640415000003 6.5
vertex 86.5000008 -210.76364740000017 6.5
vertex 86.53012046732769 -211.10944540882053 6.5
endloop
endfacet
facet normal 0 0 1
outer loop
vertex 216 -213.23640415000003 6.5
vertex 86.53012046732769 -211.10944540882053 6.5
vertex 86.61957463287436 -211.444827891265 6.5
endloop
endfacet
facet normal 0 0 1
outer loop
vertex 216 -213.23640415000003 6.5
vertex 86.61957463287436 -211.444827891265 6.5
vertex 86.76566885985706 -211.75969283708562 6.5
endloop
endfacet
facet normal 0 0 1
outer loop
vertex 216 -213.23640415000003 6.5
vertex 86.76566885985706 -211.75969283708562 6.5
vertex 86.96400266388744 -212.0445562419714 6.5
endloop
endfacet
facet normal 0 0 1
outer loop
vertex 216 -213.23640415000003 6.5
vertex 86.96400266388744 -212.0445562419714 6.5
vertex 87.2086020593648 -212.29083777395493 6.5
endloop
endfacet
facet normal 0 0 1
outer loop
vertex 216 -213.23640415000003 6.5
vertex 87.2086020593648 -212.29083777395493 6.5
vertex 87.49209950108707 -212.49111922042857 6.5
endloop
endfacet
facet normal 0 0 1
outer loop
vertex 216 -213.23640415000003 6.5
vertex 87.49209950108707 -212.49111922042857 6.5
vertex 87.80595580107642 -212.6393679311169 6.5
endloop
endfacet
facet normal 0 0 1
outer loop
vertex 216 -213.23640415000003 6.5
vertex 87.80595580107642 -212.6393679311169 6.5
vertex 88.14071733630803 -212.73111852672122 6.5
endloop
endfacet
facet normal 0 0 1
outer loop
vertex 216 -213.23640415000003 6.5
vertex 88.14071733630803 -212.73111852672122 6.5
vertex 88.48630159999988 -212.7636048 6.5
endloop
endfacet
facet normal 0 0 1
outer loop
vertex 216 -213.23640415000003 6.5
vertex 88.48630159999988 -212.7636048 6.5
vertex 157.5137000000003 -213.23640415000003 6.5
endloop
endfacet
facet normal 0 0 1
outer loop
vertex 216 -149.25 6.5
vertex 216 -149.2400501064473 6.5
vertex 103.79466982490506 -149.2400501064473 6.5
endloop
endfacet
facet normal 0 0 1
outer loop
vertex 216 -149.25 6.5
vertex 103.79466982490506 -149.2400501064473 6.5
vertex 103.59539120000014 -149.25 6.5
endloop
endfacet
facet normal 0 0 1
outer loop
vertex 216 -149.2400501064473 6.5
vertex 216 -149.21028863754034 6.5
vertex 103.99196545170096 -149.21028863754034 6.5
endloop
endfacet
facet normal 0 0 1
outer loop
vertex 216 -149.2400501064473 6.5
vertex 103.99196545170096 -149.21028863754034 6.5
vertex 103.79466982490506 -149.2400501064473 6.5
endloop
endfacet
facet normal 0 0 1
outer loop
vertex 216 -149.21028863754034 6.5
vertex 216 -149.16101680404063 6.5
vertex 104.18531383107842 -149.16101680404063 6.5
endloop
endfacet
facet normal 0 0 1
outer loop
vertex 216 -149.21028863754034 6.5
vertex 104.18531383107842 -149.16101680404063 6.5
vertex 103.99196545170096 -149.21028863754034 6.5
endloop
endfacet
facet normal 0 0 1
outer loop
vertex 216 -149.16101680404063 6.5
vertex 216 -149.092725 6.5
vertex 104.37279059999993 -149.092725 6.5
endloop
endfacet
facet normal 0 0 1
outer loop
vertex 216 -149.16101680404063 6.5
vertex 104.37279059999993 -149.092725 6.5
vertex 104.18531383107842 -149.16101680404063 6.5
endloop
endfacet
facet normal 0 0 1
outer loop
vertex 216 -149.092725 6.5
vertex 216 -137.74999999999997 6.5
vertex 215.96961550602444 -137.4027036446663 6.5
endloop
endfacet
facet normal 0 0 1
outer loop
vertex 216 -149.092725 6.5
vertex 215.96961550602444 -137.4027036446663 6.5
vertex 215.87938524157178 -137.0659597133486 6.5
endloop
endfacet
facet normal 0 0 1
outer loop
vertex 216 -149.092725 6.5
vertex 215.87938524157178 -137.0659597133486 6.5
vertex 215.73205080756884 -136.74999999999994 6.5
endloop
endfacet
facet normal 0 0 1
outer loop
vertex 216 -149.092725 6.5
vertex 215.73205080756884 -136.74999999999994 6.5
vertex 215.53208888623791 -136.46442478062687 6.5
endloop
endfacet
facet normal 0 0 1
outer loop
vertex 216 -149.092725 6.5
vertex 215.53208888623791 -136.46442478062687 6.5
vertex 215.28557521937321 -136.21791111376217 6.5
endloop
endfacet
facet normal 0 0 1
outer loop
vertex 216 -149.092725 6.5
vertex 215.28557521937321 -136.21791111376217 6.5
vertex 214.99999999999994 -136.0179491924311 6.5
endloop
endfacet
facet normal 0 0 1
outer loop
vertex 216 -149.092725 6.5
vertex 214.99999999999994 -136.0179491924311 6.5
vertex 214.68404028665137 -135.87061475842822 6.5
endloop
endfacet
facet normal 0 0 1
outer loop
vertex 216 -149.092725 6.5
vertex 214.68404028665137 -135.87061475842822 6.5
vertex 214.3472963553338 -135.7803844939756 6.5
endloop
endfacet
facet normal 0 0 1
outer loop
vertex 216 -149.092725 6.5
vertex 214.3472963553338 -135.7803844939756 6.5
vertex 213.99999999999986 -135.75 6.5
endloop
endfacet
facet normal 0 0 1
outer loop
vertex 216 -149.092725 6.5
vertex 213.99999999999986 -135.75 6.5
vertex 136.40460895000015 -135.74999584999998 6.5
endloop
endfacet
facet normal 0 0 1
outer loop
vertex 216 -149.092725 6.5
vertex 136.40460895000015 -135.74999584999998 6.5
vertex 136.20532972509494 -135.75995074355268 6.5
endloop
endfacet
facet normal 0 0 1
outer loop
vertex 216 -149.092725 6.5
vertex 136.20532972509494 -135.75995074355268 6.5
vertex 136.00803409829922 -135.78971221245962 6.5
endloop
endfacet
facet normal 0 0 1
outer loop
vertex 216 -149.092725 6.5
vertex 136.00803409829922 -135.78971221245962 6.5
vertex 135.81468571892142 -135.83898404595942 6.5
endloop
endfacet
facet normal 0 0 1
outer loop
vertex 216 -149.092725 6.5
vertex 135.81468571892142 -135.83898404595942 6.5
vertex 135.6272078999998 -135.90727170000005 6.5
endloop
endfacet
facet normal 0 0 1
outer loop
vertex 216 -149.092725 6.5
vertex 135.6272078999998 -135.90727170000005 6.5
vertex 104.37279059999993 -149.092725 6.5
endloop
endfacet
facet normal -0.996228077501965 -0.08677336916784381 0
outer loop
vertex 86.53012046732769 -211.10944540882053 6.5
vertex 86.5000008 -210.76364740000017 6.5
vertex 86.50000079999998 -210.76364740000017 0
endloop
endfacet
facet normal -0.996228077501965 -0.08677336916784381 0
outer loop
vertex 86.53012046732769 -211.10944540882053 6.5
vertex 86.50000079999998 -210.76364740000017 0
vertex 86.53012046732769 -211.10944540882056 0
endloop
endfacet
facet normal -0.966221427511956 -0.2577133155596699 0
outer loop
vertex 86.61957463287436 -211.444827891265 6.5
vertex 86.53012046732769 -211.10944540882053 6.5
vertex 86.53012046732769 -211.10944540882056 0
endloop
endfacet
facet normal -0.966221427511956 -0.2577133155596699 0
outer loop
vertex 86.61957463287436 -211.444827891265 6.5
vertex 86.53012046732769 -211.10944540882056 0
vertex 86.61957463287436 -211.444827891265 0
endloop
endfacet
facet normal -0.907111353004602 -0.4208907141410469 0
outer loop
vertex 86.76566885985706 -211.75969283708562 6.5
vertex 86.61957463287436 -211.444827891265 6.5
vertex 86.61957463287436 -211.444827891265 0
endloop
endfacet
facet normal -0.907111353004602 -0.4208907141410469 0
outer loop
vertex 86.76566885985706 -211.75969283708562 6.5
vertex 86.61957463287436 -211.444827891265 0
vertex 86.76566885985703 -211.75969283708557 0
endloop
endfacet
facet normal -0.8206783005138162 -0.5713905206299404 0
outer loop
vertex 86.96400266388744 -212.0445562419714 6.5
vertex 86.76566885985706 -211.75969283708562 6.5
vertex 86.76566885985703 -211.75969283708557 0
endloop
endfacet
facet normal -0.8206783005138162 -0.5713905206299404 0
outer loop
vertex 86.96400266388744 -212.0445562419714 6.5
vertex 86.76566885985703 -211.75969283708557 0
vertex 86.96400266388744 -212.04455624197138 0
endloop
endfacet
facet normal -0.7095257082861518 -0.7046795507754107 0
outer loop
vertex 87.2086020593648 -212.29083777395493 6.5
vertex 86.96400266388744 -212.0445562419714 6.5
vertex 86.96400266388744 -212.04455624197138 0
endloop
endfacet
facet normal -0.7095257082861518 -0.7046795507754107 0
outer loop
vertex 87.2086020593648 -212.29083777395493 6.5
vertex 86.96400266388744 -212.04455624197138 0
vertex 87.20860205936494 -212.29083777395508 0
endloop
endfacet
facet normal -0.5770015884704117 -0.8167430237857081 0
outer loop
vertex 87.49209950108707 -212.49111922042857 6.5
vertex 87.2086020593648 -212.29083777395493 6.5
vertex 87.20860205936494 -212.29083777395508 0
endloop
endfacet
facet normal -0.5770015884704117 -0.8167430237857081 0
outer loop
vertex 87.49209950108707 -212.49111922042857 6.5
vertex 87.20860205936494 -212.29083777395508 0
vertex 87.49209950108681 -212.49111922042843 0
endloop
endfacet
facet normal -0.4270976820982331 -0.9042054909954466 0
outer loop
vertex 87.80595580107642 -212.6393679311169 6.5
vertex 87.49209950108707 -212.49111922042857 6.5
vertex 87.49209950108681 -212.49111922042843 0
endloop
endfacet
facet normal -0.4270976820982331 -0.9042054909954466 0
outer loop
vertex 87.80595580107642 -212.6393679311169 6.5
vertex 87.49209950108681 -212.49111922042843 0
vertex 87.80595580107652 -212.63936793111694 0
endloop
endfacet
facet normal -0.2643292243938337 -0.9644325072970915 0
outer loop
vertex 88.14071733630803 -212.73111852672122 6.5
vertex 87.80595580107642 -212.6393679311169 6.5
vertex 87.80595580107652 -212.63936793111694 0
endloop
endfacet
facet normal -0.2643292243938337 -0.9644325072970915 0
outer loop
vertex 88.14071733630803 -212.73111852672122 6.5
vertex 87.80595580107652 -212.63936793111694 0
vertex 88.14071733630819 -212.73111852672125 0
endloop
endfacet
facet normal -0.09359130236225612 -0.9956107010886017 0
outer loop
vertex 88.48630159999988 -212.7636048 6.5
vertex 88.14071733630803 -212.73111852672122 6.5
vertex 88.14071733630819 -212.73111852672125 0
endloop
endfacet
facet normal -0.09359130236225612 -0.9956107010886017 0
outer loop
vertex 88.48630159999988 -212.7636048 6.5
vertex 88.14071733630819 -212.73111852672125 0
vertex 88.4863015999997 -212.7636048 0
endloop
endfacet
facet normal -0.0068492840623264346 -0.9999765433788104 0
outer loop
vertex 157.5137000000003 -213.23640415000003 6.5
vertex 88.48630159999988 -212.7636048 6.5
vertex 88.4863015999997 -212.7636048 0
endloop
endfacet
facet normal -0.0068492840623264346 -0.9999765433788104 0
outer loop
vertex 157.5137000000003 -213.23640415000003 6.5
vertex 88.4863015999997 -212.7636048 0
vertex 157.51370000000068 -213.23640415000003 0
endloop
endfacet
facet normal -0.09359838885558247 -0.9956100349050523 0
outer loop
vertex 157.85928127762384 -213.2688926240714 6.5
vertex 157.5137000000003 -213.23640415000003 6.5
vertex 157.51370000000068 -213.23640415000003 0
endloop
endfacet
facet normal -0.09359838885558247 -0.9956100349050523 0
outer loop
vertex 157.85928127762384 -213.2688926240714 6.5
vertex 157.51370000000068 -213.23640415000003 0
vertex 157.85928127762415 -213.26889262407144 0
endloop
endfacet
facet normal -0.2643276169936254 -0.9644329478478384 0
outer loop
vertex 158.1940408306777 -213.3606420765575 6.5
vertex 157.85928127762384 -213.2688926240714 6.5
vertex 157.85928127762415 -213.26889262407144 0
endloop
endfacet
facet normal -0.2643276169936254 -0.9644329478478384 0
outer loop
vertex 158.1940408306777 -213.3606420765575 6.5
vertex 157.85928127762415 -213.26889262407144 0
vertex 158.19404083067766 -213.36064207655747 0
endloop
endfacet
facet normal -0.42709517040458367 -0.9042066773791706 0
outer loop
vertex 158.5078955407043 -213.5088889699001 6.5
vertex 158.1940408306777 -213.3606420765575 6.5
vertex 158.19404083067766 -213.36064207655747 0
endloop
endfacet
facet normal -0.42709517040458367 -0.9042066773791706 0
outer loop
vertex 158.5078955407043 -213.5088889699001 6.5
vertex 158.19404083067766 -213.36064207655747 0
vertex 158.50789554070442 -213.50888896990017 0
endloop
endfacet
facet normal -0.5769984122355252 -0.816745267680005 0
outer loop
vertex 158.79139195315807 -213.70916803649934 6.5
vertex 158.5078955407043 -213.5088889699001 6.5
vertex 158.50789554070442 -213.50888896990017 0
endloop
endfacet
facet normal -0.5769984122355252 -0.816745267680005 0
outer loop
vertex 158.79139195315807 -213.70916803649934 6.5
vertex 158.50789554070442 -213.50888896990017 0
vertex 158.7913919531581 -213.70916803649936 0
endloop
endfacet
facet normal -0.709522184874039 -0.7046830984006713 0
outer loop
vertex 159.03599101998907 -213.95544677471509 6.5
vertex 158.79139195315807 -213.70916803649934 6.5
vertex 158.7913919531581 -213.70916803649936 0
endloop
endfacet
facet normal -0.709522184874039 -0.7046830984006713 0
outer loop
vertex 159.03599101998907 -213.95544677471509 6.5
vertex 158.7913919531581 -213.70916803649936 0
vertex 159.035991019989 -213.955446774715 0
endloop
endfacet
facet normal -0.8206748086640954 -0.5713955358804884 0
outer loop
vertex 159.23432529987332 -214.2403071507149 6.5
vertex 159.03599101998907 -213.95544677471509 6.5
vertex 159.035991019989 -213.955446774715 0
endloop
endfacet
facet normal -0.8206748086640954 -0.5713955358804884 0
outer loop
vertex 159.23432529987332 -214.2403071507149 6.5
vertex 159.035991019989 -213.955446774715 0
vertex 159.23432529987323 -214.24030715071478 0
endloop
endfacet
facet normal -0.9071083132128227 -0.42089726549383455 0
outer loop
vertex 159.38042086908044 -214.55516903321222 6.5
vertex 159.23432529987332 -214.2403071507149 6.5
vertex 159.23432529987323 -214.24030715071478 0
endloop
endfacet
facet normal -0.9071083132128227 -0.42089726549383455 0
outer loop
vertex 159.38042086908044 -214.55516903321222 6.5
vertex 159.23432529987323 -214.24030715071478 0
vertex 159.38042086908047 -214.55516903321228 0
endloop
endfacet
facet normal -0.9662192798667742 -0.2577213673984603 0
outer loop
vertex 159.46987725892606 -214.89054863114237 6.5
vertex 159.38042086908044 -214.55516903321222 6.5
vertex 159.38042086908047 -214.55516903321228 0
endloop
endfacet
facet normal -0.9662192798667742 -0.2577213673984603 0
outer loop
vertex 159.46987725892606 -214.89054863114237 6.5
vertex 159.38042086908047 -214.55516903321228 0
vertex 159.46987725892606 -214.89054863114245 0
endloop
endfacet
facet normal -0.9962273479734691 -0.08678174433455858 0
outer loop
vertex 159.5 -215.23634830000012 6.5
vertex 159.46987725892606 -214.89054863114237 6.5
vertex 159.46987725892606 -214.89054863114245 0
endloop
endfacet
facet normal -0.9962273479734691 -0.08678174433455858 0
outer loop
vertex 159.5 -215.23634830000012 6.5
vertex 159.46987725892606 -214.89054863114245 0
vertex 159.5 -215.23634830000017 0
endloop
endfacet
facet normal 0 0 1
outer loop
vertex 159.50000119999999 -248.0601345999999 6.5
vertex 159.500000211426 -221.01951645000005 6.5
vertex 159.50000020376865 -220.81006404929025 6.5
endloop
endfacet
facet normal 0 0 1
outer loop
vertex 159.50000119999999 -248.0601345999999 6.5
vertex 159.50000020376865 -220.81006404929025 6.5
vertex 159.50000019558593 -220.58624050664227 6.5
endloop
endfacet
facet normal 0 0 1
outer loop
vertex 159.50000119999999 -248.0601345999999 6.5
vertex 159.50000019558593 -220.58624050664227 6.5
vertex 159.500000187002 -220.35144328837274 6.5
endloop
endfacet
facet normal 0 0 1
outer loop
vertex 159.50000119999999 -248.0601345999999 6.5
vertex 159.500000187002 -220.35144328837274 6.5
vertex 159.5000001781472 -220.1092364326148 6.5
endloop
endfacet
facet normal 0 0 1
outer loop
vertex 159.50000119999999 -248.0601345999999 6.5
vertex 159.5000001781472 -220.1092364326148 6.5
vertex 159.50000016915578 -219.8632929000003 6.5
endloop
endfacet
facet normal 0 0 1
outer loop
vertex 159.50000119999999 -248.0601345999999 6.5
vertex 159.50000016915578 -219.8632929000003 6.5
vertex 159.5 -215.23634830000012 6.5
endloop
endfacet
facet normal 0 0 1
outer loop
vertex 159.50000119999999 -248.0601345999999 6.5
vertex 159.5 -215.23634830000012 6.5
vertex 159.5 -215.23634830000017 0
endloop
endfacet
facet normal 0 0 1
outer loop
vertex 159.50000119999999 -248.0601345999999 6.5
vertex 159.5 -215.23634830000017 0
vertex 159.50000016915575 -219.86329289999975 0
endloop
endfacet
facet normal 0 0 1
outer loop
vertex 159.50000119999999 -248.0601345999999 6.5
vertex 159.50000016915575 -219.86329289999975 0
vertex 159.50000017814716 -220.10923643261498 0
endloop
endfacet
facet normal 0 0 1
outer loop
vertex 159.50000119999999 -248.0601345999999 6.5
vertex 159.50000017814716 -220.10923643261498 0
vertex 159.50000018700197 -220.351443288373 0
endloop
endfacet
facet normal 0 0 1
outer loop
vertex 159.50000119999999 -248.0601345999999 6.5
vertex 159.50000018700197 -220.351443288373 0
vertex 159.5000001955859 -220.58624050664227 0
endloop
endfacet
facet normal 0 0 1
outer loop
vertex 159.50000119999999 -248.0601345999999 6.5
vertex 159.5000001955859 -220.58624050664227 0
vertex 159.50000020376862 -220.81006404929025 0
endloop
endfacet
facet normal 0 0 1
outer loop
vertex 159.50000119999999 -248.0601345999999 6.5
vertex 159.50000020376862 -220.81006404929025 0
vertex 159.50000021142597 -221.01951645000005 0
endloop
endfacet
facet normal 0 0 1
outer loop
vertex 159.50000119999999 -248.0601345999999 6.5
vertex 159.50000021142597 -221.01951645000005 0
vertex 159.50000119999999 -248.06013460000003 0
endloop
endfacet
facet normal -0.9970618584583766 -0.07660059012519581 0
outer loop
vertex 159.52346983433415 -248.36561109993883 6.5
vertex 159.50000119999999 -248.0601345999999 6.5
vertex 159.50000119999999 -248.06013460000003 0
endloop
endfacet
facet normal -0.9970618584583766 -0.07660059012519581 0
outer loop
vertex 159.52346983433415 -248.36561109993883 6.5
vertex 159.50000119999999 -248.06013460000003 0
vertex 159.52346983433415 -248.36561109993877 0
endloop
endfacet
facet normal -0.973663153181362 -0.22799136855795135 0
outer loop
vertex 159.5933210724419 -248.66391878228578 6.5
vertex 159.52346983433415 -248.36561109993883 6.5
vertex 159.52346983433415 -248.36561109993877 0
endloop
endfacet
facet normal -0.973663153181362 -0.22799136855795135 0
outer loop
vertex 159.5933210724419 -248.66391878228578 6.5
vertex 159.52346983433415 -248.36561109993877 0
vertex 159.59332107244197 -248.66391878228595 0
endloop
endfacet
facet normal -0.9274158187206779 -0.37403194941963813 0
outer loop
vertex 159.70791573856508 -248.94805735993546 6.5
vertex 159.5933210724419 -248.66391878228578 6.5
vertex 159.59332107244197 -248.66391878228595 0
endloop
endfacet
facet normal -0.9274158187206779 -0.37403194941963813 0
outer loop
vertex 159.70791573856508 -248.94805735993546 6.5
vertex 159.59332107244197 -248.66391878228595 0
vertex 159.707915738565 -248.9480573599353 0
endloop
endfacet
facet normal -0.8594051258832385 -0.511295247000806 0
outer loop
vertex 159.86456467781002 -249.21135904744568 6.5
vertex 159.70791573856508 -248.94805735993546 6.5
vertex 159.707915738565 -248.9480573599353 0
endloop
endfacet
facet normal -0.8594051258832385 -0.511295247000806 0
outer loop
vertex 159.86456467781002 -249.21135904744568 6.5
vertex 159.707915738565 -248.9480573599353 0
vertex 159.86456467781008 -249.21135904744574 0
endloop
endfacet
facet normal -0.7712270589640298 -0.6365601491781376 0
outer loop
vertex 160.0595918616521 -249.44764503174233 6.5
vertex 159.86456467781002 -249.21135904744568 6.5
vertex 159.86456467781008 -249.21135904744574 0
endloop
endfacet
facet normal -0.7712270589640298 -0.6365601491781376 0
outer loop
vertex 160.0595918616521 -249.44764503174233 6.5
vertex 159.86456467781008 -249.21135904744574 0
vertex 160.05959186165222 -249.44764503174244 0
endloop
endfacet
facet normal -0.6649508633140112 -0.7468871061800112 0
outer loop
vertex 160.28842065207274 -249.65137046826717 6.5
vertex 160.0595918616521 -249.44764503174233 6.5
vertex 160.05959186165222 -249.44764503174244 0
endloop
endfacet
facet normal -0.6649508633140112 -0.7468871061800112 0
outer loop
vertex 160.28842065207274 -249.65137046826717 6.5
vertex 160.05959186165222 -249.44764503174244 0
vertex 160.2884206520727 -249.65137046826715 0
endloop
endfacet
facet normal -0.543079286971803 -0.8396814205769937 0
outer loop
vertex 160.54568239999946 -249.8177591999997 6.5
vertex 160.28842065207274 -249.65137046826717 6.5
vertex 160.2884206520727 -249.65137046826715 0
endloop
endfacet
facet normal -0.543079286971803 -0.8396814205769937 0
outer loop
vertex 160.54568239999946 -249.8177591999997 6.5
vertex 160.2884206520727 -249.65137046826715 0
vertex 160.5456823999995 -249.8177591999997 0
endloop
endfacet
facet normal -0.4771588859256923 -0.8788170444308373 0
outer loop
vertex 193.69143605000068 -267.8144412000003 6.5
vertex 160.54568239999946 -249.8177591999997 6.5
vertex 160.5456823999995 -249.8177591999997 0
endloop
endfacet
facet normal -0.4771588859256923 -0.8788170444308373 0
outer loop
vertex 193.69143605000068 -267.8144412000003 6.5
vertex 160.5456823999995 -249.8177591999997 0
vertex 193.69143605000085 -267.8144412000004 0
endloop
endfacet
facet normal -0.40770154096552147 -0.9131152465567198 0
outer loop
vertex 193.9741503297561 -267.94067175845817 6.5
vertex 193.69143605000068 -267.8144412000003 6.5
vertex 193.69143605000085 -267.8144412000004 0
endloop
endfacet
facet normal -0.40770154096552147 -0.9131152465567198 0
outer loop
vertex 193.9741503297561 -267.94067175845817 6.5
vertex 193.69143605000085 -267.8144412000004 0
vertex 193.9741503297561 -267.94067175845817 0
endloop
endfacet
facet normal -0.2618831358855694 -0.9650995923420237 0
outer loop
vertex 194.27295974857984 -268.0217547350283 6.5
vertex 193.9741503297561 -267.94067175845817 6.5
vertex 193.9741503297561 -267.94067175845817 0
endloop
endfacet
facet normal -0.2618831358855694 -0.9650995923420237 0
outer loop
vertex 194.27295974857984 -268.0217547350283 6.5
vertex 193.9741503297561 -267.94067175845817 0
vertex 194.27295974857972 -268.02175473502825 0
endloop
endfacet
facet normal -0.10978860207853823 -0.9939549601735687 0
outer loop
vertex 194.58070322535926 -268.05574694540826 6.5
vertex 194.27295974857984 -268.0217547350283 6.5
vertex 194.27295974857972 -268.02175473502825 0
endloop
endfacet
facet normal -0.10978860207853823 -0.9939549601735687 0
outer loop
vertex 194.58070322535926 -268.05574694540826 6.5
vertex 194.27295974857972 -268.02175473502825 0
vertex 194.5807032253592 -268.0557469454082 0
endloop
endfacet
facet normal 0.04493705723848507 -0.9989898202117704 0
outer loop
vertex 194.89000557089557 -268.0418337533775 6.5
vertex 194.58070322535926 -268.05574694540826 6.5
vertex 194.5807032253592 -268.0557469454082 0
endloop
endfacet
facet normal 0.04493705723848507 -0.9989898202117704 0
outer loop
vertex 194.89000557089557 -268.0418337533775 6.5
vertex 194.5807032253592 -268.0557469454082 0
vertex 194.89000557089577 -268.04183375337743 0
endloop
endfacet
facet normal 0.19858578292689763 -0.9800835101251888 0
outer loop
vertex 195.1934542371085 -267.9803485938625 6.5
vertex 194.89000557089557 -268.0418337533775 6.5
vertex 194.89000557089577 -268.04183375337743 0
endloop
endfacet
facet normal 0.19858578292689763 -0.9800835101251888 0
outer loop
vertex 195.1934542371085 -267.9803485938625 6.5
vertex 194.89000557089577 -268.04183375337743 0
vertex 195.1934542371085 -267.9803485938625 0
endloop
endfacet
facet normal 0.3474753249707325 -0.9376891268093513 0
outer loop
vertex 195.48377696156297 -267.87276498204284 6.5
vertex 195.1934542371085 -267.9803485938625 6.5
vertex 195.1934542371085 -267.9803485938625 0
endloop
endfacet
facet normal 0.3474753249707325 -0.9376891268093513 0
outer loop
vertex 195.48377696156297 -267.87276498204284 6.5
vertex 195.1934542371085 -267.9803485938625 0
vertex 195.48377696156302 -267.8727649820428 0
endloop
endfacet
facet normal 0.48803997081393025 -0.8728212800384385 0
outer loop
vertex 195.75401209999967 -267.72166240000024 6.5
vertex 195.48377696156297 -267.87276498204284 6.5
vertex 195.48377696156302 -267.8727649820428 0
endloop
endfacet
facet normal 0.48803997081393025 -0.8728212800384385 0
outer loop
vertex 195.75401209999967 -267.72166240000024 6.5
vertex 195.48377696156302 -267.8727649820428 0
vertex 195.7540121 -267.7216624 0
endloop
endfacet
facet normal 0.5541291870904395 -0.8324306842100961 0
outer loop
vertex 230.53203645000008 -244.57076379999992 6.5
vertex 195.75401209999967 -267.72166240000024 6.5
vertex 195.7540121 -267.7216624 0
endloop
endfacet
facet normal 0.5541291870904395 -0.8324306842100961 0
outer loop
vertex 230.53203645000008 -244.57076379999992 6.5
vertex 195.7540121 -267.7216624 0
vertex 230.53203645000013 -244.5707637999999 0
endloop
endfacet
facet normal 0.6188721201312926 -0.7854917561147279 0
outer loop
vertex 230.78311068148724 -244.3729477939869 6.5
vertex 230.53203645000008 -244.57076379999992 6.5
vertex 230.53203645000013 -244.5707637999999 0
endloop
endfacet
facet normal 0.6188721201312926 -0.7854917561147279 0
outer loop
vertex 230.78311068148724 -244.3729477939869 6.5
vertex 230.53203645000013 -244.5707637999999 0
vertex 230.78311068148696 -244.37294779398712 0
endloop
endfacet
facet normal 0.7361040522873878 -0.6768683950415225 0
outer loop
vertex 230.99946459071577 -244.13765982592986 6.5
vertex 230.78311068148724 -244.3729477939869 6.5
vertex 230.78311068148696 -244.37294779398712 0
endloop
endfacet
facet normal 0.7361040522873878 -0.6768683950415225 0
outer loop
vertex 230.99946459071577 -244.13765982592986 6.5
vertex 230.78311068148696 -244.37294779398712 0
vertex 230.99946459071606 -244.1376598259295 0
endloop
endfacet
facet normal 0.8345341493833642 -0.5509562174193016 0
outer loop
vertex 231.1755719881456 -243.87090970592465 6.5
vertex 230.99946459071577 -244.13765982592986 6.5
vertex 230.99946459071606 -244.1376598259295 0
endloop
endfacet
facet normal 0.8345341493833642 -0.5509562174193016 0
outer loop
vertex 231.1755719881456 -243.87090970592465 6.5
vertex 230.99946459071606 -244.1376598259295 0
vertex 231.1755719881455 -243.87090970592487 0
endloop
endfacet
facet normal 0.9116482743963376 -0.4109713174787021 0
outer loop
vertex 231.30693467514473 -243.57951086169987 6.5
vertex 231.1755719881456 -243.87090970592465 6.5
vertex 231.1755719881455 -243.87090970592487 0
endloop
endfacet
facet normal 0.9116482743963376 -0.4109713174787021 0
outer loop
vertex 231.30693467514473 -243.57951086169987 6.5
vertex 231.1755719881455 -243.87090970592487 0
vertex 231.30693467514482 -243.57951086169967 0
endloop
endfacet
facet normal 0.9654767505465043 -0.2604892399969014 0
outer loop
vertex 231.39019733860846 -243.27090630757795 6.5
vertex 231.30693467514473 -243.57951086169987 6.5
vertex 231.30693467514482 -243.57951086169967 0
endloop
endfacet
facet normal 0.9654767505465043 -0.2604892399969014 0
outer loop
vertex 231.39019733860846 -243.27090630757795 6.5
vertex 231.30693467514482 -243.57951086169967 0
vertex 231.39019733860846 -243.27090630757803 0
endloop
endfacet
facet normal 0.9946446714915449 -0.10335365244381467 0
outer loop
vertex 231.42323325357086 -242.95297853233006 6.5
vertex 231.39019733860846 -243.27090630757795 6.5
vertex 231.39019733860846 -243.27090630757803 0
endloop
endfacet
facet normal 0.9946446714915449 -0.10335365244381467 0
outer loop
vertex 231.42323325357086 -242.95297853233006 6.5
vertex 231.39019733860846 -243.27090630757803 0
vertex 231.42323325357086 -242.95297853233023 0
endloop
endfacet
facet normal 0.9984070196799728 0.056421831357681605 0
outer loop
vertex 231.4051986047831 -242.63384816179982 6.5
vertex 231.42323325357086 -242.95297853233006 6.5
vertex 231.42323325357086 -242.95297853233023 0
endloop
endfacet
facet normal 0.9984070196799728 0.056421831357681605 0
outer loop
vertex 231.4051986047831 -242.63384816179982 6.5
vertex 231.42323325357086 -242.95297853233023 0
vertex 231.40519860478307 -242.63384816179973 0
endloop
endfacet
facet normal 0.9766676958580848 0.21475616840328407 0
outer loop
vertex 231.33655403974583 -242.32166653895473 6.5
vertex 231.4051986047831 -242.63384816179982 6.5
vertex 231.40519860478307 -242.63384816179973 0
endloop
endfacet
facet normal 0.9766676958580848 0.21475616840328407 0
outer loop
vertex 231.33655403974583 -242.32166653895473 6.5
vertex 231.40519860478307 -242.63384816179973 0
vertex 231.33655403974578 -242.32166653895456 0
endloop
endfacet
facet normal 0.9299819736717061 0.3676051259785131 0
outer loop
vertex 231.21905290268444 -242.02440751934188 6.5
vertex 231.33655403974583 -242.32166653895473 6.5
vertex 231.33655403974578 -242.32166653895456 0
endloop
endfacet
facet normal 0.9299819736717061 0.3676051259785131 0
outer loop
vertex 231.21905290268444 -242.02440751934188 6.5
vertex 231.33655403974578 -242.32166653895456 0
vertex 231.2190529026845 -242.024407519342 0
endloop
endfacet
facet normal 0.8595343326559931 0.5110780087086672 0
outer loop
vertex 231.05569290000028 -241.74966760000044 6.5
vertex 231.21905290268444 -242.02440751934188 6.5
vertex 231.2190529026845 -242.024407519342 0
endloop
endfacet
facet normal 0.8595343326559931 0.5110780087086672 0
outer loop
vertex 231.05569290000028 -241.74966760000044 6.5
vertex 231.2190529026845 -242.024407519342 0
vertex 231.05569290000025 -241.7496676000004 0
endloop
endfacet
facet normal 0.8159548388749606 0.5781156466629643 0
outer loop
vertex 216.36808500000006 -221.01951645000005 6.5
vertex 231.05569290000028 -241.74966760000044 6.5
vertex 231.05569290000025 -241.7496676000004 0
endloop
endfacet
facet normal 0.8159548388749606 0.5781156466629643 0
outer loop
vertex 216.36808500000006 -221.01951645000005 6.5
vertex 231.05569290000025 -241.7496676000004 0
vertex 216.36808500000004 -221.01951645000005 0
endloop
endfacet
facet normal 0.8500229463333122 0.5267456603588064 0
outer loop
vertex 216.23829068844464 -220.81006404929025 6.5
vertex 216.36808500000006 -221.01951645000005 6.5
vertex 216.36808500000004 -221.01951645000005 0
endloop
endfacet
facet normal 0.8500229463333122 0.5267456603588064 0
outer loop
vertex 216.23829068844464 -220.81006404929025 6.5
vertex 216.36808500000004 -221.01951645000005 0
vertex 216.23829068844464 -220.81006404929025 0
endloop
endfacet
facet normal 0.9083455073133361 0.4182205630330462 0
outer loop
vertex 216.13523782224712 -220.58624050664227 6.5
vertex 216.23829068844464 -220.81006404929025 6.5
vertex 216.23829068844464 -220.81006404929025 0
endloop
endfacet
facet normal 0.9083455073133361 0.4182205630330462 0
outer loop
vertex 216.13523782224712 -220.58624050664227 6.5
vertex 216.23829068844464 -220.81006404929025 0
vertex 216.1352378222471 -220.58624050664227 0
endloop
endfacet
facet normal 0.952880093937634 0.30334720466390674 0
outer loop
vertex 216.06049066331488 -220.35144328837274 6.5
vertex 216.13523782224712 -220.58624050664227 6.5
vertex 216.1352378222471 -220.58624050664227 0
endloop
endfacet
facet normal 0.952880093937634 0.30334720466390674 0
outer loop
vertex 216.06049066331488 -220.35144328837274 6.5
vertex 216.1352378222471 -220.58624050664227 0
vertex 216.06049066331494 -220.351443288373 0
endloop
endfacet
facet normal 0.982950706013193 0.18386927298536151 0
outer loop
vertex 216.01518381505906 -220.1092364326148 6.5
vertex 216.06049066331488 -220.35144328837274 6.5
vertex 216.06049066331494 -220.351443288373 0
endloop
endfacet
facet normal 0.982950706013193 0.18386927298536151 0
outer loop
vertex 216.01518381505906 -220.1092364326148 6.5
vertex 216.06049066331494 -220.351443288373 0
vertex 216.01518381505912 -220.10923643261498 0
endloop
endfacet
facet normal 0.9980997020752556 0.06161967800375118 0
outer loop
vertex 216 -219.8632929000003 6.5
vertex 216.01518381505906 -220.1092364326148 6.5
vertex 216.01518381505912 -220.10923643261498 0
endloop
endfacet
facet normal 0.9980997020752556 0.06161967800375118 0
outer loop
vertex 216 -219.8632929000003 6.5
vertex 216.01518381505912 -220.10923643261498 0
vertex 216 -219.86329289999975 0
endloop
endfacet
facet normal 1 0 0
outer loop
vertex 216 -215.23634830000017 0
vertex 216 -214.89054863114245 0
vertex 216 -214.55516903321228 0
endloop
endfacet
facet normal 1 0 0
outer loop
vertex 216 -215.23634830000017 0
vertex 216 -214.55516903321228 0
vertex 216 -214.24030715071478 0
endloop
endfacet
facet normal 1 0 0
outer loop
vertex 216 -215.23634830000017 0
vertex 216 -214.24030715071478 0
vertex 216 -213.955446774715 0
endloop
endfacet
facet normal 1 0 0
outer loop
vertex 216 -215.23634830000017 0
vertex 216 -213.955446774715 0
vertex 216 -213.70916803649936 0
endloop
endfacet
facet normal 1 0 0
outer loop
vertex 216 -215.23634830000017 0
vertex 216 -213.70916803649936 0
vertex 216 -213.50888896990017 0
endloop
endfacet
facet normal 1 0 0
outer loop
vertex 216 -215.23634830000017 0
vertex 216 -213.50888896990017 0
vertex 216 -213.36064207655747 0
endloop
endfacet
facet normal 1 0 0
outer loop
vertex 216 -215.23634830000017 0
vertex 216 -213.36064207655747 0
vertex 216 -213.26889262407144 0
endloop
endfacet
facet normal 1 0 0
outer loop
vertex 216 -215.23634830000017 0
vertex 216 -213.26889262407144 0
vertex 216 -213.23640415000003 0
endloop
endfacet
facet normal 1 0 0
outer loop
vertex 216 -215.23634830000017 0
vertex 216 -213.23640415000003 0
vertex 216 -149.25 0
endloop
endfacet
facet normal 1 0 0
outer loop
vertex 216 -215.23634830000017 0
vertex 216 -149.25 0
vertex 216 -149.24005010644737 0
endloop
endfacet
facet normal 1 0 0
outer loop
vertex 216 -215.23634830000017 0
vertex 216 -149.24005010644737 0
vertex 216 -149.21028863754034 0
endloop
endfacet
facet normal 1 0 0
outer loop
vertex 216 -215.23634830000017 0
vertex 216 -149.21028863754034 0
vertex 216 -149.16101680404066 0
endloop
endfacet
facet normal 1 0 0
outer loop
vertex 216 -215.23634830000017 0
vertex 216 -149.16101680404066 0
vertex 216 -149.09272499999992 0
endloop
endfacet
facet normal 1 0 0
outer loop
vertex 216 -215.23634830000017 0
vertex 216 -149.09272499999992 0
vertex 216 -137.75 0
endloop
endfacet
facet normal 1 0 0
outer loop
vertex 216 -215.23634830000017 0
vertex 216 -137.75 0
vertex 216 -137.74999999999997 6.5
endloop
endfacet
facet normal 1 0 0
outer loop
vertex 216 -215.23634830000017 0
vertex 216 -137.74999999999997 6.5
vertex 216 -149.092725 6.5
endloop
endfacet
facet normal 1 0 0
outer loop
vertex 216 -215.23634830000017 0
vertex 216 -149.092725 6.5
vertex 216 -149.16101680404063 6.5
endloop
endfacet
facet normal 1 0 0
outer loop
vertex 216 -215.23634830000017 0
vertex 216 -149.16101680404063 6.5
vertex 216 -149.21028863754034 6.5
endloop
endfacet
facet normal 1 0 0
outer loop
vertex 216 -215.23634830000017 0
vertex 216 -149.21028863754034 6.5
vertex 216 -149.2400501064473 6.5
endloop
endfacet
facet normal 1 0 0
outer loop
vertex 216 -215.23634830000017 0
vertex 216 -149.2400501064473 6.5
vertex 216 -149.25 6.5
endloop
endfacet
facet normal 1 0 0
outer loop
vertex 216 -215.23634830000017 0
vertex 216 -149.25 6.5
vertex 216 -213.23640415000003 6.5
endloop
endfacet
facet normal 1 0 0
outer loop
vertex 216 -215.23634830000017 0
vertex 216 -213.23640415000003 6.5
vertex 216 -213.2688926240714 6.5
endloop
endfacet
facet normal 1 0 0
outer loop
vertex 216 -215.23634830000017 0
vertex 216 -213.2688926240714 6.5
vertex 216 -213.3606420765575 6.5
endloop
endfacet
facet normal 1 0 0
outer loop
vertex 216 -215.23634830000017 0
vertex 216 -213.3606420765575 6.5
vertex 216 -213.5088889699001 6.5
endloop
endfacet
facet normal 1 0 0
outer loop
vertex 216 -215.23634830000017 0
vertex 216 -213.5088889699001 6.5
vertex 216 -213.70916803649934 6.5
endloop
endfacet
facet normal 1 0 0
outer loop
vertex 216 -215.23634830000017 0
vertex 216 -213.70916803649934 6.5
vertex 216 -213.95544677471509 6.5
endloop
endfacet
facet normal 1 0 0
outer loop
vertex 216 -215.23634830000017 0
vertex 216 -213.95544677471509 6.5
vertex 216 -214.2403071507149 6.5
endloop
endfacet
facet normal 1 0 0
outer loop
vertex 216 -215.23634830000017 0
vertex 216 -214.2403071507149 6.5
vertex 216 -214.55516903321222 6.5
endloop
endfacet
facet normal 1 0 0
outer loop
vertex 216 -215.23634830000017 0
vertex 216 -214.55516903321222 6.5
vertex 216 -214.89054863114237 6.5
endloop
endfacet
facet normal 1 0 0
outer loop
vertex 216 -215.23634830000017 0
vertex 216 -214.89054863114237 6.5
vertex 216 -215.23634830000012 6.5
endloop
endfacet
facet normal 1 0 0
outer loop
vertex 216 -215.23634830000017 0
vertex 216 -215.23634830000012 6.5
vertex 216 -219.8632929000003 6.5
endloop
endfacet
facet normal 1 0 0
outer loop
vertex 216 -215.23634830000017 0
vertex 216 -219.8632929000003 6.5
vertex 216 -219.86329289999975 0
endloop
endfacet
facet normal 0.9961946980917434 0.08715574274768315 0
outer loop
vertex 215.96961550602444 -137.4027036446663 6.5
vertex 216 -137.74999999999997 6.5
vertex 216 -137.75 0
endloop
endfacet
facet normal 0.9961946980917434 0.08715574274768315 0
outer loop
vertex 215.96961550602444 -137.4027036446663 6.5
vertex 216 -137.75 0
vertex 215.9696155060244 -137.40270364466616 0
endloop
endfacet
facet normal 0.9659258262890631 0.2588190451025404 0
outer loop
vertex 215.87938524157178 -137.0659597133486 6.5
vertex 215.96961550602444 -137.4027036446663 6.5
vertex 215.9696155060244 -137.40270364466616 0
endloop
endfacet
facet normal 0.9659258262890631 0.2588190451025404 0
outer loop
vertex 215.87938524157178 -137.0659597133486 6.5
vertex 215.9696155060244 -137.40270364466616 0
vertex 215.8793852415718 -137.0659597133487 0
endloop
endfacet
facet normal 0.9063077870366456 0.42261826174070904 0
outer loop
vertex 215.73205080756884 -136.74999999999994 6.5
vertex 215.87938524157178 -137.0659597133486 6.5
vertex 215.8793852415718 -137.0659597133487 0
endloop
endfacet
facet normal 0.9063077870366456 0.42261826174070904 0
outer loop
vertex 215.73205080756884 -136.74999999999994 6.5
vertex 215.8793852415718 -137.0659597133487 0
vertex 215.73205080756887 -136.75 0
endloop
endfacet
facet normal 0.8191520442889821 0.5735764363510599 0
outer loop
vertex 215.53208888623791 -136.46442478062687 6.5
vertex 215.73205080756884 -136.74999999999994 6.5
vertex 215.73205080756887 -136.75 0
endloop
endfacet
facet normal 0.8191520442889821 0.5735764363510599 0
outer loop
vertex 215.53208888623791 -136.46442478062687 6.5
vertex 215.73205080756887 -136.75 0
vertex 215.53208888623783 -136.46442478062676 0
endloop
endfacet
facet normal 0.7071067811865476 0.7071067811865476 0
outer loop
vertex 215.28557521937321 -136.21791111376217 6.5
vertex 215.53208888623791 -136.46442478062687 6.5
vertex 215.53208888623783 -136.46442478062676 0
endloop
endfacet
facet normal 0.7071067811865476 0.7071067811865476 0
outer loop
vertex 215.28557521937321 -136.21791111376217 6.5
vertex 215.53208888623783 -136.46442478062676 0
vertex 215.28557521937327 -136.2179111137622 0
endloop
endfacet
facet normal 0.5735764363510596 0.8191520442889824 0
outer loop
vertex 214.99999999999994 -136.0179491924311 6.5
vertex 215.28557521937321 -136.21791111376217 6.5
vertex 215.28557521937327 -136.2179111137622 0
endloop
endfacet
facet normal 0.5735764363510596 0.8191520442889824 0
outer loop
vertex 214.99999999999994 -136.0179491924311 6.5
vertex 215.28557521937327 -136.2179111137622 0
vertex 215.00000000000003 -136.01794919243116 0
endloop
endfacet
facet normal 0.4226182617407234 0.9063077870366388 0
outer loop
vertex 214.68404028665137 -135.87061475842822 6.5
vertex 214.99999999999994 -136.0179491924311 6.5
vertex 215.00000000000003 -136.01794919243116 0
endloop
endfacet
facet normal 0.4226182617407234 0.9063077870366388 0
outer loop
vertex 214.68404028665137 -135.87061475842822 6.5
vertex 215.00000000000003 -136.01794919243116 0
vertex 214.6840402866513 -135.8706147584282 0
endloop
endfacet
facet normal 0.2588190451025413 0.9659258262890629 0
outer loop
vertex 214.3472963553338 -135.7803844939756 6.5
vertex 214.68404028665137 -135.87061475842822 6.5
vertex 214.6840402866513 -135.8706147584282 0
endloop
endfacet
facet normal 0.2588190451025413 0.9659258262890629 0
outer loop
vertex 214.3472963553338 -135.7803844939756 6.5
vertex 214.6840402866513 -135.8706147584282 0
vertex 214.34729635533392 -135.78038449397562 0
endloop
endfacet
facet normal 0.087155742747683 0.9961946980917434 0
outer loop
vertex 213.99999999999986 -135.75 6.5
vertex 214.3472963553338 -135.7803844939756 6.5
vertex 214.34729635533392 -135.78038449397562 0
endloop
endfacet
facet normal 0.087155742747683 0.9961946980917434 0
outer loop
vertex 213.99999999999986 -135.75 6.5
vertex 214.34729635533392 -135.78038449397562 0
vertex 213.99999999999974 -135.75 0
endloop
endfacet
facet normal 5.348255172066274e-8 0.9999999999999987 0
outer loop
vertex 136.40460895000015 -135.74999584999998 6.5
vertex 213.99999999999986 -135.75 6.5
vertex 213.99999999999974 -135.75 0
endloop
endfacet
facet normal 5.348255172066274e-8 0.9999999999999987 0
outer loop
vertex 136.40460895000015 -135.74999584999998 6.5
vertex 213.99999999999974 -135.75 0
vertex 136.40460895000024 -135.74999585 0
endloop
endfacet
facet normal -0.049892284444098337 0.9987546044714634 0
outer loop
vertex 136.20532972509494 -135.75995074355268 6.5
vertex 136.40460895000015 -135.74999584999998 6.5
vertex 136.40460895000024 -135.74999585 0
endloop
endfacet
facet normal -0.049892284444098337 0.9987546044714634 0
outer loop
vertex 136.20532972509494 -135.75995074355268 6.5
vertex 136.40460895000024 -135.74999585 0
vertex 136.2053297250949 -135.7599507435527 0
endloop
endfacet
facet normal -0.14915957306072855 0.9888131379408049 0
outer loop
vertex 136.00803409829922 -135.78971221245962 6.5
vertex 136.20532972509494 -135.75995074355268 6.5
vertex 136.2053297250949 -135.7599507435527 0
endloop
endfacet
facet normal -0.14915957306072855 0.9888131379408049 0
outer loop
vertex 136.00803409829922 -135.78971221245962 6.5
vertex 136.2053297250949 -135.7599507435527 0
vertex 136.00803409829894 -135.7897122124597 0
endloop
endfacet
facet normal -0.24694230219978328 0.9690301849706597 0
outer loop
vertex 135.81468571892142 -135.83898404595942 6.5
vertex 136.00803409829922 -135.78971221245962 6.5
vertex 136.00803409829894 -135.7897122124597 0
endloop
endfacet
facet normal -0.24694230219978328 0.9690301849706597 0
outer loop
vertex 135.81468571892142 -135.83898404595942 6.5
vertex 136.00803409829894 -135.7897122124597 0
vertex 135.81468571892134 -135.83898404595945 0
endloop
endfacet
facet normal -0.3422472021834142 0.9396099470512354 0
outer loop
vertex 135.6272078999998 -135.90727170000005 6.5
vertex 135.81468571892142 -135.83898404595942 6.5
vertex 135.81468571892134 -135.83898404595945 0
endloop
endfacet
facet normal -0.3422472021834142 0.9396099470512354 0
outer loop
vertex 135.6272078999998 -135.90727170000005 6.5
vertex 135.81468571892134 -135.83898404595945 0
vertex 135.62720790000046 -135.90727169999982 0
endloop
endfacet
facet normal -0.3887004053414127 0.9213642031723511 0
outer loop
vertex 104.37279059999993 -149.092725 6.5
vertex 135.6272078999998 -135.90727170000005 6.5
vertex 135.62720790000046 -135.90727169999982 0
endloop
endfacet
facet normal -0.3887004053414127 0.9213642031723511 0
outer loop
vertex 104.37279059999993 -149.092725 6.5
vertex 135.62720790000046 -135.90727169999982 0
vertex 104.37279060000012 -149.09272499999992 0
endloop
endfacet
facet normal -0.3422672572404495 0.9396026418763945 0
outer loop
vertex 104.18531383107842 -149.16101680404063 6.5
vertex 104.37279059999993 -149.092725 6.5
vertex 104.37279060000012 -149.09272499999992 0
endloop
endfacet
facet normal -0.3422672572404495 0.9396026418763945 0
outer loop
vertex 104.18531383107842 -149.16101680404063 6.5
vertex 104.37279060000012 -149.09272499999992 0
vertex 104.18531383107825 -149.16101680404066 0
endloop
endfacet
facet normal -0.24694230219984006 0.9690301849706453 0
outer loop
vertex 103.99196545170096 -149.21028863754034 6.5
vertex 104.18531383107842 -149.16101680404063 6.5
vertex 104.18531383107825 -149.16101680404066 0
endloop
endfacet
facet normal -0.24694230219984006 0.9690301849706453 0
outer loop
vertex 103.99196545170096 -149.21028863754034 6.5
vertex 104.18531383107825 -149.16101680404066 0
vertex 103.99196545170088 -149.21028863754034 0
endloop
endfacet
facet normal -0.14915957306075686 0.9888131379408007 0
outer loop
vertex 103.79466982490506 -149.2400501064473 6.5
vertex 103.99196545170096 -149.21028863754034 6.5
vertex 103.99196545170088 -149.21028863754034 0
endloop
endfacet
facet normal -0.14915957306075686 0.9888131379408007 0
outer loop
vertex 103.79466982490506 -149.2400501064473 6.5
vertex 103.99196545170088 -149.21028863754034 0
vertex 103.79466982490459 -149.24005010644737 0
endloop
endfacet
facet normal -0.049867437370380706 0.9987558453847023 0
outer loop
vertex 103.59539120000014 -149.25 6.5
vertex 103.79466982490506 -149.2400501064473 6.5
vertex 103.79466982490459 -149.24005010644737 0
endloop
endfacet
facet normal -0.049867437370380706 0.9987558453847023 0
outer loop
vertex 103.59539120000014 -149.25 6.5
vertex 103.79466982490459 -149.24005010644737 0
vertex 103.59539120000082 -149.25 0
endloop
endfacet
facet normal 0 1 0
outer loop
vertex 103.59539120000014 -149.25 6.5
vertex 103.59539120000082 -149.25 0
vertex 88.49999999999983 -149.25 0
endloop
endfacet
facet normal 0 1 0
outer loop
vertex 103.59539120000014 -149.25 6.5
vertex 88.49999999999983 -149.25 0
vertex 88.50000000000007 -149.25 6.5
endloop
endfacet
facet normal -0.087155742747683 0.9961946980917434 0
outer loop
vertex 88.15270364466615 -149.2803844939756 6.5
vertex 88.50000000000007 -149.25 6.5
vertex 88.49999999999983 -149.25 0
endloop
endfacet
facet normal -0.087155742747683 0.9961946980917434 0
outer loop
vertex 88.15270364466615 -149.2803844939756 6.5
vertex 88.49999999999983 -149.25 0
vertex 88.15270364466629 -149.28038449397556 0
endloop
endfacet
facet normal -0.2588190451025404 0.9659258262890631 0
outer loop
vertex 87.81595971334875 -149.37061475842816 6.5
vertex 88.15270364466615 -149.2803844939756 6.5
vertex 88.15270364466629 -149.28038449397556 0
endloop
endfacet
facet normal -0.2588190451025404 0.9659258262890631 0
outer loop
vertex 87.81595971334875 -149.37061475842816 6.5
vertex 88.15270364466629 -149.28038449397556 0
vertex 87.81595971334868 -149.3706147584282 0
endloop
endfacet
facet normal -0.42261826174069467 0.9063077870366524 0
outer loop
vertex 87.49999999999996 -149.51794919243116 6.5
vertex 87.81595971334875 -149.37061475842816 6.5
vertex 87.81595971334868 -149.3706147584282 0
endloop
endfacet
facet normal -0.42261826174069467 0.9063077870366524 0
outer loop
vertex 87.49999999999996 -149.51794919243116 6.5
vertex 87.81595971334868 -149.3706147584282 0
vertex 87.49999999999989 -149.5179491924312 0
endloop
endfacet
facet normal -0.5735764363510599 0.8191520442889821 0
outer loop
vertex 87.21442478062691 -149.71791111376206 6.5
vertex 87.49999999999996 -149.51794919243116 6.5
vertex 87.49999999999989 -149.5179491924312 0
endloop
endfacet
facet normal -0.5735764363510599 0.8191520442889821 0
outer loop
vertex 87.21442478062691 -149.71791111376206 6.5
vertex 87.49999999999989 -149.5179491924312 0
vertex 87.214424780627 -149.71791111376197 0
endloop
endfacet
facet normal -0.7071067811865476 0.7071067811865476 0
outer loop
vertex 86.96791111376217 -149.96442478062679 6.5
vertex 87.21442478062691 -149.71791111376206 6.5
vertex 87.214424780627 -149.71791111376197 0
endloop
endfacet
facet normal -0.7071067811865476 0.7071067811865476 0
outer loop
vertex 86.96791111376217 -149.96442478062679 6.5
vertex 87.214424780627 -149.71791111376197 0
vertex 86.96791111376226 -149.9644247806267 0
endloop
endfacet
facet normal -0.8191520442889775 0.5735764363510666 0
outer loop
vertex 86.76794919243098 -150.25000000000023 6.5
vertex 86.96791111376217 -149.96442478062679 6.5
vertex 86.96791111376226 -149.9644247806267 0
endloop
endfacet
facet normal -0.8191520442889775 0.5735764363510666 0
outer loop
vertex 86.76794919243098 -150.25000000000023 6.5
vertex 86.96791111376226 -149.9644247806267 0
vertex 86.76794919243102 -150.2500000000002 0
endloop
endfacet
facet normal -0.9063077870366657 0.42261826174066586 0
outer loop
vertex 86.62061475842825 -150.56595971334846 6.5
vertex 86.76794919243098 -150.25000000000023 6.5
vertex 86.76794919243102 -150.2500000000002 0
endloop
endfacet
facet normal -0.9063077870366657 0.42261826174066586 0
outer loop
vertex 86.62061475842825 -150.56595971334846 6.5
vertex 86.76794919243102 -150.2500000000002 0
vertex 86.6206147584282 -150.5659597133486 0
endloop
endfacet
facet normal -0.9659258262890666 0.2588190451025271 0
outer loop
vertex 86.53038449397559 -150.90270364466616 6.5
vertex 86.62061475842825 -150.56595971334846 6.5
vertex 86.6206147584282 -150.5659597133486 0
endloop
endfacet
facet normal -0.9659258262890666 0.2588190451025271 0
outer loop
vertex 86.53038449397559 -150.90270364466616 6.5
vertex 86.6206147584282 -150.5659597133486 0
vertex 86.53038449397557 -150.90270364466616 0
endloop
endfacet
facet normal -0.9961946980917447 0.08715574274766881 0
outer loop
vertex 86.5 -151.25000000000009 6.5
vertex 86.53038449397559 -150.90270364466616 6.5
vertex 86.53038449397557 -150.90270364466616 0
endloop
endfacet
facet normal -0.9961946980917447 0.08715574274766881 0
outer loop
vertex 86.5 -151.25000000000009 6.5
vertex 86.53038449397557 -150.90270364466616 0
vertex 86.5 -151.24999999999991 0
endloop
endfacet
facet normal -1 -1.3442289059639734e-8 0
outer loop
vertex 86.5000008 -210.76364740000017 6.5
vertex 86.5 -151.25000000000009 6.5
vertex 86.5 -151.24999999999991 0
endloop
endfacet
facet normal -1 -1.3442289059639734e-8 0
outer loop
vertex 86.5000008 -210.76364740000017 6.5
vertex 86.5 -151.24999999999991 0
vertex 86.50000079999998 -210.76364740000017 0
endloop
endfacet
endsolid csg.js
