solid csg.js
facet normal 0 0 -1
outer loop
vertex 218.34729635533387 -134.2803844939756 0
vertex 218.68404028665142 -134.37061475842822 0
vertex 219.00000000000006 -134.51794919243116 0
endloop
endfacet
facet normal 0 0 -1
outer loop
vertex 218.34729635533387 -134.2803844939756 0
vertex 219.00000000000006 -134.51794919243116 0
vertex 219.28557521937304 -134.71791111376203 0
endloop
endfacet
facet normal 0 0 -1
outer loop
vertex 218.34729635533387 -134.2803844939756 0
vertex 219.28557521937304 -134.71791111376203 0
vertex 219.5320888862379 -134.96442478062687 0
endloop
endfacet
facet normal 0 0 -1
outer loop
vertex 218.34729635533387 -134.2803844939756 0
vertex 219.5320888862379 -134.96442478062687 0
vertex 219.73205080756887 -135.25000000000003 0
endloop
endfacet
facet normal 0 0 -1
outer loop
vertex 218.34729635533387 -134.2803844939756 0
vertex 219.73205080756887 -135.25000000000003 0
vertex 219.87938524157187 -135.5659597133488 0
endloop
endfacet
facet normal 0 0 -1
outer loop
vertex 218.34729635533387 -134.2803844939756 0
vertex 219.87938524157187 -135.5659597133488 0
vertex 219.9696155060244 -135.9027036446661 0
endloop
endfacet
facet normal 0 0 -1
outer loop
vertex 218.34729635533387 -134.2803844939756 0
vertex 219.9696155060244 -135.9027036446661 0
vertex 220 -136.2500000000001 0
endloop
endfacet
facet normal 0 0 -1
outer loop
vertex 218.34729635533387 -134.2803844939756 0
vertex 220 -136.2500000000001 0
vertex 220 -147.5515399999999 0
endloop
endfacet
facet normal 0 0 -1
outer loop
vertex 218.34729635533387 -134.2803844939756 0
vertex 220 -147.5515399999999 0
vertex 106.41162885000013 -147.5515399999999 0
endloop
endfacet
facet normal 0 0 -1
outer loop
vertex 218.34729635533387 -134.2803844939756 0
vertex 106.41162885000013 -147.5515399999999 0
vertex 133.58837389999954 -134.4484626000002 0
endloop
endfacet
facet normal 0 0 -1
outer loop
vertex 218.34729635533387 -134.2803844939756 0
vertex 133.58837389999954 -134.4484626000002 0
vertex 133.79575981532489 -134.36246112817494 0
endloop
endfacet
facet normal 0 0 -1
outer loop
vertex 218.34729635533387 -134.2803844939756 0
vertex 133.79575981532489 -134.36246112817494 0
vertex 134.0114798156184 -134.3002466787973 0
endloop
endfacet
facet normal 0 0 -1
outer loop
vertex 218.34729635533387 -134.2803844939756 0
vertex 134.0114798156184 -134.3002466787973 0
vertex 134.23281356844277 -134.26260194345957 0
endloop
endfacet
facet normal 0 0 -1
outer loop
vertex 218.34729635533387 -134.2803844939756 0
vertex 134.23281356844277 -134.26260194345957 0
vertex 134.45697195000008 -134.25000129999998 0
endloop
endfacet
facet normal 0 0 -1
outer loop
vertex 218.34729635533387 -134.2803844939756 0
vertex 134.45697195000008 -134.25000129999998 0
vertex 218.00000000000009 -134.25 0
endloop
endfacet
facet normal 0 0 -1
outer loop
vertex 220 -147.5515399999999 0
vertex 220 -147.63754017182518 0
vertex 106.20424098467471 -147.63754017182518 0
endloop
endfacet
facet normal 0 0 -1
outer loop
vertex 220 -147.5515399999999 0
vertex 106.20424098467471 -147.63754017182518 0
vertex 106.41162885000013 -147.5515399999999 0
endloop
endfacet
facet normal 0 0 -1
outer loop
vertex 220 -147.63754017182518 0
vertex 220 -147.69975462120271 0
vertex 105.98852098438154 -147.69975462120271 0
endloop
endfacet
facet normal 0 0 -1
outer loop
vertex 220 -147.63754017182518 0
vertex 105.98852098438154 -147.69975462120271 0
vertex 106.20424098467471 -147.63754017182518 0
endloop
endfacet
facet normal 0 0 -1
outer loop
vertex 220 -147.69975462120271 0
vertex 220 -147.7373993565404 0
vertex 105.7671872315573 -147.7373993565404 0
endloop
endfacet
facet normal 0 0 -1
outer loop
vertex 220 -147.69975462120271 0
vertex 105.7671872315573 -147.7373993565404 0
vertex 105.98852098438154 -147.69975462120271 0
endloop
endfacet
facet normal 0 0 -1
outer loop
vertex 220 -147.7373993565404 0
vertex 220 -147.75 0
vertex 105.54302770000001 -147.75 0
endloop
endfacet
facet normal 0 0 -1
outer loop
vertex 220 -147.7373993565404 0
vertex 105.54302770000001 -147.75 0
vertex 105.7671872315573 -147.7373993565404 0
endloop
endfacet
facet normal 0 0 -1
outer loop
vertex 105.54302770000001 -147.75 0
vertex 220 -147.75 0
vertex 220 -212.79193899999999 0
endloop
endfacet
facet normal 0 0 -1
outer loop
vertex 105.54302770000001 -147.75 0
vertex 220 -212.79193899999999 0
vertex 155.95891499999956 -212.79193899999999 0
endloop
endfacet
facet normal 0 0 -1
outer loop
vertex 105.54302770000001 -147.75 0
vertex 155.95891499999956 -212.79193899999999 0
vertex 85.09013135934197 -212.79193899999999 0
endloop
endfacet
facet normal 0 0 -1
outer loop
vertex 105.54302770000001 -147.75 0
vertex 85.09013135934197 -212.79193899999999 0
vertex 85.02527348777303 -212.525406141834 0
endloop
endfacet
facet normal 0 0 -1
outer loop
vertex 105.54302770000001 -147.75 0
vertex 85.02527348777303 -212.525406141834 0
vertex 85.00000360000001 -212.20847995000008 0
endloop
endfacet
facet normal 0 0 -1
outer loop
vertex 105.54302770000001 -147.75 0
vertex 85.00000360000001 -212.20847995000008 0
vertex 85 -149.75000000000009 0
endloop
endfacet
facet normal 0 0 -1
outer loop
vertex 105.54302770000001 -147.75 0
vertex 85 -149.75000000000009 0
vertex 85.0303844939756 -149.40270364466608 0
endloop
endfacet
facet normal 0 0 -1
outer loop
vertex 105.54302770000001 -147.75 0
vertex 85.0303844939756 -149.40270364466608 0
vertex 85.1206147584282 -149.0659597133486 0
endloop
endfacet
facet normal 0 0 -1
outer loop
vertex 105.54302770000001 -147.75 0
vertex 85.1206147584282 -149.0659597133486 0
vertex 85.26794919243105 -148.75000000000014 0
endloop
endfacet
facet normal 0 0 -1
outer loop
vertex 105.54302770000001 -147.75 0
vertex 85.26794919243105 -148.75000000000014 0
vertex 85.46791111376218 -148.46442478062676 0
endloop
endfacet
facet normal 0 0 -1
outer loop
vertex 105.54302770000001 -147.75 0
vertex 85.46791111376218 -148.46442478062676 0
vertex 85.71442478062679 -148.21791111376217 0
endloop
endfacet
facet normal 0 0 -1
outer loop
vertex 105.54302770000001 -147.75 0
vertex 85.71442478062679 -148.21791111376217 0
vertex 85.99999999999996 -148.01794919243116 0
endloop
endfacet
facet normal 0 0 -1
outer loop
vertex 105.54302770000001 -147.75 0
vertex 85.99999999999996 -148.01794919243116 0
vertex 86.3159597133486 -147.87061475842822 0
endloop
endfacet
facet normal 0 0 -1
outer loop
vertex 105.54302770000001 -147.75 0
vertex 86.3159597133486 -147.87061475842822 0
vertex 86.6527036446662 -147.7803844939756 0
endloop
endfacet
facet normal 0 0 -1
outer loop
vertex 105.54302770000001 -147.75 0
vertex 86.6527036446662 -147.7803844939756 0
vertex 86.99999999999991 -147.75 0
endloop
endfacet
facet normal 0 0 -1
outer loop
vertex 220 -212.79193899999999 0
vertex 220 -212.8106941998929 0
vertex 156.27629335587102 -212.8106941998929 0
endloop
endfacet
facet normal 0 0 -1
outer loop
vertex 220 -212.79193899999999 0
vertex 156.27629335587102 -212.8106941998929 0
vertex 155.95891499999956 -212.79193899999999 0
endloop
endfacet
facet normal 0 0 -1
outer loop
vertex 220 -212.8106941998929 0
vertex 220 -212.87950517897684 0
vertex 156.58668959852852 -212.87950517897684 0
endloop
endfacet
facet normal 0 0 -1
outer loop
vertex 220 -212.8106941998929 0
vertex 156.58668959852852 -212.87950517897684 0
vertex 156.27629335587102 -212.8106941998929 0
endloop
endfacet
facet normal 0 0 -1
outer loop
vertex 220 -212.87950517897684 0
vertex 220 -212.99663307042152 0
vertex 156.8822599545253 -212.99663307042152 0
endloop
endfacet
facet normal 0 0 -1
outer loop
vertex 220 -212.87950517897684 0
vertex 156.8822599545253 -212.99663307042152 0
vertex 156.58668959852852 -212.87950517897684 0
endloop
endfacet
facet normal 0 0 -1
outer loop
vertex 220 -212.99663307042152 0
vertex 220 -213.15911802962006 0
vertex 157.15553530345494 -213.15911802962006 0
endloop
endfacet
facet normal 0 0 -1
outer loop
vertex 220 -212.99663307042152 0
vertex 157.15553530345494 -213.15911802962006 0
vertex 156.8822599545253 -212.99663307042152 0
endloop
endfacet
facet normal 0 0 -1
outer loop
vertex 220 -213.15911802962006 0
vertex 220 -213.36285403003816 0
vertex 157.39960992407765 -213.36285403003816 0
endloop
endfacet
facet normal 0 0 -1
outer loop
vertex 220 -213.15911802962006 0
vertex 157.39960992407765 -213.36285403003816 0
vertex 157.15553530345494 -213.15911802962006 0
endloop
endfacet
facet normal 0 0 -1
outer loop
vertex 220 -213.36285403003816 0
vertex 220 -213.60269262330328 0
vertex 157.6083160032394 -213.60269262330328 0
endloop
endfacet
facet normal 0 0 -1
outer loop
vertex 220 -213.36285403003816 0
vertex 157.6083160032394 -213.60269262330328 0
vertex 157.39960992407765 -213.36285403003816 0
endloop
endfacet
facet normal 0 0 -1
outer loop
vertex 220 -213.60269262330328 0
vertex 220 -213.872573041497 0
vertex 157.77637949771074 -213.872573041497 0
endloop
endfacet
facet normal 0 0 -1
outer loop
vertex 220 -213.60269262330328 0
vertex 157.77637949771074 -213.872573041497 0
vertex 157.6083160032394 -213.60269262330328 0
endloop
endfacet
facet normal 0 0 -1
outer loop
vertex 220 -213.872573041497 0
vertex 220 -214.16567535393978 0
vertex 157.8995534102857 -214.16567535393978 0
endloop
endfacet
facet normal 0 0 -1
outer loop
vertex 220 -213.872573041497 0
vertex 157.8995534102857 -214.16567535393978 0
vertex 157.77637949771074 -213.872573041497 0
endloop
endfacet
facet normal 0 0 -1
outer loop
vertex 155.95891499999956 -212.79193899999999 0
vertex 87.04108719999977 -214.2080599 0
vertex 86.72370524412894 -214.1893047501071 0
endloop
endfacet
facet normal 0 0 -1
outer loop
vertex 155.95891499999956 -212.79193899999999 0
vertex 86.72370524412894 -214.1893047501071 0
vertex 86.4133090014717 -214.1204937710232 0
endloop
endfacet
facet normal 0 0 -1
outer loop
vertex 155.95891499999956 -212.79193899999999 0
vertex 86.4133090014717 -214.1204937710232 0
vertex 86.11773864547463 -214.0033658795784 0
endloop
endfacet
facet normal 0 0 -1
outer loop
vertex 155.95891499999956 -212.79193899999999 0
vertex 86.11773864547463 -214.0033658795784 0
vertex 85.84446329654494 -213.84088092037985 0
endloop
endfacet
facet normal 0 0 -1
outer loop
vertex 155.95891499999956 -212.79193899999999 0
vertex 85.84446329654494 -213.84088092037985 0
vertex 85.60038867592233 -213.6371449199618 0
endloop
endfacet
facet normal 0 0 -1
outer loop
vertex 155.95891499999956 -212.79193899999999 0
vertex 85.60038867592233 -213.6371449199618 0
vertex 85.39168259676077 -213.3973063266969 0
endloop
endfacet
facet normal 0 0 -1
outer loop
vertex 155.95891499999956 -212.79193899999999 0
vertex 85.39168259676077 -213.3973063266969 0
vertex 85.22361910228926 -213.12742590850297 0
endloop
endfacet
facet normal 0 0 -1
outer loop
vertex 155.95891499999956 -212.79193899999999 0
vertex 85.22361910228926 -213.12742590850297 0
vertex 85.10044518971426 -212.8343235960601 0
endloop
endfacet
facet normal 0 0 -1
outer loop
vertex 155.95891499999956 -212.79193899999999 0
vertex 85.10044518971426 -212.8343235960601 0
vertex 85.09013135934197 -212.79193899999999 0
endloop
endfacet
facet normal 0 0 -1
outer loop
vertex 220 -214.16567535393978 0
vertex 220 -214.47459280816614 0
vertex 157.97472511222702 -214.47459280816614 0
endloop
endfacet
facet normal 0 0 -1
outer loop
vertex 220 -214.16567535393978 0
vertex 157.97472511222702 -214.47459280816614 0
vertex 157.8995534102857 -214.16567535393978 0
endloop
endfacet
facet normal 0 0 -1
outer loop
vertex 220 -214.47459280816614 0
vertex 220 -214.7915179999997 0
vertex 158 -214.7915179999997 0
endloop
endfacet
facet normal 0 0 -1
outer loop
vertex 220 -214.47459280816614 0
vertex 158 -214.7915179999997 0
vertex 157.97472511222702 -214.47459280816614 0
endloop
endfacet
facet normal 0 0 -1
outer loop
vertex 220 -214.7915179999997 0
vertex 220 -223.83969849999994 0
vertex 158.00000031228785 -223.83969849999994 0
endloop
endfacet
facet normal 0 0 -1
outer loop
vertex 220 -214.7915179999997 0
vertex 158.00000031228785 -223.83969849999994 0
vertex 158 -214.7915179999997 0
endloop
endfacet
facet normal 0 0 -1
outer loop
vertex 220 -223.83969849999994 0
vertex 220.01625243345663 -224.0941133713676 0
vertex 158.0000003210687 -224.0941133713676 0
endloop
endfacet
facet normal 0 0 -1
outer loop
vertex 220 -223.83969849999994 0
vertex 158.0000003210687 -224.0941133713676 0
vertex 158.00000031228785 -223.83969849999994 0
endloop
endfacet
facet normal 0 0 -1
outer loop
vertex 220.01625243345663 -224.0941133713676 0
vertex 220.06473114673133 -224.3443938911938 0
vertex 158.00000032970686 -224.3443938911938 0
endloop
endfacet
facet normal 0 0 -1
outer loop
vertex 220.01625243345663 -224.0941133713676 0
vertex 158.00000032970686 -224.3443938911938 0
vertex 158.0000003210687 -224.0941133713676 0
endloop
endfacet
facet normal 0 0 -1
outer loop
vertex 220.06473114673133 -224.3443938911938 0
vertex 220.1446534755765 -224.58647434393023 0
vertex 158.000000338062 -224.58647434393023 0
endloop
endfacet
facet normal 0 0 -1
outer loop
vertex 220.06473114673133 -224.3443938911938 0
vertex 158.000000338062 -224.58647434393023 0
vertex 158.00000032970686 -224.3443938911938 0
endloop
endfacet
facet normal 0 0 -1
outer loop
vertex 220.1446534755765 -224.58647434393023 0
vertex 220.25472087147958 -224.8164214956942 0
vertex 158.00000034599836 -224.8164214956942 0
endloop
endfacet
facet normal 0 0 -1
outer loop
vertex 220.1446534755765 -224.58647434393023 0
vertex 158.00000034599836 -224.8164214956942 0
vertex 158.000000338062 -224.58647434393023 0
endloop
endfacet
facet normal 0 0 -1
outer loop
vertex 220.25472087147958 -224.8164214956942 0
vertex 220.3931449999999 -225.0304992499998 0
vertex 158.000000353387 -225.0304992499998 0
endloop
endfacet
facet normal 0 0 -1
outer loop
vertex 220.25472087147958 -224.8164214956942 0
vertex 158.000000353387 -225.0304992499998 0
vertex 158.00000034599836 -224.8164214956942 0
endloop
endfacet
facet normal 0 0 -1
outer loop
vertex 220.3931449999999 -225.0304992499998 0
vertex 233.07575840000027 -242.14422160000038 0
vertex 233.24691120180708 -242.41924044784415 0
endloop
endfacet
facet normal 0 0 -1
outer loop
vertex 220.3931449999999 -225.0304992499998 0
vertex 233.24691120180708 -242.41924044784415 0
vertex 233.37142746830656 -242.7182780293845 0
endloop
endfacet
facet normal 0 0 -1
outer loop
vertex 220.3931449999999 -225.0304992499998 0
vertex 233.37142746830656 -242.7182780293845 0
vertex 233.446036695775 -243.03349420754353 0
endloop
endfacet
facet normal 0 0 -1
outer loop
vertex 220.3931449999999 -225.0304992499998 0
vertex 233.446036695775 -243.03349420754353 0
vertex 233.4687817391392 -243.35662024920347 0
endloop
endfacet
facet normal 0 0 -1
outer loop
vertex 220.3931449999999 -225.0304992499998 0
vertex 233.4687817391392 -243.35662024920347 0
vertex 233.43906595169656 -243.67917993015138 0
endloop
endfacet
facet normal 0 0 -1
outer loop
vertex 220.3931449999999 -225.0304992499998 0
vertex 233.43906595169656 -243.67917993015138 0
vertex 233.35766883631774 -243.9927118829158 0
endloop
endfacet
facet normal 0 0 -1
outer loop
vertex 220.3931449999999 -225.0304992499998 0
vertex 233.35766883631774 -243.9927118829158 0
vertex 233.22672559757072 -244.28899155488668 0
endloop
endfacet
facet normal 0 0 -1
outer loop
vertex 220.3931449999999 -225.0304992499998 0
vertex 233.22672559757072 -244.28899155488668 0
vertex 233.0496711311551 -244.56024695431466 0
endloop
endfacet
facet normal 0 0 -1
outer loop
vertex 220.3931449999999 -225.0304992499998 0
vertex 233.0496711311551 -244.56024695431466 0
vertex 232.83114991990988 -244.7993625247662 0
endloop
endfacet
facet normal 0 0 -1
outer loop
vertex 220.3931449999999 -225.0304992499998 0
vertex 232.83114991990988 -244.7993625247662 0
vertex 232.5768942000001 -245.00006579999987 0
endloop
endfacet
facet normal 0 0 -1
outer loop
vertex 220.3931449999999 -225.0304992499998 0
vertex 232.5768942000001 -245.00006579999987 0
vertex 195.31288740000002 -269.79691809999997 0
endloop
endfacet
facet normal 0 0 -1
outer loop
vertex 220.3931449999999 -225.0304992499998 0
vertex 195.31288740000002 -269.79691809999997 0
vertex 195.04266826893937 -269.94795313004454 0
endloop
endfacet
facet normal 0 0 -1
outer loop
vertex 220.3931449999999 -225.0304992499998 0
vertex 195.04266826893937 -269.94795313004454 0
vertex 194.752376545333 -270.05548266212264 0
endloop
endfacet
facet normal 0 0 -1
outer loop
vertex 220.3931449999999 -225.0304992499998 0
vertex 194.752376545333 -270.05548266212264 0
vertex 194.44896832995352 -270.11692645679466 0
endloop
endfacet
facet normal 0 0 -1
outer loop
vertex 220.3931449999999 -225.0304992499998 0
vertex 194.44896832995352 -270.11692645679466 0
vertex 194.13971266810788 -270.1308124453933 0
endloop
endfacet
facet normal 0 0 -1
outer loop
vertex 220.3931449999999 -225.0304992499998 0
vertex 194.13971266810788 -270.1308124453933 0
vertex 193.8320186980551 -270.09680794780274 0
endloop
endfacet
facet normal 0 0 -1
outer loop
vertex 220.3931449999999 -225.0304992499998 0
vertex 193.8320186980551 -270.09680794780274 0
vertex 193.5332581430888 -270.01572764279916 0
endloop
endfacet
facet normal 0 0 -1
outer loop
vertex 220.3931449999999 -225.0304992499998 0
vertex 193.5332581430888 -270.01572764279916 0
vertex 193.2505886999997 -269.88951404999983 0
endloop
endfacet
facet normal 0 0 -1
outer loop
vertex 220.3931449999999 -225.0304992499998 0
vertex 193.2505886999997 -269.88951404999983 0
vertex 159.04568240000035 -251.3177592000002 0
endloop
endfacet
facet normal 0 0 -1
outer loop
vertex 220.3931449999999 -225.0304992499998 0
vertex 159.04568240000035 -251.3177592000002 0
vertex 158.78842065207255 -251.151370468267 0
endloop
endfacet
facet normal 0 0 -1
outer loop
vertex 220.3931449999999 -225.0304992499998 0
vertex 158.78842065207255 -251.151370468267 0
vertex 158.55959186165222 -250.94764503174244 0
endloop
endfacet
facet normal 0 0 -1
outer loop
vertex 220.3931449999999 -225.0304992499998 0
vertex 158.55959186165222 -250.94764503174244 0
vertex 158.36456467781008 -250.71135904744574 0
endloop
endfacet
facet normal 0 0 -1
outer loop
vertex 220.3931449999999 -225.0304992499998 0
vertex 158.36456467781008 -250.71135904744574 0
vertex 158.207915738565 -250.4480573599353 0
endloop
endfacet
facet normal 0 0 -1
outer loop
vertex 220.3931449999999 -225.0304992499998 0
vertex 158.207915738565 -250.4480573599353 0
vertex 158.093321072442 -250.16391878228603 0
endloop
endfacet
facet normal 0 0 -1
outer loop
vertex 220.3931449999999 -225.0304992499998 0
vertex 158.093321072442 -250.16391878228603 0
vertex 158.02346983433424 -249.86561109993914 0
endloop
endfacet
facet normal 0 0 -1
outer loop
vertex 220.3931449999999 -225.0304992499998 0
vertex 158.02346983433424 -249.86561109993914 0
vertex 158.0000012 -249.56013459999957 0
endloop
endfacet
facet normal 0 0 -1
outer loop
vertex 220.3931449999999 -225.0304992499998 0
vertex 158.0000012 -249.56013459999957 0
vertex 158.000000353387 -225.0304992499998 0
endloop
endfacet
facet normal 0 0 1
outer loop
vertex 194.44896832995417 -270.1169264567946 6.5
vertex 194.75237654533274 -270.05548266212276 6.5
vertex 195.04266826893962 -269.9479531300444 6.5
endloop
endfacet
facet normal 0 0 1
outer loop
vertex 194.44896832995417 -270.1169264567946 6.5
vertex 195.04266826893962 -269.9479531300444 6.5
vertex 195.31288739999988 -269.7969181000001 6.5
endloop
endfacet
facet normal 0 0 1
outer loop
vertex 194.44896832995417 -270.1169264567946 6.5
vertex 195.31288739999988 -269.7969181000001 6.5
vertex 232.5768942000003 -245.00006579999976 6.5
endloop
endfacet
facet normal 0 0 1
outer loop
vertex 194.44896832995417 -270.1169264567946 6.5
vertex 232.5768942000003 -245.00006579999976 6.5
vertex 232.8311499199098 -244.7993625247663 6.5
endloop
endfacet
facet normal 0 0 1
outer loop
vertex 194.44896832995417 -270.1169264567946 6.5
vertex 232.8311499199098 -244.7993625247663 6.5
vertex 233.04967113115504 -244.56024695431475 6.5
endloop
endfacet
facet normal 0 0 1
outer loop
vertex 194.44896832995417 -270.1169264567946 6.5
vertex 233.04967113115504 -244.56024695431475 6.5
vertex 233.2267255975708 -244.28899155488654 6.5
endloop
endfacet
facet normal 0 0 1
outer loop
vertex 194.44896832995417 -270.1169264567946 6.5
vertex 233.2267255975708 -244.28899155488654 6.5
vertex 233.3576688363176 -243.99271188291618 6.5
endloop
endfacet
facet normal 0 0 1
outer loop
vertex 194.44896832995417 -270.1169264567946 6.5
vertex 233.3576688363176 -243.99271188291618 6.5
vertex 233.4390659516966 -243.67917993015104 6.5
endloop
endfacet
facet normal 0 0 1
outer loop
vertex 194.44896832995417 -270.1169264567946 6.5
vertex 233.4390659516966 -243.67917993015104 6.5
vertex 233.4687817391392 -243.3566202492036 6.5
endloop
endfacet
facet normal 0 0 1
outer loop
vertex 194.44896832995417 -270.1169264567946 6.5
vertex 233.4687817391392 -243.3566202492036 6.5
vertex 233.44603669577498 -243.03349420754327 6.5
endloop
endfacet
facet normal 0 0 1
outer loop
vertex 194.44896832995417 -270.1169264567946 6.5
vertex 233.44603669577498 -243.03349420754327 6.5
vertex 233.37142746830668 -242.7182780293848 6.5
endloop
endfacet
facet normal 0 0 1
outer loop
vertex 194.44896832995417 -270.1169264567946 6.5
vertex 233.37142746830668 -242.7182780293848 6.5
vertex 233.24691120180705 -242.4192404478441 6.5
endloop
endfacet
facet normal 0 0 1
outer loop
vertex 194.44896832995417 -270.1169264567946 6.5
vertex 233.24691120180705 -242.4192404478441 6.5
vertex 233.0757584000002 -242.14422160000026 6.5
endloop
endfacet
facet normal 0 0 1
outer loop
vertex 194.44896832995417 -270.1169264567946 6.5
vertex 233.0757584000002 -242.14422160000026 6.5
vertex 220.39314499999995 -225.03049924999993 6.5
endloop
endfacet
facet normal 0 0 1
outer loop
vertex 194.44896832995417 -270.1169264567946 6.5
vertex 220.39314499999995 -225.03049924999993 6.5
vertex 158.000000353387 -225.03049924999993 6.5
endloop
endfacet
facet normal 0 0 1
outer loop
vertex 194.44896832995417 -270.1169264567946 6.5
vertex 158.000000353387 -225.03049924999993 6.5
vertex 158.0000012 -249.56013459999986 6.5
endloop
endfacet
facet normal 0 0 1
outer loop
vertex 194.44896832995417 -270.1169264567946 6.5
vertex 158.0000012 -249.56013459999986 6.5
vertex 158.02346983433418 -249.86561109993883 6.5
endloop
endfacet
facet normal 0 0 1
outer loop
vertex 194.44896832995417 -270.1169264567946 6.5
vertex 158.02346983433418 -249.86561109993883 6.5
vertex 158.09332107244202 -250.16391878228612 6.5
endloop
endfacet
facet normal 0 0 1
outer loop
vertex 194.44896832995417 -270.1169264567946 6.5
vertex 158.09332107244202 -250.16391878228612 6.5
vertex 158.20791573856502 -250.44805735993535 6.5
endloop
endfacet
facet normal 0 0 1
outer loop
vertex 194.44896832995417 -270.1169264567946 6.5
vertex 158.20791573856502 -250.44805735993535 6.5
vertex 158.36456467781008 -250.71135904744577 6.5
endloop
endfacet
facet normal 0 0 1
outer loop
vertex 194.44896832995417 -270.1169264567946 6.5
vertex 158.36456467781008 -250.71135904744577 6.5
vertex 158.55959186165208 -250.9476450317423 6.5
endloop
endfacet
facet normal 0 0 1
outer loop
vertex 194.44896832995417 -270.1169264567946 6.5
vertex 158.55959186165208 -250.9476450317423 6.5
vertex 158.7884206520726 -251.15137046826703 6.5
endloop
endfacet
facet normal 0 0 1
outer loop
vertex 194.44896832995417 -270.1169264567946 6.5
vertex 158.7884206520726 -251.15137046826703 6.5
vertex 159.04568240000054 -251.31775920000032 6.5
endloop
endfacet
facet normal 0 0 1
outer loop
vertex 194.44896832995417 -270.1169264567946 6.5
vertex 159.04568240000054 -251.31775920000032 6.5
vertex 193.2505886999999 -269.88951404999995 6.5
endloop
endfacet
facet normal 0 0 1
outer loop
vertex 194.44896832995417 -270.1169264567946 6.5
vertex 193.2505886999999 -269.88951404999995 6.5
vertex 193.5332581430883 -270.015727642799 6.5
endloop
endfacet
facet normal 0 0 1
outer loop
vertex 194.44896832995417 -270.1169264567946 6.5
vertex 193.5332581430883 -270.015727642799 6.5
vertex 193.83201869805512 -270.0968079478027 6.5
endloop
endfacet
facet normal 0 0 1
outer loop
vertex 194.44896832995417 -270.1169264567946 6.5
vertex 193.83201869805512 -270.0968079478027 6.5
vertex 194.13971266810805 -270.13081244539325 6.5
endloop
endfacet
facet normal 0 0 1
outer loop
vertex 220.39314499999995 -225.03049924999993 6.5
vertex 220.25472087147963 -224.81642149569436 6.5
vertex 158.00000034599836 -224.81642149569436 6.5
endloop
endfacet
facet normal 0 0 1
outer loop
vertex 220.39314499999995 -225.03049924999993 6.5
vertex 158.00000034599836 -224.81642149569436 6.5
vertex 158.000000353387 -225.03049924999993 6.5
endloop
endfacet
facet normal 0 0 1
outer loop
vertex 220.25472087147963 -224.81642149569436 6.5
vertex 220.14465347557652 -224.58647434393035 6.5
vertex 158.000000338062 -224.58647434393035 6.5
endloop
endfacet
facet normal 0 0 1
outer loop
vertex 220.25472087147963 -224.81642149569436 6.5
vertex 158.000000338062 -224.58647434393035 6.5
vertex 158.00000034599836 -224.81642149569436 6.5
endloop
endfacet
facet normal 0 0 1
outer loop
vertex 220.14465347557652 -224.58647434393035 6.5
vertex 220.06473114673142 -224.34439389119416 6.5
vertex 158.00000032970686 -224.34439389119416 6.5
endloop
endfacet
facet normal 0 0 1
outer loop
vertex 220.14465347557652 -224.58647434393035 6.5
vertex 158.00000032970686 -224.34439389119416 6.5
vertex 158.000000338062 -224.58647434393035 6.5
endloop
endfacet
facet normal 0 0 1
outer loop
vertex 220.06473114673142 -224.34439389119416 6.5
vertex 220.01625243345666 -224.09411337136774 6.5
vertex 158.0000003210687 -224.09411337136774 6.5
endloop
endfacet
facet normal 0 0 1
outer loop
vertex 220.06473114673142 -224.34439389119416 6.5
vertex 158.0000003210687 -224.09411337136774 6.5
vertex 158.00000032970686 -224.34439389119416 6.5
endloop
endfacet
facet normal 0 0 1
outer loop
vertex 220.01625243345666 -224.09411337136774 6.5
vertex 220 -223.83969849999968 6.5
vertex 158.00000031228785 -223.83969849999968 6.5
endloop
endfacet
facet normal 0 0 1
outer loop
vertex 220.01625243345666 -224.09411337136774 6.5
vertex 158.00000031228785 -223.83969849999968 6.5
vertex 158.0000003210687 -224.09411337136774 6.5
endloop
endfacet
facet normal 0 0 1
outer loop
vertex 220 -223.83969849999968 6.5
vertex 220 -214.7915179999998 6.5
vertex 158.00000000000003 -214.7915179999998 6.5
endloop
endfacet
facet normal 0 0 1
outer loop
vertex 220 -223.83969849999968 6.5
vertex 158.00000000000003 -214.7915179999998 6.5
vertex 158.00000031228785 -223.83969849999968 6.5
endloop
endfacet
facet normal 0 0 1
outer loop
vertex 220 -214.7915179999998 6.5
vertex 220 -214.47459280816628 6.5
vertex 157.97472511222705 -214.47459280816628 6.5
endloop
endfacet
facet normal 0 0 1
outer loop
vertex 220 -214.7915179999998 6.5
vertex 157.97472511222705 -214.47459280816628 6.5
vertex 158.00000000000003 -214.7915179999998 6.5
endloop
endfacet
facet normal 0 0 1
outer loop
vertex 220 -214.47459280816628 6.5
vertex 220 -214.1656753539397 6.5
vertex 157.89955341028568 -214.1656753539397 6.5
endloop
endfacet
facet normal 0 0 1
outer loop
vertex 220 -214.47459280816628 6.5
vertex 157.89955341028568 -214.1656753539397 6.5
vertex 157.97472511222705 -214.47459280816628 6.5
endloop
endfacet
facet normal 0 0 1
outer loop
vertex 220 -214.1656753539397 6.5
vertex 220 -213.872573041497 6.5
vertex 157.77637949771074 -213.872573041497 6.5
endloop
endfacet
facet normal 0 0 1
outer loop
vertex 220 -214.1656753539397 6.5
vertex 157.77637949771074 -213.872573041497 6.5
vertex 157.89955341028568 -214.1656753539397 6.5
endloop
endfacet
facet normal 0 0 1
outer loop
vertex 220 -213.872573041497 6.5
vertex 220 -213.60269262330306 6.5
vertex 157.60831600323922 -213.60269262330306 6.5
endloop
endfacet
facet normal 0 0 1
outer loop
vertex 220 -213.872573041497 6.5
vertex 157.60831600323922 -213.60269262330306 6.5
vertex 157.77637949771074 -213.872573041497 6.5
endloop
endfacet
facet normal 0 0 1
outer loop
vertex 220 -213.60269262330306 6.5
vertex 220 -213.36285403003816 6.5
vertex 157.39960992407768 -213.36285403003816 6.5
endloop
endfacet
facet normal 0 0 1
outer loop
vertex 220 -213.60269262330306 6.5
vertex 157.39960992407768 -213.36285403003816 6.5
vertex 157.60831600323922 -213.60269262330306 6.5
endloop
endfacet
facet normal 0 0 1
outer loop
vertex 220 -213.36285403003816 6.5
vertex 220 -213.15911802962017 6.5
vertex 157.1555353034551 -213.15911802962017 6.5
endloop
endfacet
facet normal 0 0 1
outer loop
vertex 220 -213.36285403003816 6.5
vertex 157.1555353034551 -213.15911802962017 6.5
vertex 157.39960992407768 -213.36285403003816 6.5
endloop
endfacet
facet normal 0 0 1
outer loop
vertex 220 -213.15911802962017 6.5
vertex 220 -212.99663307042144 6.5
vertex 156.88225995452513 -212.99663307042144 6.5
endloop
endfacet
facet normal 0 0 1
outer loop
vertex 220 -213.15911802962017 6.5
vertex 156.88225995452513 -212.99663307042144 6.5
vertex 157.1555353034551 -213.15911802962017 6.5
endloop
endfacet
facet normal 0 0 1
outer loop
vertex 220 -212.99663307042144 6.5
vertex 220 -212.87950517897687 6.5
vertex 156.5866895985287 -212.87950517897687 6.5
endloop
endfacet
facet normal 0 0 1
outer loop
vertex 220 -212.99663307042144 6.5
vertex 156.5866895985287 -212.87950517897687 6.5
vertex 156.88225995452513 -212.99663307042144 6.5
endloop
endfacet
facet normal 0 0 1
outer loop
vertex 220 -212.87950517897687 6.5
vertex 220 -212.81069419989294 6.5
vertex 156.27629335587125 -212.81069419989294 6.5
endloop
endfacet
facet normal 0 0 1
outer loop
vertex 220 -212.87950517897687 6.5
vertex 156.27629335587125 -212.81069419989294 6.5
vertex 156.5866895985287 -212.87950517897687 6.5
endloop
endfacet
facet normal 0 0 1
outer loop
vertex 155.9589149999989 -212.79193899999999 6.5
vertex 85.09013135934198 -212.79193899999999 6.5
vertex 85.1004451897143 -212.8343235960602 6.5
endloop
endfacet
facet normal 0 0 1
outer loop
vertex 155.9589149999989 -212.79193899999999 6.5
vertex 85.1004451897143 -212.8343235960602 6.5
vertex 85.22361910228932 -213.12742590850308 6.5
endloop
endfacet
facet normal 0 0 1
outer loop
vertex 155.9589149999989 -212.79193899999999 6.5
vertex 85.22361910228932 -213.12742590850308 6.5
vertex 85.39168259676069 -213.3973063266968 6.5
endloop
endfacet
facet normal 0 0 1
outer loop
vertex 155.9589149999989 -212.79193899999999 6.5
vertex 85.39168259676069 -213.3973063266968 6.5
vertex 85.60038867592229 -213.63714491996174 6.5
endloop
endfacet
facet normal 0 0 1
outer loop
vertex 155.9589149999989 -212.79193899999999 6.5
vertex 85.60038867592229 -213.63714491996174 6.5
vertex 85.84446329654514 -213.84088092038 6.5
endloop
endfacet
facet normal 0 0 1
outer loop
vertex 155.9589149999989 -212.79193899999999 6.5
vertex 85.84446329654514 -213.84088092038 6.5
vertex 86.1177386454744 -214.00336587957833 6.5
endloop
endfacet
facet normal 0 0 1
outer loop
vertex 155.9589149999989 -212.79193899999999 6.5
vertex 86.1177386454744 -214.00336587957833 6.5
vertex 86.4133090014715 -214.12049377102312 6.5
endloop
endfacet
facet normal 0 0 1
outer loop
vertex 155.9589149999989 -212.79193899999999 6.5
vertex 86.4133090014715 -214.12049377102312 6.5
vertex 86.72370524412909 -214.1893047501071 6.5
endloop
endfacet
facet normal 0 0 1
outer loop
vertex 155.9589149999989 -212.79193899999999 6.5
vertex 86.72370524412909 -214.1893047501071 6.5
vertex 87.04108719999991 -214.2080599 6.5
endloop
endfacet
facet normal 0 0 1
outer loop
vertex 220 -212.81069419989294 6.5
vertex 220 -212.79193899999999 6.5
vertex 155.9589149999989 -212.79193899999999 6.5
endloop
endfacet
facet normal 0 0 1
outer loop
vertex 220 -212.81069419989294 6.5
vertex 155.9589149999989 -212.79193899999999 6.5
vertex 156.27629335587125 -212.81069419989294 6.5
endloop
endfacet
facet normal 0 0 1
outer loop
vertex 155.9589149999989 -212.79193899999999 6.5
vertex 220 -212.79193899999999 6.5
vertex 220 -147.75 6.5
endloop
endfacet
facet normal 0 0 1
outer loop
vertex 155.9589149999989 -212.79193899999999 6.5
vertex 220 -147.75 6.5
vertex 105.54302770000072 -147.75 6.5
endloop
endfacet
facet normal 0 0 1
outer loop
vertex 155.9589149999989 -212.79193899999999 6.5
vertex 105.54302770000072 -147.75 6.5
vertex 87.00000000000007 -147.75 6.5
endloop
endfacet
facet normal 0 0 1
outer loop
vertex 155.9589149999989 -212.79193899999999 6.5
vertex 87.00000000000007 -147.75 6.5
vertex 86.65270364466599 -147.78038449397562 6.5
endloop
endfacet
facet normal 0 0 1
outer loop
vertex 155.9589149999989 -212.79193899999999 6.5
vertex 86.65270364466599 -147.78038449397562 6.5
vertex 86.31595971334865 -147.8706147584282 6.5
endloop
endfacet
facet normal 0 0 1
outer loop
vertex 155.9589149999989 -212.79193899999999 6.5
vertex 86.31595971334865 -147.8706147584282 6.5
vertex 86.00000000000007 -148.0179491924311 6.5
endloop
endfacet
facet normal 0 0 1
outer loop
vertex 155.9589149999989 -212.79193899999999 6.5
vertex 86.00000000000007 -148.0179491924311 6.5
vertex 85.71442478062689 -148.2179111137621 6.5
endloop
endfacet
facet normal 0 0 1
outer loop
vertex 155.9589149999989 -212.79193899999999 6.5
vertex 85.71442478062689 -148.2179111137621 6.5
vertex 85.46791111376209 -148.46442478062687 6.5
endloop
endfacet
facet normal 0 0 1
outer loop
vertex 155.9589149999989 -212.79193899999999 6.5
vertex 85.46791111376209 -148.46442478062687 6.5
vertex 85.26794919243109 -148.75000000000006 6.5
endloop
endfacet
facet normal 0 0 1
outer loop
vertex 155.9589149999989 -212.79193899999999 6.5
vertex 85.26794919243109 -148.75000000000006 6.5
vertex 85.12061475842818 -149.0659597133487 6.5
endloop
endfacet
facet normal 0 0 1
outer loop
vertex 155.9589149999989 -212.79193899999999 6.5
vertex 85.12061475842818 -149.0659597133487 6.5
vertex 85.0303844939756 -149.40270364466605 6.5
endloop
endfacet
facet normal 0 0 1
outer loop
vertex 155.9589149999989 -212.79193899999999 6.5
vertex 85.0303844939756 -149.40270364466605 6.5
vertex 85 -149.75000000000003 6.5
endloop
endfacet
facet normal 0 0 1
outer loop
vertex 155.9589149999989 -212.79193899999999 6.5
vertex 85 -149.75000000000003 6.5
vertex 85.0000036 -212.20847995000003 6.5
endloop
endfacet
facet normal 0 0 1
outer loop
vertex 155.9589149999989 -212.79193899999999 6.5
vertex 85.0000036 -212.20847995000003 6.5
vertex 85.02527348777302 -212.52540614183386 6.5
endloop
endfacet
facet normal 0 0 1
outer loop
vertex 155.9589149999989 -212.79193899999999 6.5
vertex 85.02527348777302 -212.52540614183386 6.5
vertex 85.09013135934198 -212.79193899999999 6.5
endloop
endfacet
facet normal 0 0 1
outer loop
vertex 220 -147.75 6.5
vertex 220 -147.73739935654046 6.5
vertex 105.767187231557 -147.73739935654046 6.5
endloop
endfacet
facet normal 0 0 1
outer loop
vertex 220 -147.75 6.5
vertex 105.767187231557 -147.73739935654046 6.5
vertex 105.54302770000072 -147.75 6.5
endloop
endfacet
facet normal 0 0 1
outer loop
vertex 220 -147.73739935654046 6.5
vertex 220 -147.6997546212027 6.5
vertex 105.98852098438167 -147.6997546212027 6.5
endloop
endfacet
facet normal 0 0 1
outer loop
vertex 220 -147.73739935654046 6.5
vertex 105.98852098438167 -147.6997546212027 6.5
vertex 105.767187231557 -147.73739935654046 6.5
endloop
endfacet
facet normal 0 0 1
outer loop
vertex 220 -147.6997546212027 6.5
vertex 220 -147.63754017182507 6.5
vertex 106.20424098467508 -147.63754017182507 6.5
endloop
endfacet
facet normal 0 0 1
outer loop
vertex 220 -147.6997546212027 6.5
vertex 106.20424098467508 -147.63754017182507 6.5
vertex 105.98852098438167 -147.6997546212027 6.5
endloop
endfacet
facet normal 0 0 1
outer loop
vertex 220 -147.63754017182507 6.5
vertex 220 -147.55153999999993 6.5
vertex 106.41162885000014 -147.55153999999993 6.5
endloop
endfacet
facet normal 0 0 1
outer loop
vertex 220 -147.63754017182507 6.5
vertex 106.41162885000014 -147.55153999999993 6.5
vertex 106.20424098467508 -147.63754017182507 6.5
endloop
endfacet
facet normal 0 0 1
outer loop
vertex 220 -147.55153999999993 6.5
vertex 220 -136.25000000000009 6.5
vertex 219.9696155060244 -135.90270364466616 6.5
endloop
endfacet
facet normal 0 0 1
outer loop
vertex 220 -147.55153999999993 6.5
vertex 219.9696155060244 -135.90270364466616 6.5
vertex 219.8793852415718 -135.56595971334872 6.5
endloop
endfacet
facet normal 0 0 1
outer loop
vertex 220 -147.55153999999993 6.5
vertex 219.8793852415718 -135.56595971334872 6.5
vertex 219.7320508075688 -135.24999999999991 6.5
endloop
endfacet
facet normal 0 0 1
outer loop
vertex 220 -147.55153999999993 6.5
vertex 219.7320508075688 -135.24999999999991 6.5
vertex 219.5320888862379 -134.96442478062684 6.5
endloop
endfacet
facet normal 0 0 1
outer loop
vertex 220 -147.55153999999993 6.5
vertex 219.5320888862379 -134.96442478062684 6.5
vertex 219.28557521937313 -134.71791111376209 6.5
endloop
endfacet
facet normal 0 0 1
outer loop
vertex 220 -147.55153999999993 6.5
vertex 219.28557521937313 -134.71791111376209 6.5
vertex 219.0000000000001 -134.51794919243122 6.5
endloop
endfacet
facet normal 0 0 1
outer loop
vertex 220 -147.55153999999993 6.5
vertex 219.0000000000001 -134.51794919243122 6.5
vertex 218.68404028665114 -134.37061475842813 6.5
endloop
endfacet
facet normal 0 0 1
outer loop
vertex 220 -147.55153999999993 6.5
vertex 218.68404028665114 -134.37061475842813 6.5
vertex 218.34729635533378 -134.28038449397556 6.5
endloop
endfacet
facet normal 0 0 1
outer loop
vertex 220 -147.55153999999993 6.5
vertex 218.34729635533378 -134.28038449397556 6.5
vertex 218.00000000000006 -134.24999999999997 6.5
endloop
endfacet
facet normal 0 0 1
outer loop
vertex 220 -147.55153999999993 6.5
vertex 218.00000000000006 -134.24999999999997 6.5
vertex 134.4569719500001 -134.25000129999998 6.5
endloop
endfacet
facet normal 0 0 1
outer loop
vertex 220 -147.55153999999993 6.5
vertex 134.4569719500001 -134.25000129999998 6.5
vertex 134.23281356844277 -134.26260194345957 6.5
endloop
endfacet
facet normal 0 0 1
outer loop
vertex 220 -147.55153999999993 6.5
vertex 134.23281356844277 -134.26260194345957 6.5
vertex 134.01147981561815 -134.30024667879735 6.5
endloop
endfacet
facet normal 0 0 1
outer loop
vertex 220 -147.55153999999993 6.5
vertex 134.01147981561815 -134.30024667879735 6.5
vertex 133.7957598153251 -134.36246112817486 6.5
endloop
endfacet
facet normal 0 0 1
outer loop
vertex 220 -147.55153999999993 6.5
vertex 133.7957598153251 -134.36246112817486 6.5
vertex 133.5883738999997 -134.44846260000014 6.5
endloop
endfacet
facet normal 0 0 1
outer loop
vertex 220 -147.55153999999993 6.5
vertex 133.5883738999997 -134.44846260000014 6.5
vertex 106.41162885000014 -147.55153999999993 6.5
endloop
endfacet
facet normal -0.9968362978725285 -0.07948204353054678 0
outer loop
vertex 85.02527348777302 -212.52540614183386 6.5
vertex 85.0000036 -212.20847995000003 6.5
vertex 85.00000360000001 -212.20847995000008 0
endloop
endfacet
facet normal -0.9968362978725285 -0.07948204353054678 0
outer loop
vertex 85.02527348777302 -212.52540614183386 6.5
vertex 85.00000360000001 -212.20847995000008 0
vertex 85.02527348777303 -212.525406141834 0
endloop
endfacet
facet normal 0 0 -1
outer loop
vertex 85.1004451897143 -212.8343235960602 6.5
vertex 85.09013135934198 -212.79193899999999 6.5
vertex 85.02527348777302 -212.52540614183386 6.5
endloop
endfacet
facet normal 0 0 -1
outer loop
vertex 85.1004451897143 -212.8343235960602 6.5
vertex 85.02527348777302 -212.52540614183386 6.5
vertex 85.02527348777303 -212.525406141834 0
endloop
endfacet
facet normal 0 0 -1
outer loop
vertex 85.1004451897143 -212.8343235960602 6.5
vertex 85.02527348777303 -212.525406141834 0
vertex 85.09013135934197 -212.79193899999999 0
endloop
endfacet
facet normal 0 0 -1
outer loop
vertex 85.1004451897143 -212.8343235960602 6.5
vertex 85.09013135934197 -212.79193899999999 0
vertex 85.10044518971426 -212.8343235960601 0
endloop
endfacet
facet normal -0.9219024225885604 -0.3874221511805223 0
outer loop
vertex 85.22361910228932 -213.12742590850308 6.5
vertex 85.1004451897143 -212.8343235960602 6.5
vertex 85.10044518971426 -212.8343235960601 0
endloop
endfacet
facet normal -0.9219024225885604 -0.3874221511805223 0
outer loop
vertex 85.22361910228932 -213.12742590850308 6.5
vertex 85.10044518971426 -212.8343235960601 0
vertex 85.22361910228926 -213.12742590850297 0
endloop
endfacet
facet normal -0.8488619870255989 -0.5286145353496742 0
outer loop
vertex 85.39168259676069 -213.3973063266968 6.5
vertex 85.22361910228932 -213.12742590850308 6.5
vertex 85.22361910228926 -213.12742590850297 0
endloop
endfacet
facet normal -0.8488619870255989 -0.5286145353496742 0
outer loop
vertex 85.39168259676069 -213.3973063266968 6.5
vertex 85.22361910228926 -213.12742590850297 0
vertex 85.39168259676077 -213.3973063266969 0
endloop
endfacet
facet normal -0.7543706438834967 -0.6564487273556091 0
outer loop
vertex 85.60038867592229 -213.63714491996174 6.5
vertex 85.39168259676069 -213.3973063266968 6.5
vertex 85.39168259676077 -213.3973063266969 0
endloop
endfacet
facet normal -0.7543706438834967 -0.6564487273556091 0
outer loop
vertex 85.60038867592229 -213.63714491996174 6.5
vertex 85.39168259676077 -213.3973063266969 0
vertex 85.60038867592233 -213.6371449199618 0
endloop
endfacet
facet normal -0.6408162077891841 -0.7676943322929312 0
outer loop
vertex 85.84446329654514 -213.84088092038 6.5
vertex 85.60038867592229 -213.63714491996174 6.5
vertex 85.60038867592233 -213.6371449199618 0
endloop
endfacet
facet normal -0.6408162077891841 -0.7676943322929312 0
outer loop
vertex 85.84446329654514 -213.84088092038 6.5
vertex 85.60038867592233 -213.6371449199618 0
vertex 85.84446329654494 -213.84088092037985 0
endloop
endfacet
facet normal -0.511068221437356 -0.8595401520795045 0
outer loop
vertex 86.1177386454744 -214.00336587957833 6.5
vertex 85.84446329654514 -213.84088092038 6.5
vertex 85.84446329654494 -213.84088092037985 0
endloop
endfacet
facet normal -0.511068221437356 -0.8595401520795045 0
outer loop
vertex 86.1177386454744 -214.00336587957833 6.5
vertex 85.84446329654494 -213.84088092037985 0
vertex 86.11773864547463 -214.0033658795784 0
endloop
endfacet
facet normal -0.3684054416889352 -0.9296652249783148 0
outer loop
vertex 86.4133090014715 -214.12049377102312 6.5
vertex 86.1177386454744 -214.00336587957833 6.5
vertex 86.11773864547463 -214.0033658795784 0
endloop
endfacet
facet normal -0.3684054416889352 -0.9296652249783148 0
outer loop
vertex 86.4133090014715 -214.12049377102312 6.5
vertex 86.11773864547463 -214.0033658795784 0
vertex 86.4133090014717 -214.1204937710232 0
endloop
endfacet
facet normal -0.2164329847468027 -0.9762974767526496 0
outer loop
vertex 86.72370524412909 -214.1893047501071 6.5
vertex 86.4133090014715 -214.12049377102312 6.5
vertex 86.4133090014717 -214.1204937710232 0
endloop
endfacet
facet normal -0.2164329847468027 -0.9762974767526496 0
outer loop
vertex 86.72370524412909 -214.1893047501071 6.5
vertex 86.4133090014717 -214.1204937710232 0
vertex 86.72370524412894 -214.1893047501071 0
endloop
endfacet
facet normal -0.058990400653243596 -0.9982585499913186 0
outer loop
vertex 87.04108719999991 -214.2080599 6.5
vertex 86.72370524412909 -214.1893047501071 6.5
vertex 86.72370524412894 -214.1893047501071 0
endloop
endfacet
facet normal -0.058990400653243596 -0.9982585499913186 0
outer loop
vertex 87.04108719999991 -214.2080599 6.5
vertex 86.72370524412894 -214.1893047501071 0
vertex 87.04108719999977 -214.2080599 0
endloop
endfacet
facet normal 0.020543625407839276 -0.999788957458074 0
outer loop
vertex 155.9589149999989 -212.79193899999999 6.5
vertex 87.04108719999991 -214.2080599 6.5
vertex 87.04108719999977 -214.2080599 0
endloop
endfacet
facet normal 0.020543625407839276 -0.999788957458074 0
outer loop
vertex 155.9589149999989 -212.79193899999999 6.5
vertex 87.04108719999977 -214.2080599 0
vertex 155.95891499999956 -212.79193899999999 0
endloop
endfacet
facet normal -0.05899122416769838 -0.9982585013267837 0
outer loop
vertex 156.27629335587125 -212.81069419989294 6.5
vertex 155.9589149999989 -212.79193899999999 6.5
vertex 155.95891499999956 -212.79193899999999 0
endloop
endfacet
facet normal -0.05899122416769838 -0.9982585013267837 0
outer loop
vertex 156.27629335587125 -212.81069419989294 6.5
vertex 155.95891499999956 -212.79193899999999 0
vertex 156.27629335587102 -212.8106941998929 0
endloop
endfacet
facet normal -0.2164329847467741 -0.9762974767526559 0
outer loop
vertex 156.5866895985287 -212.87950517897687 6.5
vertex 156.27629335587125 -212.81069419989294 6.5
vertex 156.27629335587102 -212.8106941998929 0
endloop
endfacet
facet normal -0.2164329847467741 -0.9762974767526559 0
outer loop
vertex 156.5866895985287 -212.87950517897687 6.5
vertex 156.27629335587102 -212.8106941998929 0
vertex 156.58668959852852 -212.87950517897684 0
endloop
endfacet
facet normal -0.3684054416889646 -0.9296652249783031 0
outer loop
vertex 156.88225995452513 -212.99663307042144 6.5
vertex 156.5866895985287 -212.87950517897687 6.5
vertex 156.58668959852852 -212.87950517897684 0
endloop
endfacet
facet normal -0.3684054416889646 -0.9296652249783031 0
outer loop
vertex 156.88225995452513 -212.99663307042144 6.5
vertex 156.58668959852852 -212.87950517897684 0
vertex 156.8822599545253 -212.99663307042152 0
endloop
endfacet
facet normal -0.5110682214373696 -0.8595401520794965 0
outer loop
vertex 157.1555353034551 -213.15911802962017 6.5
vertex 156.88225995452513 -212.99663307042144 6.5
vertex 156.8822599545253 -212.99663307042152 0
endloop
endfacet
facet normal -0.5110682214373696 -0.8595401520794965 0
outer loop
vertex 157.1555353034551 -213.15911802962017 6.5
vertex 156.8822599545253 -212.99663307042152 0
vertex 157.15553530345494 -213.15911802962006 0
endloop
endfacet
facet normal -0.6408162077891527 -0.7676943322929574 0
outer loop
vertex 157.39960992407768 -213.36285403003816 6.5
vertex 157.1555353034551 -213.15911802962017 6.5
vertex 157.15553530345494 -213.15911802962006 0
endloop
endfacet
facet normal -0.6408162077891527 -0.7676943322929574 0
outer loop
vertex 157.39960992407768 -213.36285403003816 6.5
vertex 157.15553530345494 -213.15911802962006 0
vertex 157.39960992407765 -213.36285403003816 0
endloop
endfacet
facet normal -0.7543706438835266 -0.6564487273555747 0
outer loop
vertex 157.60831600323922 -213.60269262330306 6.5
vertex 157.39960992407768 -213.36285403003816 6.5
vertex 157.39960992407765 -213.36285403003816 0
endloop
endfacet
facet normal -0.7543706438835266 -0.6564487273555747 0
outer loop
vertex 157.60831600323922 -213.60269262330306 6.5
vertex 157.39960992407765 -213.36285403003816 0
vertex 157.6083160032394 -213.60269262330328 0
endloop
endfacet
facet normal -0.8488619870256119 -0.5286145353496532 0
outer loop
vertex 157.77637949771074 -213.872573041497 6.5
vertex 157.60831600323922 -213.60269262330306 6.5
vertex 157.6083160032394 -213.60269262330328 0
endloop
endfacet
facet normal -0.8488619870256119 -0.5286145353496532 0
outer loop
vertex 157.77637949771074 -213.872573041497 6.5
vertex 157.6083160032394 -213.60269262330328 0
vertex 157.77637949771074 -213.872573041497 0
endloop
endfacet
facet normal -0.9219024225885598 -0.3874221511805235 0
outer loop
vertex 157.89955341028568 -214.1656753539397 6.5
vertex 157.77637949771074 -213.872573041497 6.5
vertex 157.77637949771074 -213.872573041497 0
endloop
endfacet
facet normal -0.9219024225885598 -0.3874221511805235 0
outer loop
vertex 157.89955341028568 -214.1656753539397 6.5
vertex 157.77637949771074 -213.872573041497 0
vertex 157.8995534102857 -214.16567535393978 0
endloop
endfacet
facet normal -0.9716462045539196 -0.23643953386851974 0
outer loop
vertex 157.97472511222705 -214.47459280816628 6.5
vertex 157.89955341028568 -214.1656753539397 6.5
vertex 157.8995534102857 -214.16567535393978 0
endloop
endfacet
facet normal -0.9716462045539196 -0.23643953386851974 0
outer loop
vertex 157.97472511222705 -214.47459280816628 6.5
vertex 157.8995534102857 -214.16567535393978 0
vertex 157.97472511222702 -214.47459280816614 0
endloop
endfacet
facet normal -0.9968350318431991 -0.07949792003674361 0
outer loop
vertex 158.00000000000003 -214.7915179999998 6.5
vertex 157.97472511222705 -214.47459280816628 6.5
vertex 157.97472511222702 -214.47459280816614 0
endloop
endfacet
facet normal -0.9968350318431991 -0.07949792003674361 0
outer loop
vertex 158.00000000000003 -214.7915179999998 6.5
vertex 157.97472511222702 -214.47459280816614 0
vertex 158 -214.7915179999997 0
endloop
endfacet
facet normal 0 0 -1
outer loop
vertex 158.0000012 -249.56013459999986 6.5
vertex 158.000000353387 -225.03049924999993 6.5
vertex 158.00000034599836 -224.81642149569436 6.5
endloop
endfacet
facet normal 0 0 -1
outer loop
vertex 158.0000012 -249.56013459999986 6.5
vertex 158.00000034599836 -224.81642149569436 6.5
vertex 158.000000338062 -224.58647434393035 6.5
endloop
endfacet
facet normal 0 0 -1
outer loop
vertex 158.0000012 -249.56013459999986 6.5
vertex 158.000000338062 -224.58647434393035 6.5
vertex 158.00000032970686 -224.34439389119416 6.5
endloop
endfacet
facet normal 0 0 -1
outer loop
vertex 158.0000012 -249.56013459999986 6.5
vertex 158.00000032970686 -224.34439389119416 6.5
vertex 158.0000003210687 -224.09411337136774 6.5
endloop
endfacet
facet normal 0 0 -1
outer loop
vertex 158.0000012 -249.56013459999986 6.5
vertex 158.0000003210687 -224.09411337136774 6.5
vertex 158.00000031228785 -223.83969849999968 6.5
endloop
endfacet
facet normal 0 0 -1
outer loop
vertex 158.0000012 -249.56013459999986 6.5
vertex 158.00000031228785 -223.83969849999968 6.5
vertex 158.00000000000003 -214.7915179999998 6.5
endloop
endfacet
facet normal 0 0 -1
outer loop
vertex 158.0000012 -249.56013459999986 6.5
vertex 158.00000000000003 -214.7915179999998 6.5
vertex 158 -214.7915179999997 0
endloop
endfacet
facet normal 0 0 -1
outer loop
vertex 158.0000012 -249.56013459999986 6.5
vertex 158 -214.7915179999997 0
vertex 158.00000031228785 -223.83969849999994 0
endloop
endfacet
facet normal 0 0 -1
outer loop
vertex 158.0000012 -249.56013459999986 6.5
vertex 158.00000031228785 -223.83969849999994 0
vertex 158.0000003210687 -224.0941133713676 0
endloop
endfacet
facet normal 0 0 -1
outer loop
vertex 158.0000012 -249.56013459999986 6.5
vertex 158.0000003210687 -224.0941133713676 0
vertex 158.00000032970686 -224.3443938911938 0
endloop
endfacet
facet normal 0 0 -1
outer loop
vertex 158.0000012 -249.56013459999986 6.5
vertex 158.00000032970686 -224.3443938911938 0
vertex 158.000000338062 -224.58647434393023 0
endloop
endfacet
facet normal 0 0 -1
outer loop
vertex 158.0000012 -249.56013459999986 6.5
vertex 158.000000338062 -224.58647434393023 0
vertex 158.00000034599836 -224.8164214956942 0
endloop
endfacet
facet normal 0 0 -1
outer loop
vertex 158.0000012 -249.56013459999986 6.5
vertex 158.00000034599836 -224.8164214956942 0
vertex 158.000000353387 -225.0304992499998 0
endloop
endfacet
facet normal 0 0 -1
outer loop
vertex 158.0000012 -249.56013459999986 6.5
vertex 158.000000353387 -225.0304992499998 0
vertex 158.0000012 -249.56013459999957 0
endloop
endfacet
facet normal -0.9970618584583766 -0.07660059012519581 0
outer loop
vertex 158.02346983433418 -249.86561109993883 6.5
vertex 158.0000012 -249.56013459999986 6.5
vertex 158.0000012 -249.56013459999957 0
endloop
endfacet
facet normal -0.9970618584583766 -0.07660059012519581 0
outer loop
vertex 158.02346983433418 -249.86561109993883 6.5
vertex 158.0000012 -249.56013459999957 0
vertex 158.02346983433424 -249.86561109993914 0
endloop
endfacet
facet normal -0.973663153181362 -0.22799136855795135 0
outer loop
vertex 158.09332107244202 -250.16391878228612 6.5
vertex 158.02346983433418 -249.86561109993883 6.5
vertex 158.02346983433424 -249.86561109993914 0
endloop
endfacet
facet normal -0.973663153181362 -0.22799136855795135 0
outer loop
vertex 158.09332107244202 -250.16391878228612 6.5
vertex 158.02346983433424 -249.86561109993914 0
vertex 158.093321072442 -250.16391878228603 0
endloop
endfacet
facet normal -0.9274158187206749 -0.3740319494196455 0
outer loop
vertex 158.20791573856502 -250.44805735993535 6.5
vertex 158.09332107244202 -250.16391878228612 6.5
vertex 158.093321072442 -250.16391878228603 0
endloop
endfacet
facet normal -0.9274158187206749 -0.3740319494196455 0
outer loop
vertex 158.20791573856502 -250.44805735993535 6.5
vertex 158.093321072442 -250.16391878228603 0
vertex 158.207915738565 -250.4480573599353 0
endloop
endfacet
facet normal -0.8594051258832183 -0.5112952470008398 0
outer loop
vertex 158.36456467781008 -250.71135904744577 6.5
vertex 158.20791573856502 -250.44805735993535 6.5
vertex 158.207915738565 -250.4480573599353 0
endloop
endfacet
facet normal -0.8594051258832183 -0.5112952470008398 0
outer loop
vertex 158.36456467781008 -250.71135904744577 6.5
vertex 158.207915738565 -250.4480573599353 0
vertex 158.36456467781008 -250.71135904744574 0
endloop
endfacet
facet normal -0.7712270589640298 -0.6365601491781376 0
outer loop
vertex 158.55959186165208 -250.9476450317423 6.5
vertex 158.36456467781008 -250.71135904744577 6.5
vertex 158.36456467781008 -250.71135904744574 0
endloop
endfacet
facet normal -0.7712270589640298 -0.6365601491781376 0
outer loop
vertex 158.55959186165208 -250.9476450317423 6.5
vertex 158.36456467781008 -250.71135904744574 0
vertex 158.55959186165222 -250.94764503174244 0
endloop
endfacet
facet normal -0.6649508633140302 -0.7468871061799943 0
outer loop
vertex 158.7884206520726 -251.15137046826703 6.5
vertex 158.55959186165208 -250.9476450317423 6.5
vertex 158.55959186165222 -250.94764503174244 0
endloop
endfacet
facet normal -0.6649508633140302 -0.7468871061799943 0
outer loop
vertex 158.7884206520726 -251.15137046826703 6.5
vertex 158.55959186165222 -250.94764503174244 0
vertex 158.78842065207255 -251.151370468267 0
endloop
endfacet
facet normal -0.5430792869717929 -0.8396814205770001 0
outer loop
vertex 159.04568240000054 -251.31775920000032 6.5
vertex 158.7884206520726 -251.15137046826703 6.5
vertex 158.78842065207255 -251.151370468267 0
endloop
endfacet
facet normal -0.5430792869717929 -0.8396814205770001 0
outer loop
vertex 159.04568240000054 -251.31775920000032 6.5
vertex 158.78842065207255 -251.151370468267 0
vertex 159.04568240000035 -251.3177592000002 0
endloop
endfacet
facet normal -0.4771588796909024 -0.8788170478160531 0
outer loop
vertex 193.2505886999999 -269.88951404999995 6.5
vertex 159.04568240000054 -251.31775920000032 6.5
vertex 159.04568240000035 -251.3177592000002 0
endloop
endfacet
facet normal -0.4771588796909024 -0.8788170478160531 0
outer loop
vertex 193.2505886999999 -269.88951404999995 6.5
vertex 159.04568240000035 -251.3177592000002 0
vertex 193.2505886999997 -269.88951404999983 0
endloop
endfacet
facet normal -0.407709765685442 -0.9131115742146313 0
outer loop
vertex 193.5332581430883 -270.015727642799 6.5
vertex 193.2505886999999 -269.88951404999995 6.5
vertex 193.2505886999997 -269.88951404999983 0
endloop
endfacet
facet normal -0.407709765685442 -0.9131115742146313 0
outer loop
vertex 193.5332581430883 -270.015727642799 6.5
vertex 193.2505886999997 -269.88951404999983 0
vertex 193.5332581430888 -270.01572764279916 0
endloop
endfacet
facet normal -0.2619149920510606 -0.965090947496086 0
outer loop
vertex 193.83201869805512 -270.0968079478027 6.5
vertex 193.5332581430883 -270.015727642799 6.5
vertex 193.5332581430888 -270.01572764279916 0
endloop
endfacet
facet normal -0.2619149920510606 -0.965090947496086 0
outer loop
vertex 193.83201869805512 -270.0968079478027 6.5
vertex 193.5332581430888 -270.01572764279916 0
vertex 193.8320186980551 -270.09680794780274 0
endloop
endfacet
facet normal -0.10984526656301347 -0.9939486995885153 0
outer loop
vertex 194.13971266810805 -270.13081244539325 6.5
vertex 193.83201869805512 -270.0968079478027 6.5
vertex 193.8320186980551 -270.09680794780274 0
endloop
endfacet
facet normal -0.10984526656301347 -0.9939486995885153 0
outer loop
vertex 194.13971266810805 -270.13081244539325 6.5
vertex 193.8320186980551 -270.09680794780274 0
vertex 194.13971266810788 -270.1308124453933 0
endloop
endfacet
facet normal 0.04485612866494652 -0.9989934572964899 0
outer loop
vertex 194.44896832995417 -270.1169264567946 6.5
vertex 194.13971266810805 -270.13081244539325 6.5
vertex 194.13971266810788 -270.1308124453933 0
endloop
endfacet
facet normal 0.04485612866494652 -0.9989934572964899 0
outer loop
vertex 194.44896832995417 -270.1169264567946 6.5
vertex 194.13971266810788 -270.1308124453933 0
vertex 194.44896832995352 -270.11692645679466 0
endloop
endfacet
facet normal 0.19848286205126495 -0.9801043584598217 0
outer loop
vertex 194.75237654533274 -270.05548266212276 6.5
vertex 194.44896832995417 -270.1169264567946 6.5
vertex 194.44896832995352 -270.11692645679466 0
endloop
endfacet
facet normal 0.19848286205126495 -0.9801043584598217 0
outer loop
vertex 194.75237654533274 -270.05548266212276 6.5
vertex 194.44896832995352 -270.11692645679466 0
vertex 194.752376545333 -270.05548266212264 0
endloop
endfacet
facet normal 0.34735434873175675 -0.9377339475656926 0
outer loop
vertex 195.04266826893962 -269.9479531300444 6.5
vertex 194.75237654533274 -270.05548266212276 6.5
vertex 194.752376545333 -270.05548266212264 0
endloop
endfacet
facet normal 0.34735434873175675 -0.9377339475656926 0
outer loop
vertex 195.04266826893962 -269.9479531300444 6.5
vertex 194.752376545333 -270.05548266212264 0
vertex 195.04266826893937 -269.94795313004454 0
endloop
endfacet
facet normal 0.4878957498696044 -0.8729019058629536 0
outer loop
vertex 195.31288739999988 -269.7969181000001 6.5
vertex 195.04266826893962 -269.9479531300444 6.5
vertex 195.04266826893937 -269.94795313004454 0
endloop
endfacet
facet normal 0.4878957498696044 -0.8729019058629536 0
outer loop
vertex 195.31288739999988 -269.7969181000001 6.5
vertex 195.04266826893937 -269.94795313004454 0
vertex 195.31288740000002 -269.79691809999997 0
endloop
endfacet
facet normal 0.5539913149586875 -0.8325224459138291 0
outer loop
vertex 232.5768942000003 -245.00006579999976 6.5
vertex 195.31288739999988 -269.7969181000001 6.5
vertex 195.31288740000002 -269.79691809999997 0
endloop
endfacet
facet normal 0.5539913149586875 -0.8325224459138291 0
outer loop
vertex 232.5768942000003 -245.00006579999976 6.5
vertex 195.31288740000002 -269.79691809999997 0
vertex 232.5768942000001 -245.00006579999987 0
endloop
endfacet
facet normal 0.6195968857174505 -0.7849201865216849 0
outer loop
vertex 232.8311499199098 -244.7993625247663 6.5
vertex 232.5768942000003 -245.00006579999976 6.5
vertex 232.5768942000001 -245.00006579999987 0
endloop
endfacet
facet normal 0.6195968857174505 -0.7849201865216849 0
outer loop
vertex 232.8311499199098 -244.7993625247663 6.5
vertex 232.5768942000001 -245.00006579999987 0
vertex 232.83114991990988 -244.7993625247662 0
endloop
endfacet
facet normal 0.7381805932452147 -0.6746031513090811 0
outer loop
vertex 233.04967113115504 -244.56024695431475 6.5
vertex 232.8311499199098 -244.7993625247663 6.5
vertex 232.83114991990988 -244.7993625247662 0
endloop
endfacet
facet normal 0.7381805932452147 -0.6746031513090811 0
outer loop
vertex 233.04967113115504 -244.56024695431475 6.5
vertex 232.83114991990988 -244.7993625247662 0
vertex 233.0496711311551 -244.56024695431466 0
endloop
endfacet
facet normal 0.8374003888266197 -0.5465899640434557 0
outer loop
vertex 233.2267255975708 -244.28899155488654 6.5
vertex 233.04967113115504 -244.56024695431475 6.5
vertex 233.0496711311551 -244.56024695431466 0
endloop
endfacet
facet normal 0.8374003888266197 -0.5465899640434557 0
outer loop
vertex 233.2267255975708 -244.28899155488654 6.5
vertex 233.0496711311551 -244.56024695431466 0
vertex 233.22672559757072 -244.28899155488668 0
endloop
endfacet
facet normal 0.9146535443453877 -0.40423865947781373 0
outer loop
vertex 233.3576688363176 -243.99271188291618 6.5
vertex 233.2267255975708 -244.28899155488654 6.5
vertex 233.22672559757072 -244.28899155488668 0
endloop
endfacet
facet normal 0.9146535443453877 -0.40423865947781373 0
outer loop
vertex 233.3576688363176 -243.99271188291618 6.5
vertex 233.22672559757072 -244.28899155488668 0
vertex 233.35766883631774 -243.9927118829158 0
endloop
endfacet
facet normal 0.9679135593559562 -0.2512833890548354 0
outer loop
vertex 233.4390659516966 -243.67917993015104 6.5
vertex 233.3576688363176 -243.99271188291618 6.5
vertex 233.35766883631774 -243.9927118829158 0
endloop
endfacet
facet normal 0.9679135593559562 -0.2512833890548354 0
outer loop
vertex 233.4390659516966 -243.67917993015104 6.5
vertex 233.35766883631774 -243.9927118829158 0
vertex 233.43906595169656 -243.67917993015138 0
endloop
endfacet
facet normal 0.995783320129957 -0.09173646685457026 0
outer loop
vertex 233.4687817391392 -243.3566202492036 6.5
vertex 233.4390659516966 -243.67917993015104 6.5
vertex 233.43906595169656 -243.67917993015138 0
endloop
endfacet
facet normal 0.995783320129957 -0.09173646685457026 0
outer loop
vertex 233.4687817391392 -243.3566202492036 6.5
vertex 233.43906595169656 -243.67917993015138 0
vertex 233.4687817391392 -243.35662024920347 0
endloop
endfacet
facet normal 0.9975317486648022 0.07021688120204321 0
outer loop
vertex 233.44603669577498 -243.03349420754327 6.5
vertex 233.4687817391392 -243.3566202492036 6.5
vertex 233.4687817391392 -243.35662024920347 0
endloop
endfacet
facet normal 0.9975317486648022 0.07021688120204321 0
outer loop
vertex 233.44603669577498 -243.03349420754327 6.5
vertex 233.4687817391392 -243.35662024920347 0
vertex 233.446036695775 -243.03349420754353 0
endloop
endfacet
facet normal 0.9731129802811993 0.2303283039668426 0
outer loop
vertex 233.37142746830668 -242.7182780293848 6.5
vertex 233.44603669577498 -243.03349420754327 6.5
vertex 233.446036695775 -243.03349420754353 0
endloop
endfacet
facet normal 0.9731129802811993 0.2303283039668426 0
outer loop
vertex 233.37142746830668 -242.7182780293848 6.5
vertex 233.446036695775 -243.03349420754353 0
vertex 233.37142746830656 -242.7182780293845 0
endloop
endfacet
facet normal 0.9231675667427329 0.3843977675719539 0
outer loop
vertex 233.24691120180705 -242.4192404478441 6.5
vertex 233.37142746830668 -242.7182780293848 6.5
vertex 233.37142746830656 -242.7182780293845 0
endloop
endfacet
facet normal 0.9231675667427329 0.3843977675719539 0
outer loop
vertex 233.24691120180705 -242.4192404478441 6.5
vertex 233.37142746830656 -242.7182780293845 0
vertex 233.24691120180708 -242.41924044784415 0
endloop
endfacet
facet normal 0.849015109647639 0.5283685679428777 0
outer loop
vertex 233.0757584000002 -242.14422160000026 6.5
vertex 233.24691120180705 -242.4192404478441 6.5
vertex 233.24691120180708 -242.41924044784415 0
endloop
endfacet
facet normal 0.849015109647639 0.5283685679428777 0
outer loop
vertex 233.0757584000002 -242.14422160000026 6.5
vertex 233.24691120180708 -242.41924044784415 0
vertex 233.07575840000027 -242.14422160000038 0
endloop
endfacet
facet normal 0.8034273420770445 0.595402809871616 0
outer loop
vertex 220.39314499999995 -225.03049924999993 6.5
vertex 233.0757584000002 -242.14422160000026 6.5
vertex 233.07575840000027 -242.14422160000038 0
endloop
endfacet
facet normal 0.8034273420770445 0.595402809871616 0
outer loop
vertex 220.39314499999995 -225.03049924999993 6.5
vertex 233.07575840000027 -242.14422160000038 0
vertex 220.3931449999999 -225.0304992499998 0
endloop
endfacet
facet normal 0.8397432473401474 0.5429836816577677 0
outer loop
vertex 220.25472087147963 -224.81642149569436 6.5
vertex 220.39314499999995 -225.03049924999993 6.5
vertex 220.3931449999999 -225.0304992499998 0
endloop
endfacet
facet normal 0.8397432473401474 0.5429836816577677 0
outer loop
vertex 220.25472087147963 -224.81642149569436 6.5
vertex 220.3931449999999 -225.0304992499998 0
vertex 220.25472087147958 -224.8164214956942 0
endloop
endfacet
facet normal 0.9019926828224815 0.43175131746724577 0
outer loop
vertex 220.14465347557652 -224.58647434393035 6.5
vertex 220.25472087147963 -224.81642149569436 6.5
vertex 220.25472087147958 -224.8164214956942 0
endloop
endfacet
facet normal 0.9019926828224815 0.43175131746724577 0
outer loop
vertex 220.14465347557652 -224.58647434393035 6.5
vertex 220.25472087147958 -224.8164214956942 0
vertex 220.1446534755765 -224.58647434393023 0
endloop
endfacet
facet normal 0.9495868739743806 0.31350401716016946 0
outer loop
vertex 220.06473114673142 -224.34439389119416 6.5
vertex 220.14465347557652 -224.58647434393035 6.5
vertex 220.1446534755765 -224.58647434393023 0
endloop
endfacet
facet normal 0.9495868739743806 0.31350401716016946 0
outer loop
vertex 220.06473114673142 -224.34439389119416 6.5
vertex 220.1446534755765 -224.58647434393023 0
vertex 220.06473114673133 -224.3443938911938 0
endloop
endfacet
facet normal 0.9817525279372884 0.19016301924597193 0
outer loop
vertex 220.01625243345666 -224.09411337136774 6.5
vertex 220.06473114673142 -224.34439389119416 6.5
vertex 220.06473114673133 -224.3443938911938 0
endloop
endfacet
facet normal 0.9817525279372884 0.19016301924597193 0
outer loop
vertex 220.01625243345666 -224.09411337136774 6.5
vertex 220.06473114673133 -224.3443938911938 0
vertex 220.01625243345663 -224.0941133713676 0
endloop
endfacet
facet normal 0.9979657933564314 0.06375166892300396 0
outer loop
vertex 220 -223.83969849999968 6.5
vertex 220.01625243345666 -224.09411337136774 6.5
vertex 220.01625243345663 -224.0941133713676 0
endloop
endfacet
facet normal 0.9979657933564314 0.06375166892300396 0
outer loop
vertex 220 -223.83969849999968 6.5
vertex 220.01625243345663 -224.0941133713676 0
vertex 220 -223.83969849999994 0
endloop
endfacet
facet normal 1 0 0
outer loop
vertex 220 -214.7915179999997 0
vertex 220 -214.47459280816614 0
vertex 220 -214.16567535393978 0
endloop
endfacet
facet normal 1 0 0
outer loop
vertex 220 -214.7915179999997 0
vertex 220 -214.16567535393978 0
vertex 220 -213.872573041497 0
endloop
endfacet
facet normal 1 0 0
outer loop
vertex 220 -214.7915179999997 0
vertex 220 -213.872573041497 0
vertex 220 -213.60269262330328 0
endloop
endfacet
facet normal 1 0 0
outer loop
vertex 220 -214.7915179999997 0
vertex 220 -213.60269262330328 0
vertex 220 -213.36285403003816 0
endloop
endfacet
facet normal 1 0 0
outer loop
vertex 220 -214.7915179999997 0
vertex 220 -213.36285403003816 0
vertex 220 -213.15911802962006 0
endloop
endfacet
facet normal 1 0 0
outer loop
vertex 220 -214.7915179999997 0
vertex 220 -213.15911802962006 0
vertex 220 -212.99663307042152 0
endloop
endfacet
facet normal 1 0 0
outer loop
vertex 220 -214.7915179999997 0
vertex 220 -212.99663307042152 0
vertex 220 -212.87950517897684 0
endloop
endfacet
facet normal 1 0 0
outer loop
vertex 220 -214.7915179999997 0
vertex 220 -212.87950517897684 0
vertex 220 -212.8106941998929 0
endloop
endfacet
facet normal 1 0 0
outer loop
vertex 220 -214.7915179999997 0
vertex 220 -212.8106941998929 0
vertex 220 -212.79193899999999 0
endloop
endfacet
facet normal 1 0 0
outer loop
vertex 220 -214.7915179999997 0
vertex 220 -212.79193899999999 0
vertex 220 -147.75 0
endloop
endfacet
facet normal 1 0 0
outer loop
vertex 220 -214.7915179999997 0
vertex 220 -147.75 0
vertex 220 -147.7373993565404 0
endloop
endfacet
facet normal 1 0 0
outer loop
vertex 220 -214.7915179999997 0
vertex 220 -147.7373993565404 0
vertex 220 -147.69975462120271 0
endloop
endfacet
facet normal 1 0 0
outer loop
vertex 220 -214.7915179999997 0
vertex 220 -147.69975462120271 0
vertex 220 -147.63754017182518 0
endloop
endfacet
facet normal 1 0 0
outer loop
vertex 220 -214.7915179999997 0
vertex 220 -147.63754017182518 0
vertex 220 -147.5515399999999 0
endloop
endfacet
facet normal 1 0 0
outer loop
vertex 220 -214.7915179999997 0
vertex 220 -147.5515399999999 0
vertex 220 -136.2500000000001 0
endloop
endfacet
facet normal 1 0 0
outer loop
vertex 220 -214.7915179999997 0
vertex 220 -136.2500000000001 0
vertex 220 -136.25000000000009 6.5
endloop
endfacet
facet normal 1 0 0
outer loop
vertex 220 -214.7915179999997 0
vertex 220 -136.25000000000009 6.5
vertex 220 -147.55153999999993 6.5
endloop
endfacet
facet normal 1 0 0
outer loop
vertex 220 -214.7915179999997 0
vertex 220 -147.55153999999993 6.5
vertex 220 -147.63754017182507 6.5
endloop
endfacet
facet normal 1 0 0
outer loop
vertex 220 -214.7915179999997 0
vertex 220 -147.63754017182507 6.5
vertex 220 -147.6997546212027 6.5
endloop
endfacet
facet normal 1 0 0
outer loop
vertex 220 -214.7915179999997 0
vertex 220 -147.6997546212027 6.5
vertex 220 -147.73739935654046 6.5
endloop
endfacet
facet normal 1 0 0
outer loop
vertex 220 -214.7915179999997 0
vertex 220 -147.73739935654046 6.5
vertex 220 -147.75 6.5
endloop
endfacet
facet normal 1 0 0
outer loop
vertex 220 -214.7915179999997 0
vertex 220 -147.75 6.5
vertex 220 -212.79193899999999 6.5
endloop
endfacet
facet normal 1 0 0
outer loop
vertex 220 -214.7915179999997 0
vertex 220 -212.79193899999999 6.5
vertex 220 -212.81069419989294 6.5
endloop
endfacet
facet normal 1 0 0
outer loop
vertex 220 -214.7915179999997 0
vertex 220 -212.81069419989294 6.5
vertex 220 -212.87950517897687 6.5
endloop
endfacet
facet normal 1 0 0
outer loop
vertex 220 -214.7915179999997 0
vertex 220 -212.87950517897687 6.5
vertex 220 -212.99663307042144 6.5
endloop
endfacet
facet normal 1 0 0
outer loop
vertex 220 -214.7915179999997 0
vertex 220 -212.99663307042144 6.5
vertex 220 -213.15911802962017 6.5
endloop
endfacet
facet normal 1 0 0
outer loop
vertex 220 -214.7915179999997 0
vertex 220 -213.15911802962017 6.5
vertex 220 -213.36285403003816 6.5
endloop
endfacet
facet normal 1 0 0
outer loop
vertex 220 -214.7915179999997 0
vertex 220 -213.36285403003816 6.5
vertex 220 -213.60269262330306 6.5
endloop
endfacet
facet normal 1 0 0
outer loop
vertex 220 -214.7915179999997 0
vertex 220 -213.60269262330306 6.5
vertex 220 -213.872573041497 6.5
endloop
endfacet
facet normal 1 0 0
outer loop
vertex 220 -214.7915179999997 0
vertex 220 -213.872573041497 6.5
vertex 220 -214.1656753539397 6.5
endloop
endfacet
facet normal 1 0 0
outer loop
vertex 220 -214.7915179999997 0
vertex 220 -214.1656753539397 6.5
vertex 220 -214.47459280816628 6.5
endloop
endfacet
facet normal 1 0 0
outer loop
vertex 220 -214.7915179999997 0
vertex 220 -214.47459280816628 6.5
vertex 220 -214.7915179999998 6.5
endloop
endfacet
facet normal 1 0 0
outer loop
vertex 220 -214.7915179999997 0
vertex 220 -214.7915179999998 6.5
vertex 220 -223.83969849999968 6.5
endloop
endfacet
facet normal 1 0 0
outer loop
vertex 220 -214.7915179999997 0
vertex 220 -223.83969849999968 6.5
vertex 220 -223.83969849999994 0
endloop
endfacet
facet normal 0.9961946980917434 0.08715574274768315 0
outer loop
vertex 219.9696155060244 -135.90270364466616 6.5
vertex 220 -136.25000000000009 6.5
vertex 220 -136.2500000000001 0
endloop
endfacet
facet normal 0.9961946980917434 0.08715574274768315 0
outer loop
vertex 219.9696155060244 -135.90270364466616 6.5
vertex 220 -136.2500000000001 0
vertex 219.9696155060244 -135.9027036446661 0
endloop
endfacet
facet normal 0.9659258262890631 0.2588190451025404 0
outer loop
vertex 219.8793852415718 -135.56595971334872 6.5
vertex 219.9696155060244 -135.90270364466616 6.5
vertex 219.9696155060244 -135.9027036446661 0
endloop
endfacet
facet normal 0.9659258262890631 0.2588190451025404 0
outer loop
vertex 219.8793852415718 -135.56595971334872 6.5
vertex 219.9696155060244 -135.9027036446661 0
vertex 219.87938524157187 -135.5659597133488 0
endloop
endfacet
facet normal 0.9063077870366523 0.42261826174069467 0
outer loop
vertex 219.7320508075688 -135.24999999999991 6.5
vertex 219.8793852415718 -135.56595971334872 6.5
vertex 219.87938524157187 -135.5659597133488 0
endloop
endfacet
facet normal 0.9063077870366523 0.42261826174069467 0
outer loop
vertex 219.7320508075688 -135.24999999999991 6.5
vertex 219.87938524157187 -135.5659597133488 0
vertex 219.73205080756887 -135.25000000000003 0
endloop
endfacet
facet normal 0.8191520442889708 0.5735764363510761 0
outer loop
vertex 219.5320888862379 -134.96442478062684 6.5
vertex 219.7320508075688 -135.24999999999991 6.5
vertex 219.73205080756887 -135.25000000000003 0
endloop
endfacet
facet normal 0.8191520442889708 0.5735764363510761 0
outer loop
vertex 219.5320888862379 -134.96442478062684 6.5
vertex 219.73205080756887 -135.25000000000003 0
vertex 219.5320888862379 -134.96442478062687 0
endloop
endfacet
facet normal 0.7071067811865476 0.7071067811865476 0
outer loop
vertex 219.28557521937313 -134.71791111376209 6.5
vertex 219.5320888862379 -134.96442478062684 6.5
vertex 219.5320888862379 -134.96442478062687 0
endloop
endfacet
facet normal 0.7071067811865476 0.7071067811865476 0
outer loop
vertex 219.28557521937313 -134.71791111376209 6.5
vertex 219.5320888862379 -134.96442478062687 0
vertex 219.28557521937304 -134.71791111376203 0
endloop
endfacet
facet normal 0.5735764363510734 0.8191520442889729 0
outer loop
vertex 219.0000000000001 -134.51794919243122 6.5
vertex 219.28557521937313 -134.71791111376209 6.5
vertex 219.28557521937304 -134.71791111376203 0
endloop
endfacet
facet normal 0.5735764363510734 0.8191520442889729 0
outer loop
vertex 219.0000000000001 -134.51794919243122 6.5
vertex 219.28557521937304 -134.71791111376203 0
vertex 219.00000000000006 -134.51794919243116 0
endloop
endfacet
facet normal 0.4226182617406989 0.9063077870366503 0
outer loop
vertex 218.68404028665114 -134.37061475842813 6.5
vertex 219.0000000000001 -134.51794919243122 6.5
vertex 219.00000000000006 -134.51794919243116 0
endloop
endfacet
facet normal 0.4226182617406989 0.9063077870366503 0
outer loop
vertex 218.68404028665114 -134.37061475842813 6.5
vertex 219.00000000000006 -134.51794919243116 0
vertex 218.68404028665142 -134.37061475842822 0
endloop
endfacet
facet normal 0.25881904510251297 0.9659258262890704 0
outer loop
vertex 218.34729635533378 -134.28038449397556 6.5
vertex 218.68404028665114 -134.37061475842813 6.5
vertex 218.68404028665142 -134.37061475842822 0
endloop
endfacet
facet normal 0.25881904510251297 0.9659258262890704 0
outer loop
vertex 218.34729635533378 -134.28038449397556 6.5
vertex 218.68404028665142 -134.37061475842822 0
vertex 218.34729635533387 -134.2803844939756 0
endloop
endfacet
facet normal 0.087155742747683 0.9961946980917434 0
outer loop
vertex 218.00000000000006 -134.24999999999997 6.5
vertex 218.34729635533378 -134.28038449397556 6.5
vertex 218.34729635533387 -134.2803844939756 0
endloop
endfacet
facet normal 0.087155742747683 0.9961946980917434 0
outer loop
vertex 218.00000000000006 -134.24999999999997 6.5
vertex 218.34729635533387 -134.2803844939756 0
vertex 218.00000000000009 -134.25 0
endloop
endfacet
facet normal -1.5560857491436764e-8 1 0
outer loop
vertex 134.4569719500001 -134.25000129999998 6.5
vertex 218.00000000000006 -134.24999999999997 6.5
vertex 218.00000000000009 -134.25 0
endloop
endfacet
facet normal -1.5560857491436764e-8 1 0
outer loop
vertex 134.4569719500001 -134.25000129999998 6.5
vertex 218.00000000000009 -134.25 0
vertex 134.45697195000008 -134.25000129999998 0
endloop
endfacet
facet normal -0.0561245220690694 0.9984237767714261 0
outer loop
vertex 134.23281356844277 -134.26260194345957 6.5
vertex 134.4569719500001 -134.25000129999998 6.5
vertex 134.45697195000008 -134.25000129999998 0
endloop
endfacet
facet normal -0.0561245220690694 0.9984237767714261 0
outer loop
vertex 134.23281356844277 -134.26260194345957 6.5
vertex 134.45697195000008 -134.25000129999998 0
vertex 134.23281356844277 -134.26260194345957 0
endloop
endfacet
facet normal -0.16767340382432402 0.9858425988209097 0
outer loop
vertex 134.01147981561815 -134.30024667879735 6.5
vertex 134.23281356844277 -134.26260194345957 6.5
vertex 134.23281356844277 -134.26260194345957 0
endloop
endfacet
facet normal -0.16767340382432402 0.9858425988209097 0
outer loop
vertex 134.01147981561815 -134.30024667879735 6.5
vertex 134.23281356844277 -134.26260194345957 0
vertex 134.0114798156184 -134.3002466787973 0
endloop
endfacet
facet normal -0.2771093593994753 0.9608383854390978 0
outer loop
vertex 133.7957598153251 -134.36246112817486 6.5
vertex 134.01147981561815 -134.30024667879735 6.5
vertex 134.0114798156184 -134.3002466787973 0
endloop
endfacet
facet normal -0.2771093593994753 0.9608383854390978 0
outer loop
vertex 133.7957598153251 -134.36246112817486 6.5
vertex 134.0114798156184 -134.3002466787973 0
vertex 133.79575981532489 -134.36246112817494 0
endloop
endfacet
facet normal -0.38306135226110793 0.9237229023922118 0
outer loop
vertex 133.5883738999997 -134.44846260000014 6.5
vertex 133.7957598153251 -134.36246112817486 6.5
vertex 133.79575981532489 -134.36246112817494 0
endloop
endfacet
facet normal -0.38306135226110793 0.9237229023922118 0
outer loop
vertex 133.5883738999997 -134.44846260000014 6.5
vertex 133.79575981532489 -134.36246112817494 0
vertex 133.58837389999954 -134.4484626000002 0
endloop
endfacet
facet normal -0.4342992903754069 0.9007686308811037 0
outer loop
vertex 106.41162885000014 -147.55153999999993 6.5
vertex 133.5883738999997 -134.44846260000014 6.5
vertex 133.58837389999954 -134.4484626000002 0
endloop
endfacet
facet normal -0.4342992903754069 0.9007686308811037 0
outer loop
vertex 106.41162885000014 -147.55153999999993 6.5
vertex 133.58837389999954 -134.4484626000002 0
vertex 106.41162885000013 -147.5515399999999 0
endloop
endfacet
facet normal -0.38305333826943205 0.9237262256971186 0
outer loop
vertex 106.20424098467508 -147.63754017182507 6.5
vertex 106.41162885000014 -147.55153999999993 6.5
vertex 106.41162885000013 -147.5515399999999 0
endloop
endfacet
facet normal -0.38305333826943205 0.9237262256971186 0
outer loop
vertex 106.20424098467508 -147.63754017182507 6.5
vertex 106.41162885000013 -147.5515399999999 0
vertex 106.20424098467471 -147.63754017182518 0
endloop
endfacet
facet normal -0.27710935939950343 0.9608383854390898 0
outer loop
vertex 105.98852098438167 -147.6997546212027 6.5
vertex 106.20424098467508 -147.63754017182507 6.5
vertex 106.20424098467471 -147.63754017182518 0
endloop
endfacet
facet normal -0.27710935939950343 0.9608383854390898 0
outer loop
vertex 105.98852098438167 -147.6997546212027 6.5
vertex 106.20424098467471 -147.63754017182518 0
vertex 105.98852098438154 -147.69975462120271 0
endloop
endfacet
facet normal -0.16767340382429582 0.9858425988209146 0
outer loop
vertex 105.767187231557 -147.73739935654046 6.5
vertex 105.98852098438167 -147.6997546212027 6.5
vertex 105.98852098438154 -147.69975462120271 0
endloop
endfacet
facet normal -0.16767340382429582 0.9858425988209146 0
outer loop
vertex 105.767187231557 -147.73739935654046 6.5
vertex 105.98852098438154 -147.69975462120271 0
vertex 105.7671872315573 -147.7373993565404 0
endloop
endfacet
facet normal -0.05612423504180697 0.9984237929060846 0
outer loop
vertex 105.54302770000072 -147.75 6.5
vertex 105.767187231557 -147.73739935654046 6.5
vertex 105.7671872315573 -147.7373993565404 0
endloop
endfacet
facet normal -0.05612423504180697 0.9984237929060846 0
outer loop
vertex 105.54302770000072 -147.75 6.5
vertex 105.7671872315573 -147.7373993565404 0
vertex 105.54302770000001 -147.75 0
endloop
endfacet
facet normal 0 1 0
outer loop
vertex 105.54302770000072 -147.75 6.5
vertex 105.54302770000001 -147.75 0
vertex 86.99999999999991 -147.75 0
endloop
endfacet
facet normal 0 1 0
outer loop
vertex 105.54302770000072 -147.75 6.5
vertex 86.99999999999991 -147.75 0
vertex 87.00000000000007 -147.75 6.5
endloop
endfacet
facet normal -0.087155742747683 0.9961946980917433 0
outer loop
vertex 86.65270364466599 -147.78038449397562 6.5
vertex 87.00000000000007 -147.75 6.5
vertex 86.99999999999991 -147.75 0
endloop
endfacet
facet normal -0.087155742747683 0.9961946980917433 0
outer loop
vertex 86.65270364466599 -147.78038449397562 6.5
vertex 86.99999999999991 -147.75 0
vertex 86.6527036446662 -147.7803844939756 0
endloop
endfacet
facet normal -0.2588190451025404 0.9659258262890631 0
outer loop
vertex 86.31595971334865 -147.8706147584282 6.5
vertex 86.65270364466599 -147.78038449397562 6.5
vertex 86.6527036446662 -147.7803844939756 0
endloop
endfacet
facet normal -0.2588190451025404 0.9659258262890631 0
outer loop
vertex 86.31595971334865 -147.8706147584282 6.5
vertex 86.6527036446662 -147.7803844939756 0
vertex 86.3159597133486 -147.87061475842822 0
endloop
endfacet
facet normal -0.42261826174069467 0.9063077870366523 0
outer loop
vertex 86.00000000000007 -148.0179491924311 6.5
vertex 86.31595971334865 -147.8706147584282 6.5
vertex 86.3159597133486 -147.87061475842822 0
endloop
endfacet
facet normal -0.42261826174069467 0.9063077870366523 0
outer loop
vertex 86.00000000000007 -148.0179491924311 6.5
vertex 86.3159597133486 -147.87061475842822 0
vertex 85.99999999999996 -148.01794919243116 0
endloop
endfacet
facet normal -0.5735764363510599 0.8191520442889821 0
outer loop
vertex 85.71442478062689 -148.2179111137621 6.5
vertex 86.00000000000007 -148.0179491924311 6.5
vertex 85.99999999999996 -148.01794919243116 0
endloop
endfacet
facet normal -0.5735764363510599 0.8191520442889821 0
outer loop
vertex 85.71442478062689 -148.2179111137621 6.5
vertex 85.99999999999996 -148.01794919243116 0
vertex 85.71442478062679 -148.21791111376217 0
endloop
endfacet
facet normal -0.7071067811865193 0.7071067811865761 0
outer loop
vertex 85.46791111376209 -148.46442478062687 6.5
vertex 85.71442478062689 -148.2179111137621 6.5
vertex 85.71442478062679 -148.21791111376217 0
endloop
endfacet
facet normal -0.7071067811865193 0.7071067811865761 0
outer loop
vertex 85.46791111376209 -148.46442478062687 6.5
vertex 85.71442478062679 -148.21791111376217 0
vertex 85.46791111376218 -148.46442478062676 0
endloop
endfacet
facet normal -0.8191520442889821 0.5735764363510599 0
outer loop
vertex 85.26794919243109 -148.75000000000006 6.5
vertex 85.46791111376209 -148.46442478062687 6.5
vertex 85.46791111376218 -148.46442478062676 0
endloop
endfacet
facet normal -0.8191520442889821 0.5735764363510599 0
outer loop
vertex 85.26794919243109 -148.75000000000006 6.5
vertex 85.46791111376218 -148.46442478062676 0
vertex 85.26794919243105 -148.75000000000014 0
endloop
endfacet
facet normal -0.906307787036659 0.4226182617406803 0
outer loop
vertex 85.12061475842818 -149.0659597133487 6.5
vertex 85.26794919243109 -148.75000000000006 6.5
vertex 85.26794919243105 -148.75000000000014 0
endloop
endfacet
facet normal -0.906307787036659 0.4226182617406803 0
outer loop
vertex 85.12061475842818 -149.0659597133487 6.5
vertex 85.26794919243105 -148.75000000000014 0
vertex 85.1206147584282 -149.0659597133486 0
endloop
endfacet
facet normal -0.9659258262890632 0.25881904510254045 0
outer loop
vertex 85.0303844939756 -149.40270364466605 6.5
vertex 85.12061475842818 -149.0659597133487 6.5
vertex 85.1206147584282 -149.0659597133486 0
endloop
endfacet
facet normal -0.9659258262890632 0.25881904510254045 0
outer loop
vertex 85.0303844939756 -149.40270364466605 6.5
vertex 85.1206147584282 -149.0659597133486 0
vertex 85.0303844939756 -149.40270364466608 0
endloop
endfacet
facet normal -0.9961946980917447 0.08715574274766881 0
outer loop
vertex 85 -149.75000000000003 6.5
vertex 85.0303844939756 -149.40270364466605 6.5
vertex 85.0303844939756 -149.40270364466608 0
endloop
endfacet
facet normal -0.9961946980917447 0.08715574274766881 0
outer loop
vertex 85 -149.75000000000003 6.5
vertex 85.0303844939756 -149.40270364466608 0
vertex 85 -149.75000000000009 0
endloop
endfacet
facet normal -0.9999999999999983 -5.7638288808448124e-8 0
outer loop
vertex 85.0000036 -212.20847995000003 6.5
vertex 85 -149.75000000000003 6.5
vertex 85 -149.75000000000009 0
endloop
endfacet
facet normal -0.9999999999999983 -5.7638288808448124e-8 0
outer loop
vertex 85.0000036 -212.20847995000003 6.5
vertex 85 -149.75000000000009 0
vertex 85.00000360000001 -212.20847995000008 0
endloop
endfacet
endsolid csg.js
